<?xml version="1.0" encoding="UTF-8"?>
<svg width="1115px" height="1088px" viewBox="0 0 1115 1088" version="1.1" xmlns="http://www.w3.org/2000/svg" xmlns:xlink="http://www.w3.org/1999/xlink">
    <title>pointing</title>
    <defs>
        <linearGradient x1="-1.64795703e-05%" y1="-9.83363447e-06%" x2="105.000083%" y2="-9.83363447e-06%" id="linearGradient-1">
            <stop stop-color="#8F6AFA" offset="17.7083%"></stop>
            <stop stop-color="#375CDC" offset="65.1042%"></stop>
            <stop stop-color="#0099EE" offset="100%"></stop>
        </linearGradient>
        <linearGradient x1="0%" y1="0%" x2="105.000567%" y2="0%" id="linearGradient-2">
            <stop stop-color="#8F6AFA" offset="17.7083%"></stop>
            <stop stop-color="#375CDC" offset="65.1042%"></stop>
            <stop stop-color="#0099EE" offset="100%"></stop>
        </linearGradient>
        <linearGradient x1="-0.00114716316%" y1="0.000326491637%" x2="105.000837%" y2="0.000326491637%" id="linearGradient-3">
            <stop stop-color="#8F6AFA" offset="17.7083%"></stop>
            <stop stop-color="#375CDC" offset="65.1042%"></stop>
            <stop stop-color="#0099EE" offset="100%"></stop>
        </linearGradient>
        <linearGradient x1="0.000243632394%" y1="0%" x2="105.000059%" y2="0%" id="linearGradient-4">
            <stop stop-color="#8F6AFA" offset="17.7083%"></stop>
            <stop stop-color="#375CDC" offset="65.1042%"></stop>
            <stop stop-color="#0099EE" offset="100%"></stop>
        </linearGradient>
        <linearGradient x1="-4.65289244e-05%" y1="-5.35890478e-05%" x2="104.999833%" y2="-5.35890478e-05%" id="linearGradient-5">
            <stop stop-color="#8F6AFA" offset="17.7083%"></stop>
            <stop stop-color="#375CDC" offset="65.1042%"></stop>
            <stop stop-color="#0099EE" offset="100%"></stop>
        </linearGradient>
        <linearGradient x1="-7.73202794e-05%" y1="1.28322831e-05%" x2="104.999904%" y2="1.28322831e-05%" id="linearGradient-6">
            <stop stop-color="#8F6AFA" offset="17.7083%"></stop>
            <stop stop-color="#375CDC" offset="65.1042%"></stop>
            <stop stop-color="#0099EE" offset="100%"></stop>
        </linearGradient>
        <linearGradient x1="0.00096192736%" y1="-6.04433201e-05%" x2="105.000074%" y2="-6.04433201e-05%" id="linearGradient-7">
            <stop stop-color="#8F6AFA" offset="17.7083%"></stop>
            <stop stop-color="#375CDC" offset="65.1042%"></stop>
            <stop stop-color="#0099EE" offset="100%"></stop>
        </linearGradient>
    </defs>
    <g id="Intro-Copy" stroke="none" stroke-width="1" fill="none" fill-rule="evenodd">
        <g id="pointing" fill-rule="nonzero">
            <path d="M448.765001,23.7062 C544.671001,24.1982 639.214001,46.4301 725.277001,88.728 C811.340001,131.025 886.679001,192.286 945.620001,267.898 C1004.562,343.509 1045.57,431.499 1065.56,525.243 C1085.54,618.987 1083.99,716.041 1061,809.097 C1058.96,817.424 1071.14,819.863 1076.8,819.37 C1084.72,818.686 1094.12,814.294 1096.16,805.949 C1119.16,709.971 1120.12,610.034 1098.96,513.633 C1077.8,417.233 1035.07,326.872 973.986001,249.328 C912.899001,171.784 835.036001,109.07 746.237001,65.889 C657.438001,22.7083 560.009001,0.1821 461.257001,0 C453.039001,0 442.622001,2.2168 438.486001,10.3271 C434.879001,17.4882 441.654001,23.6941 448.765001,23.7062 L448.765001,23.7062 Z" id="Path" fill="#FFFFFF" opacity="0.3"></path>
            <path d="M200.398001,991.14 C141.971001,945.22 96.3679005,885.033 67.9876005,816.379 C41.7657005,752.499 30.9168005,683.358 36.3140005,614.523 C41.6916005,550.909 60.9997005,489.255 92.8706005,433.928 C124.742001,378.601 168.396001,330.954 220.741001,294.363 C286.189001,248.87 363.971001,224.422 443.694001,224.284 C452.363001,224.404 460.895001,222.116 468.340001,217.676 C473.522001,214.317 473.402001,210.064 466.302001,210.087899 C314.673001,210.593 167.108001,281.687 79.6134005,406.604 C15.1435805,498.38 -11.6715995,611.362 4.68690052,722.298 C21.0453305,833.234 79.3327005,933.683 167.553001,1002.97 C172.698001,1007.04 184.691001,1002.91 189.987001,1000.98 C192.241001,1000.17 205.195001,994.93 200.386001,991.12 L200.398001,991.14 Z" id="Path" fill="#FFFFFF" opacity="0.3"></path>
            <path d="M863.100001,561.217 C882.709001,646.666 875.936001,736.048 843.675001,817.571 C811.414001,899.095 755.181001,968.928 682.395001,1017.86 C642.258001,1044.5 597.641001,1063.69 550.687001,1074.5 C547.519001,1075.24 533.297001,1079.27 534.679001,1084.44 C536.062001,1089.61 551.006001,1085.64 553.513001,1085.04 C645.947001,1064.15 729.820001,1015.61 793.965001,945.893 C854.323001,879.249 893.092001,795.912 905.174001,706.837 C911.986001,655.164 909.529001,602.692 897.918001,551.881 C896.265001,544.57 861.249001,553.131 863.052001,561.211 L863.100001,561.217 Z" id="Path" fill="#FFFFFF" opacity="0.3"></path>
            <path d="M822.026001,512.16 C815.566001,488.717 802.666001,470.805 787.078001,459.763 C762.421001,442.291 739.771001,446.038 727.734001,464.071 C727.734001,452.049 741.777001,432.012 758.560001,432.353 C761.021001,432.376 763.479001,432.539 765.922001,432.843 C726.492001,396.346 667.043001,397.778 623.241001,417.189 C558.068001,412.28 508.706001,481.486 518.023001,528.706 C518.023001,528.706 530.823001,562.287 669.458001,551.522 C808.093001,540.757 822.026001,512.16 822.026001,512.16 Z" id="Path" fill="url(#linearGradient-1)"></path>
            <path d="M822.995001,511.902 C818.120001,494.364 809.086001,477.872 795.586001,465.485 C794.043001,464.07 792.447001,462.715 790.797001,461.422 C790.099001,460.755 789.324001,460.172 788.490001,459.685 L788.324001,459.565 C788.168001,459.371 788.079001,459.412 788.058001,459.689 C788.005001,459.655 788.086001,459.476 788.004001,459.422 C787.465001,459.061 786.914001,458.568 786.356001,458.192 C782.119001,455.282 777.564001,452.862 772.779001,450.978 C764.844001,447.918 756.073001,446.706 747.733001,448.759 C739.167001,451.011 731.748001,456.368 726.922001,463.787 L728.714001,463.994 C728.769001,457.864 731.716001,451.825 735.228001,446.939 C739.277001,441.302 744.858001,436.219 751.588001,434.077 C756.108001,432.638 760.937001,432.941 765.584001,433.541 C766.226001,433.623 767.390001,432.953 766.668001,432.285 C754.585001,421.236 740.150001,413.067 724.450001,408.394 C709.115001,403.908 693.102001,402.183 677.161001,403.301 C661.497001,404.317 646.070001,407.633 631.374001,413.14 C629.530001,413.827 627.700001,414.55 625.885001,415.307 C625.075001,415.717 624.240001,416.074 623.385001,416.376 C622.551001,416.482 621.707001,416.467 620.877001,416.334 C610.053001,415.84 599.230001,417.339 588.949001,420.757 C575.651001,425.249 563.413001,432.409 552.987001,441.796 C542.811001,450.86 534.292001,461.621 527.809001,473.6 C521.622001,484.743 517.701001,496.998 516.272001,509.659 C515.675001,515.381 515.812001,521.155 516.679001,526.842 C516.742001,527.779 516.966001,528.697 517.342001,529.558 C518.124001,530.92 519.104001,532.158 520.251001,533.231 C522.776001,535.641 525.615001,537.7 528.691001,539.351 C533.891001,542.159 539.377001,544.404 545.055001,546.046 C553.763001,548.592 562.661001,550.441 571.664001,551.576 C584.786001,553.263 597.996001,554.169 611.226001,554.291 C629.643001,554.583 648.071001,553.806 666.435001,552.444 C685.457001,551.036 704.453001,549.117 723.334001,546.386 C737.184001,544.383 750.990001,541.947 764.610001,538.719 C774.116001,536.531 783.484001,533.782 792.665001,530.487 C798.642001,528.369 804.441001,525.782 810.009001,522.749 C813.253001,521.006 816.308001,518.93 819.123001,516.556 C820.419001,515.486 821.573001,514.256 822.559001,512.895 C822.704001,512.695 822.836001,512.485 822.952001,512.266 C823.432001,511.284 821.475001,511.282 821.100001,512.049 C821.000001,512.259 820.799001,512.539 820.910001,512.374 C820.568001,512.862 820.196001,513.328 819.794001,513.768 C818.089001,515.59 816.172001,517.202 814.083001,518.57 C810.083001,521.247 805.847001,523.556 801.428001,525.469 C794.299001,528.599 786.966001,531.243 779.480001,533.384 C768.343001,536.601 757.050001,539.253 745.645001,541.329 C729.681001,544.323 713.568001,546.509 697.422001,548.25 C677.773001,550.367 658.039001,551.92 638.286001,552.601 C622.664001,553.22 607.020001,553.044 591.416001,552.074 C580.468001,551.416 569.576001,550.025 558.815001,547.908 C551.564001,546.504 544.457001,544.438 537.585001,541.737 C533.324001,540.081 529.277001,537.918 525.533001,535.297 C523.511001,533.911 521.708001,532.233 520.182001,530.315 C519.814001,529.838 519.479001,529.336 519.179001,528.813 C518.999001,528.499 519.086001,528.676 519.048001,528.564 C518.974001,528.326 518.917001,528.082 518.879001,527.836 C516.722001,516.241 518.177001,504.145 521.605001,492.939 C525.538001,480.37 531.705001,468.612 539.812001,458.227 C548.216001,447.24 558.604001,437.922 570.440001,430.752 C582.475001,423.455 596.044001,419.052 610.076001,417.889 C613.792001,417.607 617.523001,417.57 621.244001,417.778 C622.005001,417.903 622.780001,417.911 623.543001,417.8 C624.440001,417.484 625.315001,417.109 626.162001,416.676 C627.907001,415.941 629.666001,415.237 631.438001,414.563 C638.662001,411.832 646.077001,409.635 653.623001,407.99 C669.066001,404.535 684.965001,403.585 700.710001,405.177 C716.662001,406.744 732.117001,411.591 746.103001,419.414 C752.967001,423.344 759.365001,428.036 765.175001,433.401 L766.258001,432.144 C761.932001,431.585 757.357001,431.266 753.070001,432.259 C749.463001,433.146 746.061001,434.721 743.051001,436.896 C736.969001,441.264 732.181001,447.191 729.192001,454.052 C727.711001,457.22 726.881001,460.653 726.752001,464.147 C726.744001,465.017 728.178001,464.896 728.543001,464.354 C732.819001,458.019 738.802001,452.911 746.179001,450.608 C754.082001,448.14 762.555001,449.025 770.265001,451.759 C775.066001,453.505 779.639001,455.82 783.888001,458.655 C784.427001,459.079 784.997001,459.465 785.593001,459.807 C785.545001,459.785 786.200001,459.918 786.095001,459.839 C786.148001,459.879 786.068001,460.046 786.148001,460.106 C786.856001,460.646 787.593001,461.229 788.317001,461.777 C789.867001,462.953 791.372001,464.183 792.831001,465.469 C798.987001,470.941 804.336001,477.256 808.720001,484.225 C814.196001,492.967 818.352001,502.468 821.053001,512.42 C821.303001,513.305 823.241001,512.788 822.995001,511.902 Z" id="Path" fill="#000000"></path>
            <path d="M622.857001,416.794 C606.236001,424.188 590.300001,434.544 578.765001,448.793 C575.891001,452.322 573.368001,456.121 571.229001,460.138 C570.806001,460.939 572.734001,460.73 573.035001,460.173 C580.973001,445.151 594.515001,433.638 608.970001,425.1 C613.704001,422.313 618.594001,419.802 623.616001,417.577 C624.848001,417.029 623.721001,416.408 622.853001,416.794 L622.857001,416.794 Z" id="Path" fill="#000000"></path>
            <polygon id="Path" fill="#FFFFFF" points="696.785001 823.31 628.430001 823.31 628.430001 910.442 696.785001 910.442"></polygon>
            <path d="M695.803001,823.38 L695.803001,906.958 C695.672001,908.089 695.672001,909.232 695.803001,910.364 C695.808001,910.413 695.808001,910.463 695.803001,910.512 L696.870001,909.729 L628.520001,909.729 L629.416001,910.366 L629.416001,826.791 C629.546001,825.659 629.546001,824.516 629.416001,823.385 C629.410001,823.336 629.410001,823.286 629.416001,823.237 L628.349001,824.021 L696.704001,824.021 C697.812001,824.021 698.191001,822.6 696.875001,822.6 L628.520001,822.6 C628.140001,822.6 627.453001,822.929 627.453001,823.384 L627.453001,906.962 C627.453001,908.081 627.352001,909.253 627.453001,910.368 C627.453001,910.417 627.453001,910.468 627.453001,910.516 C627.453001,911.017 627.921001,911.152 628.349001,911.152 L696.704001,911.152 C697.084001,911.152 697.771001,910.824 697.771001,910.37 L697.771001,826.791 C697.771001,825.672 697.871001,824.5 697.771001,823.385 C697.771001,823.337 697.771001,823.284 697.771001,823.237 C697.766001,822.223 695.803001,822.51 695.803001,823.38 Z" id="Path" fill="#000000"></path>
            <path d="M696.785001,833.217 L696.785001,874.711 C689.083001,868.547 674.196001,865.286 662.607001,865.286 C651.018001,865.286 636.125001,868.081 628.430001,874.711 L628.430001,833.217 L696.785001,833.217 Z" id="Path" fill="#000000"></path>
            <path d="M695.803001,833.299 L695.803001,874.793 L697.533001,874.163 C693.941001,871.491 689.908001,869.468 685.617001,868.187 C680.746001,866.62 675.726001,865.563 670.636001,865.032 C660.782001,863.945 650.810001,864.808 641.290001,867.573 C636.475001,868.999 631.652001,871.011 627.789001,874.286 L629.409001,874.638 L629.409001,833.139 L628.339001,833.912 L696.694001,833.912 C697.791001,833.912 698.191001,832.52 696.874001,832.52 L628.520001,832.52 C628.147001,832.52 627.449001,832.845 627.449001,833.294 L627.449001,874.788 C627.449001,875.575 628.627001,875.516 629.069001,875.14 C635.986001,869.276 645.930001,867.251 654.717001,866.376 C664.106001,865.419 673.593001,866.276 682.658001,868.899 C687.483001,870.15 692.023001,872.31 696.036001,875.262 C696.484001,875.615 697.765001,875.317 697.765001,874.633 L697.765001,833.139 C697.764001,832.141 695.803001,832.441 695.803001,833.299 Z" id="Path" fill="#000000"></path>
            <path d="M662.606001,924.426 C681.480001,924.426 696.781001,918.167 696.781001,910.447 C696.781001,902.726 681.480001,896.468 662.606001,896.468 C643.731001,896.468 628.431001,902.726 628.431001,910.447 C628.431001,918.167 643.731001,924.426 662.606001,924.426 Z" id="Path" fill="#AEAEAE"></path>
            <path d="M697.750001,910.187 C697.687001,906.329 694.225001,903.575 691.158001,901.826 C686.042001,898.906 680.038001,897.484 674.247001,896.675 C667.042001,895.671 659.735001,895.628 652.518001,896.549 C646.523001,897.162 640.680001,898.817 635.256001,901.439 C632.037001,903.109 628.165001,905.747 627.537001,909.621 C626.952001,913.228 629.653001,916.133 632.401001,918.031 C636.981001,921.199 642.698001,922.771 648.113001,923.759 C655.234001,925.023 662.492001,925.328 669.693001,924.667 C676.514001,924.066 683.590001,922.701 689.737001,919.565 C693.270001,917.762 697.679001,914.756 697.751065,910.329 C697.764001,909.508 695.821001,909.899 695.810001,910.563 C695.751001,914.261 692.490001,916.783 689.531001,918.427 C684.743001,921.086 679.167001,922.373 673.782001,923.124 C667.093001,924.049 660.313001,924.116 653.606001,923.324 C647.818001,922.79 642.165001,921.261 636.898001,918.805 C633.857001,917.283 630.207001,914.915 629.506001,911.311 C628.835001,907.861 631.571001,905.068 634.220001,903.336 C638.697001,900.411 644.151001,898.966 649.373001,898.08 C656.005001,896.98 662.750001,896.731 669.445001,897.34 C675.864001,897.904 682.506001,899.174 688.303001,902.079 C691.662001,903.761 695.736001,906.515 695.804001,910.701 C695.822001,911.336 697.762001,910.956 697.750001,910.187 Z" id="Path" fill="#000000"></path>
            <path d="M662.606001,919.416 C677.229001,919.416 689.083001,915.4 689.083001,910.446 C689.083001,905.492 677.229001,901.477 662.606001,901.477 C647.983001,901.477 636.129001,905.492 636.129001,910.446 C636.129001,915.4 647.983001,919.416 662.606001,919.416 Z" id="Path" fill="url(#linearGradient-2)"></path>
            <path d="M690.052099,910.186 C689.982001,907.455 686.975001,905.767 684.813001,904.76 C680.596001,902.964 676.116001,901.856 671.547001,901.481 C665.933001,900.862 660.267001,900.862 654.653001,901.481 C649.991001,901.875 645.417001,902.983 641.092001,904.767 C638.885001,905.747 635.776001,907.343 635.233001,909.968 C634.690001,912.593 637.286001,914.498 639.293001,915.578 C643.152001,917.47 647.311001,918.677 651.584001,919.144 C657.216001,919.942 662.921001,920.098 668.589001,919.608 C673.825001,919.316 678.980001,918.181 683.854001,916.249 C686.341001,915.171 689.973001,913.331 690.052099,910.188 C690.063001,909.777 688.131001,910.066 688.114001,910.706 C688.049001,913.24 685.149001,914.787 683.146001,915.668 C679.228001,917.246 675.093001,918.22 670.882001,918.556 C665.638001,919.118 660.349001,919.112 655.107001,918.538 C650.877001,918.176 646.721001,917.207 642.769001,915.659 C640.674001,914.778 637.669001,913.308 637.160001,910.818 C636.667001,908.399 639.166001,906.682 641.011001,905.727 C644.617001,904.037 648.484001,902.968 652.447001,902.563 C657.653001,901.861 662.921001,901.726 668.156001,902.163 C672.998001,902.429 677.769001,903.443 682.300001,905.168 C684.593001,906.117 688.038001,907.798 688.112001,910.699 C688.126001,911.142 690.068001,910.815 690.052099,910.186 Z" id="Path" fill="#000000"></path>
            <path d="M924.460001,707.553 C924.460001,611.047 807.223001,501.554 662.605001,501.554 C517.987001,501.554 400.751001,611.047 400.751001,707.553 C400.751001,741.177 471.169001,852.822 662.605001,852.822 C854.041001,852.822 924.460001,742.617 924.460001,707.553 Z" id="Path" fill="#FFFFFF"></path>
            <path d="M925.434001,707.294 C925.377001,685.02 919.210001,663.167 909.472001,643.241 C898.599001,621 883.371001,600.982 865.819001,583.58 C846.364001,564.423 824.211001,548.207 800.063001,535.446 C774.291001,521.735 746.619001,511.934 717.956001,506.365 C687.886001,500.549 657.082001,499.545 626.696001,503.391 C597.383001,507.136 568.802001,515.266 541.912001,527.508 C516.712001,538.906 493.289001,553.873 472.366001,571.949 C453.338001,588.474 436.484001,607.67 423.530001,629.32 C411.916001,648.731 403.400001,670.314 400.691001,692.862 C399.901001,699.442 399.161001,706.387 400.243001,712.984 C400.999001,717.242 402.201001,721.409 403.830001,725.416 C408.266001,736.737 414.864001,747.208 422.265001,756.816 C432.438001,769.862 444.181001,781.605 457.230001,791.781 C473.562001,804.542 491.390001,815.267 510.320001,823.718 C533.662001,834.102 558.157001,841.674 583.290001,846.275 C614.101001,852.086 645.614001,854.012 676.930001,853.061 C706.507001,852.159 736.074001,848.5 764.756001,841.13 C788.031001,835.267 810.522001,826.649 831.750001,815.459 C848.881001,806.414 864.848001,795.322 879.297001,782.426 C890.882001,772.144 901.106001,760.428 909.721001,747.561 C915.724001,738.439 921.039001,728.509 923.859001,717.906 C924.835001,714.451 925.365001,710.886 925.434001,707.297 C925.434001,706.86 923.498001,707.17 923.496001,707.816 C923.469001,716.348 920.162001,724.887 916.547001,732.479 C910.739001,744.3 903.362001,755.284 894.614001,765.135 C883.202001,778.146 870.227001,789.703 855.984001,799.544 C838.151001,811.873 818.868001,821.967 798.570001,829.599 C773.462001,839 747.336001,845.427 720.729001,848.75 C688.760001,852.864 656.442001,853.536 624.330001,850.754 C596.532001,848.543 569.079001,843.155 542.511001,834.694 C520.968001,827.802 500.338001,818.334 481.070001,806.498 C465.590001,796.977 451.312001,785.632 438.545001,772.706 C428.540001,762.66 419.852001,751.387 412.689001,739.156 C407.975001,730.922 403.729001,721.904 402.181001,712.466 C401.095001,705.849 401.841001,698.881 402.648001,692.284 C404.013001,681.503 406.583001,670.908 410.308001,660.698 C418.375001,638.303 431.216001,617.788 446.577001,599.676 C463.790001,579.58 483.892001,562.144 506.226001,547.938 C530.534001,532.352 557.029001,520.466 584.840001,512.673 C614.501001,504.351 645.313001,500.867 676.086001,502.354 C734.279001,505.328 790.244001,525.652 836.759001,560.703 C857.310001,576.065 875.411001,594.449 890.445001,615.229 C903.821001,633.972 914.433001,655.003 919.799001,677.464 C922.201001,687.404 923.440001,697.588 923.491001,707.813 C923.492001,708.252 925.434001,707.938 925.434001,707.294 Z" id="Path" fill="#000000"></path>
            <path d="M430.004001,699.601 C418.712001,690.741 401.980001,690.383 389.410001,697.318 C366.739001,709.825 359.306001,741.656 369.749001,758.381 C379.679001,774.278 405.789001,780.838 433.828001,758.869" id="Path" fill="#FFFFFF"></path>
            <path d="M398.105001,773.447034 C395.823001,773.45 393.545001,773.254 391.297001,772.863 C381.952001,771.223 373.943001,766.041 369.329001,758.646 C364.414001,750.769 363.265001,739.177 366.267001,727.638 C369.766001,714.191 378.113001,702.979 389.170001,696.881 C402.369001,689.599 419.290001,690.556 430.317001,699.208 C430.419001,699.291 430.485001,699.411 430.499001,699.541 C430.514001,699.672 430.476001,699.803 430.395001,699.906 C430.314001,700.009 430.195001,700.077 430.065001,700.093 C429.934001,700.11 429.802001,700.075 429.697001,699.995 C418.978001,691.586 402.513001,690.665 389.655001,697.757 C378.838001,703.725 370.667001,714.708 367.238001,727.89 C364.301001,739.168 365.404001,750.468 370.176001,758.116 C374.710001,765.375 382.272001,770.262 391.470001,771.876 C404.611001,774.185 419.548001,769.423 433.521001,758.476 C433.626001,758.394 433.759001,758.357 433.891001,758.373 C434.023001,758.389 434.143001,758.457 434.225001,758.561 C434.308001,758.666 434.345001,758.798 434.329001,758.93 C434.313001,759.062 434.245001,759.182 434.140001,759.264 C422.293001,768.546 409.742001,773.446 398.105001,773.447034 Z" id="Path" fill="#000000"></path>
            <path d="M892.476001,715.881 C914.404001,682.454 952.517001,687.281 963.416001,715.08 C975.624001,746.219 944.698001,777.35 915.610001,773.111 C907.927001,772.097 900.930001,768.163 896.077001,762.128" id="Path" fill="#FFFFFF"></path>
            <path d="M920.952001,773.996006 C919.139001,773.997 917.329001,773.867 915.535001,773.607 C907.719001,772.58 900.603001,768.577 895.673001,762.433 C895.633001,762.381 895.604001,762.321 895.587001,762.258 C895.570001,762.194 895.566001,762.128 895.574001,762.063 C895.583001,761.997 895.605001,761.935 895.638001,761.878 C895.671001,761.821 895.714001,761.771 895.767001,761.731 C895.819001,761.691 895.879001,761.661 895.942001,761.645 C896.006001,761.628 896.072001,761.623 896.138001,761.632 C896.203001,761.641 896.266001,761.662 896.323001,761.695 C896.380001,761.728 896.430001,761.772 896.470001,761.824 C901.240001,767.76 908.122001,771.627 915.678001,772.616 C930.173001,774.729 946.082001,767.868 956.204001,755.139 C965.728001,743.163 968.184001,728.629 962.943001,715.265 C958.051001,702.787 947.383001,694.535 934.407001,693.191 C918.897001,691.588 903.378001,700.171 892.891001,716.16 C892.818001,716.271 892.704001,716.349 892.574001,716.376 C892.443001,716.404 892.307001,716.378 892.196001,716.305 C892.085001,716.232 892.007001,716.118 891.980001,715.988 C891.953001,715.858 891.978001,715.722 892.051001,715.611 C902.750001,699.302 918.634001,690.553 934.510001,692.194 C947.866001,693.578 958.845001,702.066 963.877001,714.9 C969.252001,728.607 966.742001,743.502 956.991001,755.765 C947.900001,767.199 934.216001,773.996006 920.952001,773.996006 Z" id="Path" fill="#000000"></path>
            <path d="M387.989001,707.498 C394.690001,702.901 402.739001,700.679 410.853001,701.186 C413.167001,701.238 415.440001,701.815 417.498001,702.874 C418.521001,703.414 419.397001,704.193 420.053001,705.144 C420.709001,706.095 421.124001,707.191 421.264001,708.337 C421.527001,712.277 417.781001,715.174 414.450001,717.3 L403.464001,724.313 L387.938001,734.223 C385.045001,736.071 381.750001,737.997 378.391001,737.286 C377.335001,737.018 376.362001,736.494 375.558001,735.761 C374.753001,735.028 374.141001,734.108 373.777001,733.083 C373.124001,731.027 373.176001,728.811 373.925001,726.788 C376.321001,718.969 381.273001,712.178 387.990001,707.502 L387.989001,707.498 Z" id="Path" fill="#FFFFFF"></path>
            <path d="M924.056001,703.404 C925.600001,703.02 927.173001,702.767 928.760001,702.647 C939.995001,702.129 952.750001,706.926 957.130001,718.027 C958.961001,722.665 959.931001,730.817 954.056001,733.129 C950.150001,734.665 946.038001,731.874 942.414001,729.757 C932.922001,724.21 923.974001,724.602 913.472001,724.636 C910.356001,724.646 906.970001,723.834 905.072001,721.362 C898.198001,712.42 914.507001,705.615 924.056001,703.404 Z" id="Path" fill="#FFFFFF"></path>
            <path d="M430.745001,699.026 C421.156001,691.597 407.982001,690.043 396.531001,693.54 C384.894001,697.093 375.626001,705.903 370.087001,716.566 C364.332001,727.647 361.762001,741.889 366.376001,753.812 C370.732001,765.07 381.683001,771.868 393.367001,773.37 C408.385001,775.301 422.921001,768.353 434.480001,759.344 C435.514001,758.542 433.969001,757.787 433.176001,758.403 C423.217001,766.167 411.108001,772.404 398.177001,772.214 C387.069001,772.051 375.571001,766.795 369.989001,756.872 C363.964001,746.137 365.404001,732.311 369.885001,721.291 C374.177001,710.736 382.023001,701.311 392.549001,696.567 C404.310001,691.268 418.931001,692.172 429.263001,700.174 C429.977001,700.727 431.646001,699.72 430.748001,699.024 L430.745001,699.026 Z" id="Path" fill="#000000"></path>
            <path d="M920.766001,774.481023 C918.993001,774.483 917.221001,774.357 915.466001,774.102 C907.522001,773.055 900.290001,768.984 895.280001,762.738 C895.200001,762.634 895.142001,762.515 895.108001,762.387 C895.073001,762.26 895.065001,762.128 895.082001,761.997 C895.099001,761.867 895.142001,761.741 895.208001,761.627 C895.274001,761.513 895.362001,761.413 895.467001,761.333 C895.571001,761.253 895.690001,761.194 895.818001,761.16 C895.945001,761.126 896.078001,761.118 896.209001,761.135 C896.339001,761.152 896.465001,761.195 896.579001,761.261 C896.693001,761.327 896.793001,761.415 896.873001,761.519 C901.564001,767.352 908.329001,771.15 915.756001,772.12 C923.220001,773.061 930.798001,771.905 937.641001,768.782 C947.723001,764.454 955.961001,756.723 960.913001,746.942 C963.300001,742.073 964.671001,736.77 964.941001,731.355 C965.211001,725.94 964.376001,720.527 962.485001,715.446 C960.520001,710.408 957.409001,705.897 953.397001,702.269 C949.384001,698.64 944.581001,695.994 939.368001,694.541 C931.059001,692.389 921.473001,693.639 913.064001,697.979 C905.007001,702.34 898.207001,708.694 893.315001,716.433 C893.243001,716.543 893.150001,716.638 893.041001,716.712 C892.932001,716.787 892.809001,716.838 892.680001,716.865 C892.551001,716.892 892.418001,716.893 892.288001,716.869 C892.159001,716.844 892.035001,716.794 891.925001,716.722 C891.815001,716.65 891.720001,716.556 891.646001,716.448 C891.571001,716.339 891.519001,716.216 891.493001,716.087 C891.466001,715.958 891.465001,715.825 891.489001,715.696 C891.514001,715.567 891.564001,715.443 891.636001,715.333 C896.717001,707.306 903.778001,700.717 912.142001,696.198 C920.984001,691.637 931.094001,690.327 939.871001,692.6 C945.389001,694.137 950.473001,696.935 954.721001,700.774 C958.970001,704.612 962.265001,709.386 964.347001,714.716 C966.336001,720.056 967.217001,725.745 966.936001,731.435 C966.655001,737.126 965.217001,742.7 962.711001,747.819 C957.547001,758.028 948.954001,766.1 938.435001,770.622 C932.873001,773.104 926.859001,774.418 920.766001,774.481023 L920.766001,774.481023 Z" id="Path" fill="#000000"></path>
            <path d="M402.559001,714.965 C402.811001,715.165 402.197001,716.416 401.233001,718.223 C400.269001,720.03 399.002001,722.431 397.831001,724.871 C396.688001,727.329 395.614001,729.809 394.903001,731.732 C394.175001,733.645 393.741001,734.97 393.699001,735.044 C393.681001,735.129 393.097001,736.395 392.335001,738.293 C391.550001,740.186 390.657001,742.734 389.827001,745.306 C389.031001,747.891 388.330001,750.51 387.810001,752.491 C387.289001,754.473 386.890001,755.806 386.569001,755.780374 C386.268001,755.757 386.077001,754.364 386.067001,752.266 C386.096001,749.694 386.313001,747.127 386.716001,744.587 C387.131001,742.014 387.692001,739.466 388.396001,736.957 C388.978001,734.879 389.476001,733.486 389.499001,733.397 C389.545001,733.319 390.127001,731.958 391.111001,730.035 C392.299001,727.713 393.619001,725.46 395.064001,723.288 C396.495001,721.147 398.080001,719.113 399.807001,717.202 C401.234001,715.671 402.318001,714.779 402.559001,714.965 Z" id="Path" fill="#000000"></path>
            <path d="M404.224001,753.763 C403.923001,753.858 403.251001,752.703 402.348001,750.964 C401.445001,749.226 400.259001,746.918 399.007001,744.653 C397.729001,742.4 396.408001,740.176 395.328001,738.541 C394.264001,736.896 393.497001,735.806 393.463001,735.73 C393.409001,735.667 392.773001,734.495 391.769001,732.815 C390.780001,731.124 389.372001,728.957 387.918001,726.814 C386.443001,724.689 384.901001,722.606 383.742001,721.026 C382.584001,719.446 381.845001,718.338 382.065001,718.106 C382.286001,717.875 383.431001,718.573 385.006001,719.81 C386.915001,721.352 388.716001,723.022 390.397001,724.808 C392.098001,726.617 393.705001,728.512 395.212001,730.484 C396.460001,732.118 397.242001,733.29 397.299001,733.354 C397.334001,733.433 398.035001,734.656 398.949001,736.497 C400.051001,738.723 401.038001,741.003 401.909001,743.329 C402.765001,745.628 403.465001,747.983 404.002001,750.376 C404.416001,752.333 404.518001,753.672 404.224001,753.763 Z" id="Path" fill="#000000"></path>
            <path d="M953.207001,713.263 C953.428001,713.496 952.605001,714.675 951.334001,716.362 C950.063001,718.049 948.366001,720.283 946.742001,722.564 C945.137001,724.862 943.590001,727.189 942.496001,729.006 C941.402001,730.824 940.680001,732.071 940.622001,732.139 C940.586001,732.221 939.747001,733.396 938.588001,735.168 C937.411001,736.931 935.968001,739.325 934.575001,741.751 C933.206001,744.189 931.909001,746.67 930.925001,748.542 C929.941001,750.413 929.220001,751.654 928.919001,751.554 C928.632001,751.46 928.787001,750.024 929.279001,747.926 C929.917001,745.363 930.721001,742.845 931.686001,740.388 C932.755001,737.701 933.962001,735.045 934.990001,733.085 C936.000001,731.115 936.771001,729.812 936.809001,729.727 C936.869001,729.656 937.721001,728.402 939.072001,726.647 C940.423001,724.892 942.298001,722.655 944.275001,720.536 C946.089001,718.612 948.026001,716.808 950.074001,715.135 C951.766001,713.798 952.999001,713.044 953.207001,713.263 Z" id="Path" fill="#000000"></path>
            <path d="M944.694001,754.109 C944.367001,754.068 944.262001,752.646 944.101001,750.572 C943.905001,748.057 943.576001,745.554 943.114001,743.074 C942.616001,740.612 941.951001,738.188 941.122001,735.817 C940.437001,733.87 939.860001,732.588 939.853001,732.5 C939.799001,732.429 939.394001,731.083 938.632001,729.168 C937.701001,726.838 936.611001,724.574 935.372001,722.392 C934.092001,720.219 932.697001,718.116 931.193001,716.091 C929.953001,714.422 929.099001,713.279 929.319001,713.035 C929.513001,712.814 930.774001,713.522 932.464001,714.879 C934.509001,716.59 936.369001,718.508 938.014001,720.605 C939.674001,722.747 941.144001,725.028 942.408001,727.425 C943.455001,729.411 944.026001,730.845 944.082001,730.923 C944.092001,731.023 944.602001,732.475 945.118001,734.662 C945.739001,737.3 946.129001,739.987 946.285001,742.692 C946.421001,745.354 946.278001,748.024 945.858001,750.657 C945.471001,752.788 944.985001,754.151 944.694001,754.109 Z" id="Path" fill="#000000"></path>
            <path d="M418.120001,560.714 C418.244001,560.837 416.604001,562.667 414.213001,565.463 C411.821001,568.259 408.757001,572.096 405.871001,576.083 C403.033001,580.101 400.333001,584.232 398.467001,587.476 C396.571001,590.701 395.398001,592.969 395.301001,593.094 C395.249001,593.244 393.967001,595.451 392.272001,598.782 C390.540001,602.098 388.515001,606.596 386.654001,611.143 C384.849001,615.714 383.269001,620.36 382.198001,623.873 C381.128001,627.387 380.469001,629.752 380.299001,629.715428 C380.165001,629.686 380.535001,627.254 381.350001,623.646 C382.388001,619.227 383.660001,614.867 385.162001,610.583 C386.849001,605.909 388.751001,601.284 390.404001,597.869 C392.021001,594.438 393.268001,592.163 393.321001,592.012 C393.421001,591.885 394.668001,589.608 396.690001,586.402 C398.682001,583.169 401.558001,579.072 404.593001,575.132 C407.400001,571.559 410.394001,568.136 413.564001,564.88 C416.171001,562.24 418.023001,560.617 418.120001,560.714 Z" id="Path" fill="#000000"></path>
            <path d="M407.252001,555.984 C407.352001,556.124 405.840001,557.43 403.641001,559.453 C400.958001,561.938 398.403001,564.558 395.986001,567.302 C393.583001,570.085 391.339001,573.002 389.265001,576.038 C387.560001,578.542 386.517001,580.334 386.427001,580.427 C386.383001,580.549 385.233001,582.268 383.733001,584.902 C381.917001,588.095 380.284001,591.388 378.841001,594.765 C377.439001,598.138 376.209001,601.579 375.156001,605.075 C374.307001,607.938 373.801001,609.873 373.629001,609.839441 C373.650001,608.158 373.877001,606.486 374.304001,604.86 C375.075001,601.235 376.095001,597.666 377.355001,594.18 C378.654001,590.663 380.174001,587.232 381.907001,583.906 C383.341001,581.156 384.467001,579.357 384.515001,579.232 C384.606001,579.132 385.730001,577.329 387.571001,574.834 C389.800001,571.816 392.218001,568.94 394.809001,566.224 C397.389001,563.557 400.150001,561.071 403.072001,558.782 C404.347001,557.683 405.750001,556.744 407.252001,555.984 Z" id="Path" fill="#000000"></path>
            <path d="M935.327001,598.449 C935.162001,598.499 934.388001,596.42 933.164001,593.333 C931.940001,590.247 930.177001,586.182 928.223001,582.197 C926.216001,578.235 924.071001,574.335 922.276001,571.477 C920.510001,568.6 919.200001,566.705 919.141001,566.575 C919.041001,566.475 917.837001,564.51 915.908001,561.741 C914.010001,558.951 911.294001,555.422 908.473001,552 C905.607001,548.612 902.593001,545.369 900.256001,543.01 C897.919001,540.651 896.327001,539.109 896.444001,538.978 C896.533001,538.872 898.323001,540.192 900.858001,542.37 C903.948001,545.069 906.891001,547.933 909.674001,550.948 C912.683001,554.277 915.573001,557.76 917.599001,560.527 C919.651001,563.275 920.936001,565.236 921.034001,565.341 C921.093001,565.475 922.373001,567.44 924.070001,570.422 C925.795001,573.387 927.830001,577.427 929.671001,581.525 C931.318001,585.286 932.762001,589.132 933.994001,593.047 C934.971001,596.241 935.460001,598.409 935.327001,598.449 Z" id="Path" fill="#000000"></path>
            <path d="M930.708001,559.963 C930.563001,560.04 929.820001,558.934 928.713001,557.286 C927.606001,555.638 926.089001,553.47 924.486001,551.362 C922.858001,549.272 921.167001,547.228 919.806001,545.744 C918.446001,544.261 917.493001,543.277 917.446001,543.206 C917.379001,543.154 916.482001,542.116 915.096001,540.66 C913.710001,539.204 911.815001,537.354 909.857001,535.567 C907.878001,533.808 905.835001,532.131 904.276001,530.901 C902.717001,529.67 901.668001,528.847 901.759001,528.708 C901.851001,528.568 903.044001,529.159 904.775001,530.178 C906.884001,531.452 908.921001,532.841 910.876001,534.341 C913.004001,535.999 915.072001,537.763 916.562001,539.186 C918.053001,540.61 919.034001,541.621 919.102001,541.675 C919.151001,541.747 920.098001,542.793 921.391001,544.4 C922.684001,546.007 924.300001,548.192 925.789001,550.442 C927.135001,552.506 928.365001,554.644 929.473001,556.845 C930.356001,558.648 930.839001,559.892 930.708001,559.963 Z" id="Path" fill="#000000"></path>
            <path d="M796.900001,806.248 C803.480001,834.124 795.857001,857.769 776.893001,864.785 C773.570001,866.011 770.055001,866.636 766.512001,866.629058 C750.141001,866.629058 733.941001,853.715 723.278001,832.888" id="Path" fill="#FFFFFF"></path>
            <path d="M795.931001,806.51 C799.672001,822.519 800.018001,842.206 788.897001,855.573 C786.185001,858.861 782.776001,861.508 778.915001,863.322 C775.055001,865.135 770.839001,866.07 766.573001,866.059 C758.574001,865.98 750.972001,862.669 744.637001,857.944 C735.867001,851.4 729.214001,842.288 724.243001,832.636 C723.889001,831.948 722.001001,832.563 722.305001,833.154 C730.485001,849.036 744.574001,865.614 763.673001,867.117 C768.054001,867.454 772.458001,866.886 776.609001,865.446 C780.760001,864.007 784.569001,861.728 787.798001,858.751 C793.550001,853.398 797.053001,846.074 798.773001,838.492 C801.194001,827.819 800.341001,816.578 797.870001,806.001 C797.706001,805.294 795.764001,805.791 795.932001,806.519 L795.931001,806.51 Z" id="Path" fill="#000000"></path>
            <path d="M769.482001,844.803 C779.878001,840.956 782.180001,821.324 774.623001,800.953 C767.067001,780.582 752.514001,767.186 742.118001,771.032 C731.723001,774.879 729.421001,794.511 736.977001,814.882 C744.533001,835.253 759.086001,848.649 769.482001,844.803 Z" id="Path" fill="#000000"></path>
            <path d="M773.654001,801.213 C776.425001,808.446 777.929001,816.102 778.101001,823.844 C778.141001,829.538 777.344001,836.003 773.856001,840.717 C766.926001,850.08 755.548001,841.708 749.935001,835.355 C745.300001,829.961 741.592001,823.837 738.962001,817.232 C735.911001,810.017 734.089001,802.343 733.574001,794.527 C733.111001,786.145 735.105001,768.987 747.344001,771.028 C752.360001,771.865 756.719001,775.324 760.162001,778.866 C764.864001,783.86 768.680001,789.617 771.447001,795.89 C772.250001,797.638 772.977001,799.414 773.654001,801.213 C773.875001,801.805 775.791001,801.228 775.591001,800.695 C772.999001,793.489 769.209001,786.77 764.381001,780.822 C760.770001,776.5 756.207001,772.299 750.713001,770.595 C748.580001,769.871 746.297001,769.702 744.080001,770.106 C741.864001,770.509 739.787001,771.47 738.046001,772.899 C733.688001,776.665 732.162001,782.809 731.712001,788.317 C731.218001,796.356 732.309001,804.413 734.922001,812.031 C737.282001,819.531 740.871001,826.587 745.543001,832.913 C751.228001,840.462 762.252001,850.381 772.208001,843.945 C776.817001,840.965 778.805001,835.321 779.583001,830.14 C780.733001,822.488 779.684001,814.537 777.657001,807.124 C777.062001,804.952 776.364001,802.816 775.587001,800.699 C775.375001,800.104 773.456001,800.677 773.654001,801.213 Z" id="Path" fill="#000000"></path>
            <g id="Group" opacity="0.5" transform="translate(396.788920, 596.328279)">
                <path d="M13.4840805,0.418720896 C6.49808046,17.2187209 2.35208046,35.0607209 1.21608046,53.2167209 C-0.197919539,35.8547209 4.12508046,17.9117209 13.4840805,0.418720896 Z" id="Path" fill="#AEAEAE"></path>
                <path d="M12.5210805,0.561720896 C5.54308046,17.3647209 1.39808046,35.2047209 0.253080461,53.3597209 L2.18508046,52.9587209 C0.737080461,34.5587209 5.84208046,16.4347209 14.4470805,0.276720896 C14.6730805,-0.145279104 12.8160805,0.0107208959 12.5210805,0.563720896 C3.87608046,16.7937209 -1.20791954,34.9977209 0.247080461,53.4777209 C0.288080461,53.9947209 2.15308046,53.5777209 2.17908046,53.0767209 C3.32408046,34.9227209 7.46908046,17.0817209 14.4470805,0.278720896 C14.6510805,-0.215279104 12.7580805,-0.0102791041 12.5210805,0.561720896 Z" id="Path" fill="#000000"></path>
            </g>
            <path d="M933.855001,659.934 C933.730001,677.65 930.239001,695.182 923.569001,711.599 C917.792001,725.405 901.848001,732.638 887.926001,727.739 C741.021001,675.923 589.253001,675.863 442.191001,727.739 C428.279001,732.638 412.325001,725.405 406.558001,711.599 C399.859001,695.137 396.353001,677.553 396.226001,659.783 C395.588001,616.233 413.272001,570.688 448.659001,544.64 C513.775001,496.701 570.689001,478.647 665.062001,478.647 C759.436001,478.647 816.350001,496.701 881.465001,544.64 C916.968001,570.778 934.504001,616.453 933.855001,659.934 Z" id="Path" fill="#000000"></path>
            <path d="M932.887001,660.193 C932.721001,673.196 930.820001,686.12 927.234001,698.621 C924.104001,709.318 920.291001,720.146 909.831001,725.657 C905.062001,728.184 899.639001,729.208 894.275001,728.595 C888.331001,727.886 882.539001,725.131 876.890001,723.25 C864.486001,719.116 851.972001,715.329 839.350001,711.887 C790.127001,698.42 739.514001,690.663 688.513001,688.772 C637.508001,686.991 586.470001,691.185 536.441001,701.266 C511.221001,706.342 486.305001,712.824 461.810001,720.68 C455.781001,722.61 449.779001,724.62 443.803001,726.709 C438.267001,728.644 432.884001,729.392 427.114001,727.979 C416.540001,725.389 409.861001,717.595 406.112001,707.776 C390.331001,666.399 395.531001,616.482 418.596001,578.773 C424.074001,569.747 430.693001,561.464 438.290001,554.127 C445.670001,547.055 454.114001,541.203 462.530001,535.44 C478.481001,524.383 495.366001,514.736 512.995001,506.609 C548.826001,490.352 587.493001,482.748 626.627001,480.266 C649.940001,478.814 673.318001,478.698 696.644001,479.919 C717.251001,480.846 737.753001,483.389 757.960001,487.524 C795.211001,495.403 829.897001,510.837 861.608001,531.761 C870.034001,537.324 878.574001,543.021 886.304001,549.536 C894.221001,556.248 901.227001,563.963 907.145001,572.485 C919.149001,589.676 926.851001,609.724 930.483001,630.317 C932.213001,640.179 933.016001,650.181 932.883001,660.193 C932.876001,660.688 934.812001,660.364 934.820001,659.674 C935.338001,617.604 919.241001,573.458 885.598001,546.753 C869.811001,534.405 852.942001,523.504 835.195001,514.182 C818.533001,505.273 801.025001,498.043 782.929001,492.598 C741.605001,480.243 697.997001,477.588 655.081001,478.228 C613.914001,478.841 572.495001,483.372 533.544001,497.309 C515.807001,503.725 498.722001,511.812 482.519001,521.462 C473.936001,526.535 465.576001,531.981 457.405001,537.692 C448.826001,543.69 440.476001,549.869 433.201001,557.439 C403.193001,588.668 390.962001,635.121 396.506001,677.509 C397.329001,683.861 398.587001,690.149 400.268001,696.329 C401.885001,702.248 403.715001,708.443 406.546001,713.912 C408.620001,717.85 411.553001,721.272 415.130001,723.926 C418.707001,726.579 422.835001,728.395 427.210001,729.24 C438.244001,731.375 448.832001,725.81 459.065001,722.482 C471.815001,718.335 484.678001,714.556 497.653001,711.144 C601.184001,683.648 709.918001,682.15 814.169001,706.784 C827.588001,709.924 840.902001,713.47 854.113001,717.423 C860.557001,719.347 866.972001,721.364 873.359001,723.472 C879.130001,725.376 884.931001,728.007 890.896001,729.211 C895.053001,729.99 899.326001,729.904 903.448001,728.958 C907.570001,728.011 911.451001,726.225 914.850001,723.711 C923.755001,717.172 927.038001,706.222 929.822001,696.015 C932.990001,684.156 934.670001,671.95 934.823001,659.677 C934.832109,659.181 932.899001,659.503 932.887001,660.193 Z" id="Path" fill="#000000"></path>
            <path d="M933.120001,642.216 C934.342001,654.813 932.431001,667.517 927.558001,679.199 L927.558001,679.199 C921.692001,693.215 905.501001,700.559 891.364001,695.59 C742.190001,642.972 588.083001,642.912 438.752001,695.59 C424.624001,700.559 408.424001,693.215 402.567001,679.199 L402.459001,678.938 C397.539001,666.988 395.683001,654.001 397.057001,641.154 C400.970001,603.684 418.296001,566.985 448.654001,544.64 C513.770001,496.701 570.684001,478.647 665.058001,478.647 C759.431001,478.647 816.345001,496.701 881.461001,544.64 C912.162001,567.242 929.427001,604.45 933.120001,642.216 Z" id="Path" fill="#AEAEAE"></path>
            <path d="M932.151001,642.476 C933.948001,662.157 929.214001,692.21 905.540001,696.314 C900.194001,697.241 895.233001,696.261 890.192001,694.498 C884.320001,692.446 878.422001,690.469 872.499001,688.567 C860.432001,684.693 848.266001,681.144 836.002001,677.92 C788.826001,665.471 740.434001,658.184 691.680001,656.187 C643.288001,654.294 594.835001,657.703 547.187001,666.352 C522.869001,670.766 498.805001,676.475 475.097001,683.455 C463.429001,686.886 451.852001,690.61 440.368001,694.627 C430.407001,698.11 420.034001,696.81 411.757001,689.985 C403.669001,683.313 400.473001,672.483 398.746001,662.52 C396.784001,651.21 397.726001,639.866 399.800001,628.645 C403.505001,608.608 411.089001,589.119 422.750001,572.34 C428.529001,563.98 435.353001,556.389 443.055001,549.752 C450.616001,543.272 459.033001,537.655 467.320001,532.15 C482.523001,521.943 498.561001,513.034 515.262001,505.519 C549.681001,490.237 586.731001,482.924 624.175001,480.372 C646.438001,478.897 668.765001,478.644 691.056001,479.612 C711.242001,480.318 731.349001,482.497 751.217001,486.133 C786.459001,492.893 820.175001,506.003 850.717001,524.82 C867.112001,534.845 884.112001,545.665 897.138001,559.941 C910.916001,575.038 920.644001,593.543 926.429001,613.074 C929.252001,622.674 931.166001,632.518 932.146001,642.476 C932.190001,642.919 934.142001,642.54 934.083001,641.957 C932.114001,620.898 925.761001,600.482 915.431001,582.018 C910.460001,573.243 904.456001,565.094 897.546001,557.743 C890.443001,550.229 882.290001,544.1 873.857001,538.172 C843.533001,516.849 810.484001,499.834 774.543001,490.263 C734.408001,479.573 692.350001,477.486 650.989001,478.36 C611.684001,479.193 572.193001,483.779 534.950001,496.882 C518.075001,502.871 501.783001,510.389 486.279001,519.341 C478.078001,524.05 470.077001,529.095 462.257001,534.407 C453.958001,540.045 445.589001,545.771 438.202001,552.585 C423.171001,566.449 412.048001,584.204 404.944001,603.298 C397.415001,623.535 392.657001,646.893 397.889001,668.218 C400.240001,677.799 404.021001,686.991 412.555001,692.601 C416.028001,694.879 419.934001,696.416 424.029001,697.119 C428.124001,697.822 432.320001,697.675 436.356001,696.686 C441.951001,695.298 447.390001,692.968 452.868001,691.16 C459.324001,689.026 465.811001,686.986 472.328001,685.04 C484.758001,681.327 497.284001,677.958 509.905001,674.935 C609.666001,650.867 713.678001,650.412 813.647001,673.605 C839.018001,679.456 864.046001,686.699 888.618001,695.303 C896.786001,698.158 905.026001,698.355 913.029001,694.737 C921.091001,691.094 926.541001,684.518 929.592001,676.335 C933.652001,665.357 935.191001,653.608 934.094001,641.957 C934.048001,641.516 932.097001,641.888 932.151001,642.476 Z" id="Path" fill="#000000"></path>
            <path d="M744.685001,652.73 C645.507001,639.225 545.347001,648.552 447.417001,680.772 C434.361001,685.05 419.388001,678.718 413.974001,666.646 C409.006001,655.279 407.155001,642.796 408.611001,630.479 C410.290001,614.269 416.765001,598.339 425.469001,584.694 C438.899001,563.645 457.167001,549.238 477.686001,537.026 C482.018001,534.441 486.449001,531.956 490.959001,529.532 C526.140001,510.607 564.299001,500.167 603.783001,496.15 C646.166001,491.832 680.207001,496.871 689.285001,498.875 C835.050001,530.994 846.241001,671.625 744.685001,652.73 Z" id="Path" fill="#FFFFFF"></path>
            <path d="M528.587001,596.236 C501.825001,622.045 453.320001,645.766 430.542001,641.52 C426.828001,640.753 423.563001,638.561 421.449001,635.415 C419.335001,632.27 418.540001,628.422 419.236001,624.698 C421.691001,610.505 427.627001,596.714 435.294001,584.696 C446.879001,566.539 462.059001,553.326 479.185001,542.198 C485.615001,538.003 492.985001,535.463 500.636001,534.803 L500.636001,534.803 C549.189001,530.765 552.156001,573.517 528.587001,596.236 Z" id="Path" fill="#AEAEAE"></path>
            <path d="M600.178001,520.987 C598.457001,530.787 586.277001,536.264 573.369001,538.987 C560.301001,541.303 546.798001,542.337 541.689001,535.715 C536.511001,529.309 545.812001,512.65 565.864001,506.823 C585.979001,501.035 602.052001,511.349 600.178001,520.987 Z" id="Path" fill="#AEAEAE"></path>
            <path d="M544.017001,656.929 C544.308001,656.837 544.607001,656.77 544.909001,656.729 L547.533001,656.252 L557.513001,654.549 C561.808001,653.767 567.062001,653.071 573.088001,652.244 C576.103001,651.844 579.302001,651.343 582.695001,650.969 L593.381001,649.793 C629.937001,645.974 666.743001,645.132 703.436001,647.275 C723.504001,648.436 743.560001,650.535 762.305001,653.273 C781.049001,656.011 798.505001,659.353 813.455001,662.701 C828.406001,666.048 840.869001,669.361 849.745001,671.852 C858.620001,674.342 863.926001,675.976 864.543001,676.16 C865.160001,676.343 870.471001,677.948 879.232001,680.775 C883.614001,682.166 888.855001,683.947 894.822001,685.742 L897.091001,686.393 C897.844001,686.562 898.641001,686.793 899.387001,686.92 L900.467001,687.061 C900.853001,687.061 901.259001,687.033 901.660001,687.022 C902.063001,687.003 902.465001,686.963 902.863001,686.899 C903.269001,686.859 903.672001,686.789 904.067001,686.688 C907.455001,685.941 910.498001,684.087 912.713001,681.419 C915.141001,678.448 916.955001,675.024 918.049001,671.348 C919.266001,667.374 920.040001,663.278 920.356001,659.134 C920.971001,650.136 920.372001,641.096 918.574001,632.258 C914.824001,613.003 906.820001,594.825 895.146001,579.05 C889.225001,571.105 882.199001,564.047 874.281001,558.087 C866.372001,552.243 858.377001,546.788 850.446001,541.83 C825.820001,526.305 799.038001,514.49 770.962001,506.765 L765.354001,505.236 L761.184001,504.188 L758.605001,503.519 C758.306001,503.454 758.013001,503.365 757.728001,503.252 C758.033001,503.278 758.335001,503.33 758.631001,503.406 L761.239001,503.963 L765.437001,504.897 L771.082001,506.322 C782.758001,509.355 794.230001,513.126 805.427001,517.613 C821.292001,524.001 836.577001,531.744 851.110001,540.755 C859.104001,545.682 867.160001,551.108 875.134001,556.93 C883.202001,562.933 890.368001,570.056 896.416001,578.085 C908.328001,594.012 916.525001,612.397 920.408001,631.896 C922.278001,640.9 922.925001,650.115 922.331001,659.291 C922.021001,663.587 921.235001,667.836 919.988001,671.959 C918.825001,675.906 916.887001,679.582 914.287001,682.773 C911.784001,685.791 908.348001,687.895 904.519001,688.753 C904.071001,688.867 903.615001,688.948 903.155001,688.996 C902.706001,689.068 902.253001,689.116 901.798001,689.14 C901.347001,689.156 900.904001,689.19 900.452001,689.188085 L899.041001,689.022 C898.151001,688.87 897.367001,688.645 896.544001,688.462 L894.218001,687.804 C888.159001,686.001 882.949001,684.252 878.557001,682.874 C869.800001,680.08 864.501001,678.499 863.887001,678.313 C863.272001,678.126 857.987001,676.48 849.141001,673.971 C840.294001,671.461 827.890001,668.107 812.994001,664.72 C798.098001,661.334 780.718001,657.915 762.028001,655.117 C743.338001,652.318 723.351001,650.12 703.336001,648.86 C666.722001,646.55 629.983001,647.153 593.465001,650.663 L582.782001,651.736 C579.388001,652.074 576.188001,652.547 573.171001,652.906 C567.142001,653.667 561.882001,654.291 557.579001,654.999 L547.569001,656.478 L544.927001,656.842 C544.627001,656.896 544.322001,656.925 544.017001,656.929 L544.017001,656.929 Z" id="Path" fill="#000000"></path>
            <path d="M410.726001,975.761 C380.524001,953.011 305.494001,839.807 319.852001,700.032 C320.213001,696.516 320.462001,693.059 320.806001,689.647 C332.359001,686.926 342.472001,681.138 351.354001,675.995 C383.701001,657.267 419.383001,618.572 409.297001,533.238 C407.734001,520.013 403.346001,504.917 400.118001,495.042 C399.761001,493.949 399.364001,492.874 398.926001,491.816 C391.393001,473.203 377.052001,464.944 362.105001,467.472 L361.873001,467.452 C344.444001,370.798 309.719001,287.919 259.758001,286.439 C228.065001,285.499 220.618001,321.042 235.448001,349.068 C242.559001,362.515 250.279001,369.351 263.064001,373.735 C264.252001,381.582 269.001001,396.104 271.532001,405.135 C270.696001,403.602 269.711001,402.155 268.590001,400.817 C255.789001,385.347 223.029001,378.421 193.110001,435.849 C190.144001,433.058 185.494001,431.732 179.970001,431.915 C154.114001,432.758 109.253101,466.871 128.717001,540.001 C125.986001,579.954 130.708001,634.575 158.687001,672.544 C161.829001,676.827 165.371001,680.801 169.267001,684.412 C171.442001,704.872 177.378001,725.952 181.626001,748.801 C203.968001,868.994 308.132001,1000.08 375.525001,1039.96 C387.603001,1047.09 405.675001,1037.8 415.397001,1020.08 C425.120001,1002.36 421.931001,984.208 410.726001,975.761 Z" id="Path" fill="#FFFFFF"></path>
            <path d="M411.633001,975.42 C402.969001,968.841 395.832001,960.145 389.289001,951.533 C379.095001,937.93 370.057001,923.498 362.270001,908.387 C341.251001,868.235 327.556001,824.657 321.826001,779.697 C318.026001,749.512 318.826001,719.6 321.772001,689.39 L320.898001,689.995 C335.950001,686.28 350.381001,678.119 362.912001,669.06 C372.181001,662.401 380.394001,654.382 387.273001,645.274 C405.807001,620.564 412.298001,589.466 411.992001,559.055 C411.762001,536.296 408.360001,512.814 399.892001,491.561 L398.019001,492.161 C398.294001,492.498 400.072001,491.989 399.893001,491.561 C394.478001,478.582 384.048001,467.27 369.204001,466.629 C367.904001,466.572 366.601001,466.595 365.304001,466.698 C363.097001,466.873 363.012001,466.971 362.350001,464.527 C361.073001,459.812 360.503001,454.776 359.518001,449.987 C357.575001,440.54 355.423001,431.14 353.061001,421.786 C344.966001,389.888 334.552001,357.55 317.405001,329.249 C306.126001,310.634 289.969001,290.91 267.355001,286.758 C257.400001,284.929 246.367001,286.199 238.399001,292.902 C229.768001,300.165 226.790001,311.922 227.188001,322.814 C227.751001,338.252 234.808001,355.217 246.584001,365.461 C249.526001,367.989 252.803001,370.1 256.320001,371.735 C257.660001,372.367 260.127001,372.869 261.254001,373.774 C262.754001,374.983 262.724001,377.406 263.149001,379.215 C265.221001,388.047 268.104001,396.671 270.569001,405.395 L272.501001,404.878 C269.935001,400.404 266.281001,396.65 261.878001,393.966 C257.475001,391.281 252.465001,389.753 247.314001,389.523 C234.386001,388.992 222.690001,396.193 213.827001,405.029 C204.858001,413.966 198.021001,424.862 192.157001,436.012 L194.020001,435.512 C187.304001,429.7 176.998001,431.045 169.135001,433.562 C161.788001,435.989 154.981001,439.819 149.094001,444.842 C132.758001,458.562 124.393001,479.21 123.169001,500.209 C122.774001,507.455 123.072001,514.722 124.058001,521.912 C124.568001,525.743 125.248001,529.55 126.071001,533.326 C126.483001,535.211 127.076001,537.085 127.416001,538.981 C127.671001,541.047 127.684001,543.135 127.456001,545.204 C126.696001,559.631 127.051001,574.095 128.520001,588.467 C131.632001,618.367 139.921001,649.075 158.195001,673.439 C160.754001,676.853 163.688001,679.813 166.509001,682.988 C169.622001,686.489 169.280001,692.64 170.037001,697.164 C171.554001,706.238 173.528001,715.229 175.494001,724.215 C179.048001,740.445 181.787001,756.871 186.106001,772.924 C194.180001,802.936 206.281001,831.801 220.645001,859.319 C248.013001,911.75 283.729001,961.09 326.403001,1002.15 C335.065001,1010.55 344.173001,1018.48 353.685001,1025.91 C357.786001,1029.08 361.975001,1032.14 366.279001,1035.02 C370.159001,1037.62 374.291001,1040.83 378.843001,1042.1 C389.074001,1044.96 399.905001,1039.11 407.072001,1032.18 C417.595001,1022.01 424.531001,1006.22 421.430001,991.51 C420.170001,985.16 416.701001,979.456 411.638001,975.42 C411.196001,975.072 409.472001,975.82 409.824001,976.103 C422.125001,985.79 422.240001,1003.23 416.292001,1016.53 C410.841001,1028.72 397.914001,1043.59 383.023001,1041.82 C377.792001,1041.19 373.322001,1037.81 369.036001,1034.97 C364.862001,1032.2 360.795001,1029.28 356.816001,1026.24 C347.961001,1019.42 339.463001,1012.15 331.355001,1004.45 C290.665001,966.126 256.487001,920.138 229.355001,871.363 C215.080001,845.701 202.747001,818.852 193.581001,790.931 C189.156001,777.583 185.587001,763.966 182.896001,750.163 C179.596001,732.943 175.321001,715.908 172.305001,698.635 C171.617001,694.696 171.005001,690.74 170.527001,686.769 C170.263001,684.584 170.364001,684.288 168.780001,682.751 C167.057001,681.084 165.410001,679.341 163.839001,677.523 C158.790001,671.569 154.385001,665.097 150.699001,658.215 C143.836001,645.402 138.706001,631.733 135.444001,617.568 C132.121001,603.414 130.098001,588.985 129.399001,574.463 C129.047001,567.793 128.932001,561.117 129.054001,554.434 C129.108001,551.35 129.211001,548.269 129.363001,545.188 C129.436001,543.711 129.628001,542.199 129.618001,540.72 C129.440001,538.667 129.038001,536.64 128.418001,534.675 C122.848001,510.588 123.128001,484.014 136.057001,462.233 C144.418001,448.146 158.709001,435.476 175.328001,432.767 C181.141001,431.821 187.571001,432.184 192.200001,436.19 C192.600001,436.539 193.840001,436.116 194.063001,435.69 C203.334001,418.059 217.356001,395.753 238.454001,391.081 C244.631001,389.749 251.073001,390.417 256.845001,392.99 C262.618001,395.563 267.422001,399.906 270.563001,405.392 C270.823001,405.843 272.636001,405.373 272.495001,404.875 C269.561001,394.492 265.751001,384.155 264.026001,373.475 C264.011001,373.439 263.986001,373.407 263.955001,373.383 C263.924001,373.358 263.887001,373.342 263.848001,373.336 C252.094001,369.2 243.690001,361.752 237.571001,350.927 C232.266001,341.805 229.347001,331.493 229.083001,320.943 C228.983001,311.719 231.350001,301.917 237.803001,295.024 C245.174001,287.15 256.274001,285.673 266.447001,287.676 C283.024001,290.938 296.212001,303.069 306.185001,316.076 C320.065001,334.184 329.572001,355.539 337.321001,376.863 C348.021001,406.3 355.321001,436.924 360.905001,467.708 C360.928001,467.836 361.167001,467.87 361.253001,467.877 C364.653001,468.177 368.008001,467.271 371.504001,467.853 C375.377001,468.508 379.078001,469.937 382.387001,472.055 C389.740001,476.738 394.653001,484.149 397.958001,492.073 L399.832001,491.472 C399.560001,491.137 397.785001,491.637 397.958001,492.073 C405.183001,510.205 408.659001,530.114 409.728001,549.518 C410.702001,567.289 409.704001,585.297 405.385001,602.61 C399.279001,627.092 386.111001,649.229 366.394001,665.129 C362.052001,668.62 357.479001,671.813 352.706001,674.686 C342.657001,680.752 332.177001,686.467 320.711001,689.297 C320.417001,689.37 319.873001,689.544 319.838001,689.897 C317.196001,717.029 316.137001,743.94 318.865001,771.121 C321.362001,795.662 326.273001,819.897 333.526001,843.473 C344.810001,880.301 361.393001,916.202 383.987001,947.497 C391.419001,957.792 399.628001,968.356 409.817001,976.093 C410.269001,976.444 411.983001,975.686 411.633001,975.42 Z" id="Path" fill="#000000"></path>
            <path d="M375.526001,1039.96 C387.603001,1047.09 405.675001,1037.8 415.398001,1020.08 C425.120001,1002.36 421.931001,984.209 410.726001,975.765 L410.875001,975.836 C398.832001,968.64 380.716001,977.843 370.907001,995.52 C361.099001,1013.19 364.201001,1031.36 375.365001,1039.86 L375.526001,1039.96 Z" id="Path" fill="#AEAEAE"></path>
            <path d="M374.618001,1040.29 C384.743001,1046.17 397.243001,1040.8 405.286001,1033.81 C416.357001,1024.18 423.854001,1008.65 421.825001,993.82 C420.984001,986.58 417.322001,979.973 411.635001,975.425 L409.818001,976.098 L409.967001,976.169 C410.422001,976.384 412.115001,975.689 411.784001,975.496 C401.627001,969.538 389.039001,974.943 380.952001,981.958 C369.785001,991.64 362.211001,1007.35 364.432001,1022.3 C364.957001,1026 366.176001,1029.57 368.025001,1032.82 C369.612001,1035.79 371.869001,1038.35 374.618001,1040.29 C375.096001,1040.59 376.734001,1039.81 376.434001,1039.62 C374.099001,1037.99 372.131001,1035.89 370.658001,1033.45 C369.047001,1030.94 367.842001,1028.19 367.089001,1025.31 C365.416001,1018.49 365.684001,1011.34 367.864001,1004.66 C371.676001,992.32 381.000001,979.92 393.415001,975.276 C398.844001,973.245 404.874001,973.175 409.967001,976.169 L411.784001,975.496 L411.635001,975.425 C411.251001,975.243 409.424001,975.796 409.818001,976.098 C420.524001,984.287 422.078001,999.19 418.269001,1011.33 C414.427001,1023.57 405.182001,1035.87 392.846001,1040.48 C387.464001,1042.49 381.493001,1042.56 376.434001,1039.62 C375.943001,1039.34 374.327001,1040.13 374.618001,1040.29 Z" id="Path" fill="#000000"></path>
            <path d="M256.508001,642.573 C254.361001,632.872 253.898001,622.873 255.141001,613.014 C256.523001,602.526 260.185001,592.122 267.100001,583.975 C271.347001,579.013 276.608001,575.02 282.527001,572.263 C283.732001,571.695 282.642001,570.904 281.727001,571.336 C271.303001,576.211 262.967001,584.657 258.226001,595.145 C253.772001,604.97 252.237001,615.914 252.569001,626.636 C252.737001,632.171 253.411001,637.68 254.581001,643.092 C254.745001,643.846 256.681001,643.354 256.513001,642.575 L256.508001,642.573 Z" id="Path" fill="#000000"></path>
            <path d="M254.287001,621.387 C252.987001,608.548 243.487001,595.725 229.849001,594.876 C225.982001,594.69 222.125001,595.416 218.590001,596.995 C217.354001,597.527 218.482001,598.147 219.349001,597.774 C222.189001,596.509 225.275001,595.898 228.382001,595.986 C231.489001,596.074 234.536001,596.858 237.299001,598.281 C242.711001,601.21 247.006001,605.844 249.518001,611.464 C251.040001,614.761 251.999001,618.29 252.355001,621.904 C252.419001,622.527 254.361001,622.11 254.287001,621.386 L254.287001,621.387 Z" id="Path" fill="#000000"></path>
            <path d="M230.427001,303.952 C224.120001,318.546 227.378001,336.074 234.664001,349.67 C237.754001,355.662 241.910001,361.04 246.927001,365.541 C251.459001,369.453 256.726001,372.42 262.419001,374.268 C269.400001,376.408 276.692001,377.357 283.988001,377.075 C284.361001,377.067 285.104001,376.955 285.261001,376.537 C285.406001,376.149 285.136001,375.923 284.727001,375.931 C272.399001,376.172 259.886001,373.766 250.057001,365.888 C238.787001,356.856 231.667001,342.378 229.643001,328.242 C228.464001,320.02 229.043001,311.407 232.363001,303.725 C232.637001,303.089 230.710001,303.297 230.427001,303.952 L230.427001,303.952 Z" id="Path" fill="#000000"></path>
            <path d="M127.749001,540.258 C129.049001,545.7 131.819001,550.811 134.833001,555.476 C138.616001,561.323 143.112001,566.677 148.216001,571.414 C157.429001,579.966 170.494001,587.8 183.510001,584.061 C191.828001,581.671 197.882001,575.063 202.217001,567.854 C202.767001,566.94 200.805001,566.918 200.371001,567.638 C196.622001,573.87 191.475001,579.826 184.442001,582.335 C178.788001,584.352 172.690001,583.736 167.148001,581.668 C161.078001,579.242 155.512001,575.707 150.734001,571.244 C145.757001,566.762 141.347001,561.689 137.600001,556.138 C134.217001,551.152 131.093001,545.654 129.681001,539.744 C129.469001,538.859 127.535001,539.365 127.749001,540.262 L127.749001,540.258 Z" id="Path" fill="#000000"></path>
            <path d="M192.212001,435.813 C188.744001,441.852 186.701001,448.758 185.051001,455.479 C180.009001,476.759 179.161001,498.817 182.557001,520.42 C184.495001,532.779 188.275001,544.777 193.772001,556.014 C196.568001,561.701 199.904001,567.105 203.736001,572.152 C206.905001,576.271 210.782001,580.09 215.542001,582.312 C223.336001,585.95 231.872001,583.923 238.650001,579.094 C246.460001,573.531 252.240001,565.273 256.526001,556.807 C260.595001,548.77 263.844001,539.767 264.237001,530.689 C264.783001,518.074 265.337001,505.405 264.386001,492.795 C263.398001,478.087 259.873001,463.66 253.964001,450.155 C252.293001,446.414 250.426001,442.766 248.399001,439.206 C248.024001,438.547 246.160001,439.184 246.467001,439.723 C253.922001,452.822 258.911001,467.178 261.186001,482.078 C263.155001,494.932 263.154001,507.939 262.686001,520.904 C262.507001,525.906 262.574001,531.008 261.772001,535.96 C261.025001,540.342 259.840001,544.639 258.234001,548.785 C254.814001,557.822 249.818001,566.629 243.060001,573.595 C237.524001,579.297 229.920001,584.408 221.593001,582.836 C210.861001,580.811 203.923001,570.07 198.846001,561.34 C192.747001,550.645 188.358001,539.062 185.837001,527.01 C183.396001,515.551 182.260001,503.853 182.451001,492.139 C182.563001,481.812 183.623001,471.518 185.619001,461.386 C186.972001,453.835 189.181001,446.464 192.204001,439.414 C192.751001,438.205 193.348001,437.013 194.009001,435.867 C194.466001,435.071 192.532001,435.249 192.209001,435.813 L192.212001,435.813 Z" id="Path" fill="#000000"></path>
            <path d="M301.037001,689.191 C293.263001,689.144 285.563001,687.668 278.322001,684.835 C271.772001,681.996 265.704001,678.155 260.335001,673.448 C259.909001,673.089 259.110001,673.389 258.784001,673.726 C248.884001,683.922 237.647001,693.371 223.425001,696.515 C218.585001,697.56 213.615001,697.859 208.685001,697.401 C207.767001,697.321 206.699001,698.648 208.004001,698.762 C216.680001,699.532 225.410001,698.113 233.396001,694.633 C240.359001,691.463 246.773001,687.204 252.397001,682.015 C255.167001,679.539 257.807001,676.926 260.397001,674.26 L258.845001,674.538 C264.326001,679.323 270.519001,683.225 277.201001,686.102 C284.584001,688.99 292.434001,690.499 300.361001,690.552 C300.782001,690.562 301.453001,690.436 301.621001,689.969 C301.656001,689.879 301.668001,689.781 301.655001,689.685 C301.641001,689.589 301.604001,689.498 301.546001,689.42 C301.488001,689.342 301.411001,689.28 301.323001,689.24 C301.235001,689.2 301.138001,689.183 301.041001,689.191 L301.037001,689.191 Z" id="Path" fill="#000000"></path>
            <path d="M269.459001,401.553 C273.919001,414.786 277.844001,429.184 286.735001,440.263 C289.008001,443.138 291.714001,445.642 294.755001,447.686 C295.235001,448.004 296.911001,447.228 296.568001,447.001 C285.061001,439.381 279.730001,425.292 275.367001,412.813 C274.000001,408.902 272.712001,404.962 271.389001,401.035 C271.216001,400.525 269.299001,401.085 269.456001,401.553 L269.459001,401.553 Z" id="Path" fill="#000000"></path>
            <path d="M284.978001,460.545 C285.897001,453.598 284.803001,446.429 283.378001,439.627 C282.105001,433.67 280.485001,427.793 278.525001,422.027 C278.142001,420.887 277.753001,419.749 277.325001,418.625 C277.097001,418.018 275.186001,418.593 275.392001,419.142 C279.108001,428.786 281.639001,438.846 282.931001,449.1 C283.454001,452.987 283.496001,456.923 283.055001,460.82 C282.966001,461.495 284.900001,461.14 284.979001,460.547 L284.978001,460.545 Z" id="Path" fill="#000000"></path>
            <path d="M342.159001,550.714 C349.548001,553.499 357.520001,554.374 365.337001,553.259 C366.165001,553.151 367.025001,552.258 365.667001,552.438 C358.258001,553.453 350.714001,552.583 343.731001,549.909 C343.264001,549.726 341.514001,550.463 342.159001,550.714 L342.159001,550.714 Z" id="Path" fill="#000000"></path>
            <path d="M379.575001,1032.57 C388.876001,1038.07 402.789001,1030.92 410.277001,1017.27 C417.764001,1003.62 415.307001,989.64 406.677001,983.14 L406.792001,983.194 C397.518001,977.654 383.569001,984.741 376.017001,998.35 C368.465001,1011.96 370.853001,1025.95 379.449001,1032.49 L379.575001,1032.57 Z" id="Path" fill="url(#linearGradient-3)"></path>
            <path d="M378.663001,1032.89 C386.446001,1037.38 396.225001,1033.31 402.464001,1027.98 C411.104001,1020.6 416.989001,1008.58 415.465001,997.09 C414.833001,991.48 412.003001,986.35 407.596001,982.824 L405.770001,983.463 L405.885001,983.517 C406.324001,983.725 407.921001,983.001 407.711001,982.879 C399.838001,978.286 389.901001,982.489 383.620001,987.91 C375.020001,995.34 369.154001,1007.38 370.792001,1018.88 C371.183001,1021.76 372.120001,1024.55 373.551001,1027.08 C374.782001,1029.39 376.533001,1031.37 378.667001,1032.88 C379.112001,1033.16 380.685001,1032.37 380.493001,1032.25 C376.883001,1029.99 374.493001,1025.48 373.382001,1021.51 C372.043001,1016.33 372.173001,1010.89 373.759001,1005.78 C376.574001,996.22 383.710001,986.51 393.247001,982.817 C395.268001,981.966 397.456001,981.586 399.646001,981.705 C401.835001,981.825 403.969001,982.441 405.885001,983.508 L407.711001,982.87 L407.596001,982.815 C407.224001,982.639 405.496001,983.241 405.770001,983.453 C413.943001,989.73 415.201001,1001.11 412.324001,1010.42 C409.441001,1019.75 402.492001,1029.14 393.196001,1032.84 C391.174001,1033.72 388.978001,1034.12 386.777001,1034.01 C384.575001,1033.91 382.427001,1033.3 380.496001,1032.24 C380.028001,1031.99 378.482001,1032.79 378.663001,1032.89 Z" id="Path" fill="#000000"></path>
            <path d="M354.120001,544.721 C330.814001,560.791 283.043001,556.31 264.938001,536.753 C232.566001,501.782 258.399001,474.228 279.418001,478.246 C320.044001,486.016 330.501001,480.415 352.250001,470.543 C369.856001,462.55 388.210001,467.992 397.697001,488.943" id="Path" fill="#FFFFFF"></path>
            <path d="M353.510001,544.396 C345.224001,550.066 335.101001,552.599 325.217001,553.525 C314.393001,554.529 303.478001,553.646 292.956001,550.915 C283.699001,548.504 274.289001,544.551 267.292001,537.846 C262.410001,533.137 258.328001,527.663 255.208001,521.64 C252.634001,516.844 251.083001,511.566 250.651001,506.139 C250.348001,501.935 251.051001,497.719 252.704001,493.842 C254.356001,489.964 256.909001,486.537 260.152001,483.844 C263.078001,481.47 266.512001,479.801 270.186001,478.966 C274.769001,477.938 279.002001,478.866 283.548001,479.667 C294.784001,481.638 306.325001,483.161 317.749001,482.198 C325.727001,481.414 333.533001,479.393 340.889001,476.206 C349.625001,472.579 357.997001,467.445 367.763001,467.617 C378.493001,467.807 387.564001,474.035 393.289001,482.86 C395.000001,485.536 396.456001,488.366 397.637001,491.314 C397.937001,492.035 399.837001,491.462 399.569001,490.796 C395.300001,480.355 387.769001,470.93 376.591001,467.659 C371.706001,466.282 366.567001,466.063 361.583001,467.019 C356.440001,467.961 351.819001,470.126 347.094001,472.264 C339.540001,475.681 331.874001,478.932 323.653001,480.328 C312.812001,482.168 301.665001,481.18 290.864001,479.558 C287.117001,478.994 283.402001,478.275 279.671001,477.627 C277.785001,477.302 275.868001,477.199 273.958001,477.319 C270.050001,477.59 266.249001,478.713 262.821001,480.61 C259.189001,482.596 256.058001,485.385 253.665001,488.763 C251.272001,492.141 249.681001,496.02 249.011001,500.106 C247.157001,511.75 252.692001,523.127 259.702001,532.061 C263.022001,536.476 267.042001,540.319 271.602001,543.436 C275.828001,546.157 280.367001,548.356 285.121001,549.987 C295.639001,553.617 306.720001,555.339 317.843001,555.071 C328.349001,554.879 339.159001,553.126 348.689001,548.525 C350.788001,547.518 352.809001,546.355 354.733001,545.045 C355.812001,544.307 354.171001,543.944 353.514001,544.394 L353.510001,544.396 Z" id="Path" fill="#000000"></path>
            <path d="M243.517001,86.934 C259.432001,87.015 275.121001,90.705 289.402001,97.724 C303.684001,104.743 316.186001,114.908 325.966001,127.455 C335.747001,140.002 342.552001,154.604 345.869001,170.16 C349.185001,185.716 348.927001,201.821 345.113001,217.263 C344.774001,218.645 346.795001,219.05 347.735001,218.968 C349.049001,218.854 350.609001,218.125 350.948001,216.741 C354.764001,200.814 354.923001,184.23 351.412001,168.233 C347.900001,152.236 340.810001,137.242 330.673001,124.374 C320.537001,111.506 307.616001,101.099 292.880001,93.934 C278.145001,86.768 261.977001,83.0302 245.590001,83 C244.227001,83 242.498001,83.3679 241.812001,84.7137 C241.213001,85.902 242.337001,86.932 243.517001,86.934 L243.517001,86.934 Z" id="Path" fill="url(#linearGradient-4)"></path>
            <path d="M245.441001,279.13 C228.156001,279.045 211.278001,273.878 196.911001,264.273 C182.544001,254.667 171.324001,241.048 164.649001,225.114 C157.975001,209.179 156.140001,191.633 159.375001,174.664 C162.610001,157.694 170.770001,142.051 182.840001,129.685 C188.230001,124.171 194.333001,119.4 200.986001,115.499 C207.716001,111.572 214.959001,108.599 222.509001,106.667 C241.818001,101.737 262.240001,103.656 280.292001,112.096 C293.065001,118.053 304.222001,126.984 312.827001,138.14 C321.432001,149.297 327.234001,162.353 329.746001,176.214 C332.259001,190.075 331.408001,204.335 327.266001,217.8 C323.124001,231.264 315.812001,243.539 305.942001,253.596 C293.784001,265.939 278.167001,274.308 261.153001,277.6 C255.976001,278.605 250.716001,279.118 245.443001,279.13 C244.086001,279.13 242.350001,279.498 241.660001,280.83 C241.048001,282.011 242.193001,283.003 243.356001,283.000092 C263.509001,283.028 283.151001,276.66 299.449001,264.813 C314.973001,253.32 326.548001,237.298 332.578001,218.955 C338.612001,200.321 338.447001,180.235 332.105001,161.703 C325.763001,143.172 313.587001,127.191 297.398001,116.153 C280.274001,104.525 259.760001,98.932 239.099001,100.26 C220.683001,101.462 203.025001,108.044 188.319001,119.188 C175.329001,129.091 165.185001,142.245 158.909001,157.32 C152.201001,173.494 150.319001,191.262 153.492001,208.481 C156.664001,225.7 164.755001,241.633 176.788001,254.358 C190.686001,268.851 208.899001,278.467 228.711001,281.773 C233.549001,282.581 238.446001,282.991 243.351001,283.000092 C244.706001,283.000092 246.443001,282.626 247.134001,281.298 C247.749001,280.115 246.600001,279.133 245.441001,279.13 Z" id="Path" fill="url(#linearGradient-5)"></path>
            <path d="M202.302001,247.471 C192.607001,239.852 185.039001,229.864 180.330001,218.471 C175.979001,207.871 174.178001,196.398 175.074001,184.975 C175.966001,174.419 179.170001,164.188 184.459001,155.007 C189.748001,145.826 196.992001,137.919 205.678001,131.847 C216.539001,124.298 229.446001,120.241 242.675001,120.218 C244.114001,120.238 245.530001,119.858 246.765001,119.121 C247.625001,118.564 247.605001,117.858 246.427001,117.861983 C221.265001,117.946 196.778001,129.744 182.259001,150.473 C171.561001,165.702 167.111001,184.451 169.826001,202.859 C172.540001,221.268 182.212001,237.937 196.852001,249.435 C197.706001,250.11 199.696001,249.425 200.575001,249.105 C200.949001,248.969 203.098001,248.1 202.300001,247.469 L202.302001,247.471 Z" id="Path" fill="url(#linearGradient-6)"></path>
            <path d="M312.273001,176.13 C315.527001,190.309 314.403001,205.141 309.050001,218.669 C303.696001,232.197 294.365001,243.786 282.287001,251.905 C275.626001,256.327 268.222001,259.511 260.431001,261.305 C259.905001,261.427 257.545001,262.097 257.774001,262.954 C258.004001,263.812 260.484001,263.154 260.900001,263.054 C276.238001,259.587 290.157001,251.533 300.801001,239.963 C310.817001,228.904 317.250001,215.075 319.255001,200.294 C320.385001,191.719 319.978001,183.012 318.051001,174.58 C317.777001,173.367 311.966001,174.788 312.265001,176.129 L312.273001,176.13 Z" id="Path" fill="url(#linearGradient-7)"></path>
            <path d="M582.049001,266.221 C581.895001,265.624 604.691001,259.207 605.062001,259.111 C605.432001,259.014 628.463001,253.573 628.617001,254.171 C628.770001,254.769 605.991001,261.182 605.621001,261.278 C605.250001,261.375 582.204001,266.82 582.049001,266.221 Z" id="Path" fill="#FFFFFF"></path>
            <path d="M529.038001,279.939 C528.884001,279.343 546.167001,274.352 546.448001,274.279 C546.730001,274.207 564.250001,270.189 564.404001,270.787 C564.558001,271.385 547.287001,276.373 547.006001,276.445 C546.725001,276.518 529.192001,280.538 529.038001,279.939 Z" id="Path" fill="#FFFFFF"></path>
            <path d="M553.414001,236.545 C553.260001,235.949 571.626001,230.677 571.923001,230.6 C572.221001,230.522 590.825001,226.224 590.979001,226.82 C591.133001,227.417 572.784001,232.688 572.486001,232.767 C572.189001,232.846 553.568001,237.143 553.414001,236.545 Z" id="Path" fill="#FFFFFF"></path>
            <path d="M637.517001,214.786 C637.363001,214.19 644.743001,211.762 644.864001,211.73 C644.985001,211.698 652.608001,210.238 652.764001,210.841 C652.920001,211.444 645.544001,213.866 645.423001,213.896 C645.302001,213.927 637.670001,215.383 637.517001,214.786 Z" id="Path" fill="#FFFFFF"></path>
            <path d="M578.231001,151.477 C578.628001,151.006 598.449001,167.068 598.764001,167.333 C599.078001,167.599 618.242001,184.417 617.845001,184.89 C617.448001,185.362 597.640001,169.312 597.325001,169.045 C597.010001,168.779 577.834001,151.95 578.231001,151.477 Z" id="Path" fill="#FFFFFF"></path>
            <path d="M631.144001,193.481 C631.337001,193.24 636.009001,196.635 640.675001,200.12 L647.099001,204.97 L650.135001,207.294 L654.000001,210.526 C653.729001,211.137 653.442001,211.779 653.145001,212.447 L652.549001,213.754 L651.259001,216.558 C650.358001,218.475 649.428001,220.456 648.586001,222.246 C646.879001,225.815 645.471001,228.592 645.263001,228.504 C645.056001,228.415 646.075001,225.472 647.459001,221.766 C648.164001,219.918 648.943001,217.872 649.698001,215.893 L650.818001,213.015 C650.999001,212.556 651.174001,212.108 651.343001,211.677 L651.469001,211.357 L651.521001,211.224 L651.521001,211.207 L651.527001,211.149 C651.492001,211.136 651.458001,211.118 651.428001,211.097 L650.788001,210.609 L649.734001,209.803 L648.741001,209.041 L645.815001,206.579 L639.690001,201.354 C635.277001,197.554 630.951001,193.722 631.144001,193.481 Z" id="Path" fill="#FFFFFF"></path>
            <path d="M563.198001,165.01569 C563.808001,165.1 561.968001,182.25 561.929001,182.52 C561.891001,182.791 559.062001,199.798 558.454001,199.715303 C557.847001,199.631 559.679001,182.498 559.716001,182.222 C559.754001,181.947 562.587001,164.932 563.198001,165.01569 Z" id="Path" fill="#FFFFFF"></path>
            <path d="M556.725001,212.346 C557.030001,212.388 556.741001,216.562 556.371001,220.759 L555.819001,226.56 L555.531001,229.311 C555.510001,229.435 554.893001,232.99 554.227001,236.82 L553.234001,238.411 L552.328001,239.84 L550.658001,242.402 C549.650001,243.906 548.905001,244.906 548.759001,244.824 C548.613001,244.741 549.080001,243.585 549.839001,241.94 C550.230001,241.123 550.682001,240.177 551.159001,239.18 C551.625001,238.236 552.117001,237.241 552.598001,236.269 C552.584001,236.291 552.624001,235.919 552.641001,235.721 L552.707001,235.024 L552.836001,233.685 L553.069001,231.339 C553.213001,229.972 553.308001,229.064 553.314001,229.003 C553.320001,228.943 553.513001,227.857 553.776001,226.275 C554.059001,224.696 554.431001,222.614 554.802001,220.54 C555.577001,216.402 556.420001,212.3 556.725001,212.346 Z" id="Path" fill="#FFFFFF"></path>
            <path d="M640.948001,238.646 C640.621001,240.116 640.147001,241.549 639.533001,242.923 C639.037001,244.208 638.455001,245.729 637.810001,247.398 C637.484001,248.233 637.141001,249.105 636.788001,250.005 L635.173001,253.992 L620.900001,231.734 C620.737001,231.46 615.597001,222.84 610.496001,214.289 C607.964001,210.002 605.458001,205.723 603.618001,202.494 C601.778001,199.266 600.605001,197.089 600.739001,197.007 C600.873001,196.926 602.294001,198.948 604.361001,202.035 C606.428001,205.122 609.137001,209.275 611.842001,213.456 L622.803001,230.555 C622.902001,230.714 624.681001,233.688 627.162001,237.829 C628.397001,239.902 629.805001,242.268 631.265001,244.72 L633.468001,248.442 L634.560001,250.291 L634.957001,251.017 C635.042001,250.848 635.126001,250.682 635.209001,250.519 L635.368001,250.193 L635.671001,249.529 L636.836001,246.983 L638.865001,242.634 C639.424001,241.238 640.121001,239.902 640.948001,238.646 Z" id="Path" fill="#FFFFFF"></path>
            <path d="M590.811001,180.961 C589.759001,179.714 588.811001,178.384 587.974001,176.983 C586.294001,174.458 583.993001,170.921 581.422001,166.931 L566.779001,144.02 L566.742001,144.253 L566.254001,146.143 C565.913001,147.459 565.611001,148.62 565.361001,149.593 C564.853001,151.537 564.544001,152.719 564.512001,152.843 C564.388001,153.286 560.465001,167.193 556.569001,180.99 C554.604001,187.882 552.626001,194.743 551.108001,199.87 C550.347001,202.434 549.700001,204.563 549.222001,206.048 C549.027001,206.846 548.740001,207.619 548.367001,208.351 C548.413001,207.532 548.554001,206.721 548.787001,205.935 C549.123001,204.413 549.635001,202.246 550.267001,199.648 C551.531001,194.45 553.276001,187.527 555.047001,180.581 C558.628001,166.7 562.239001,152.707 562.353001,152.263 C562.437001,151.964 563.933001,146.593 566.046001,139.005 C567.511001,141.414 569.111001,144.055 570.798001,146.829 L574.677001,153.28 L582.450001,166.292 C584.872001,170.37 587.009001,174.012 588.518001,176.644 C589.399001,178.018 590.166001,179.462 590.811001,180.961 L590.811001,180.961 Z" id="Path" fill="#FFFFFF"></path>
            <path d="M543.348001,226.94 C543.944001,227.101 537.382001,253.319 537.269001,253.741 C537.156001,254.163 529.634001,280.097 529.039001,279.939 C528.444001,279.781 534.996001,253.583 535.112001,253.157 C535.228001,252.732 542.752001,226.779 543.348001,226.94 Z" id="Path" fill="#FFFFFF"></path>
            <path d="M741.316001,340.81 C742.146001,341.058 742.945001,341.396 743.701001,341.819 C745.184001,342.525 747.295001,343.563 749.812001,344.825 C754.854001,347.349 761.559001,350.772 768.281001,354.226 L795.672001,368.394 L796.289001,368.727 L796.788001,369.001 C796.791001,369.006 796.795001,369.012 796.799001,369.017 L812.326001,340.612 C815.513001,334.825 818.546001,329.357 820.813001,325.347 C821.946001,323.344 822.887001,321.706 823.561001,320.577 C823.869001,319.961 824.252001,319.384 824.701001,318.861 C824.520001,319.527 824.257001,320.167 823.918001,320.767 C823.359001,321.956 822.529001,323.654 821.503001,325.714 C819.452001,329.835 816.611001,335.408 813.602001,341.287 L804.633001,358.689 L797.713001,371.999 L794.611001,370.373 L767.531001,355.627 C760.902001,351.993 754.311001,348.357 749.394001,345.595 C746.936001,344.214 744.902001,343.052 743.481001,342.218 C742.710001,341.829 741.984001,341.357 741.316001,340.81 L741.316001,340.81 Z" id="Path" fill="#FFFFFF"></path>
            <path d="M838.340001,293.214 C838.744001,291.982 839.265001,290.791 839.895001,289.658 C840.947001,287.476 842.461001,284.437 844.215001,280.961 C847.622001,274.288 851.902001,265.91 855.387001,259.082 L843.163001,252.772 L819.273001,239.718 C813.428001,236.5 807.614001,233.279 803.281001,230.826 C801.115001,229.601 799.318001,228.567 798.072001,227.823 C797.387001,227.481 796.747001,227.055 796.167001,226.556 C796.906001,226.755 797.618001,227.047 798.285001,227.424 C799.599001,228.038 801.462001,228.947 803.692001,230.055 C808.150001,232.27 814.075001,235.278 820.018001,238.316 L844.217001,250.788 L857.994001,258.282 L851.367001,270.384 L845.209001,281.487 C843.312001,284.885 841.638001,287.84 840.417001,289.934 C839.830001,291.091 839.135001,292.189 838.340001,293.214 Z" id="Path" fill="#FFFFFF"></path>
            <path d="M773.271001,214.403 C772.050001,214.057 770.874001,213.57 769.766001,212.951 C767.662001,211.962 764.796001,210.556 761.687001,209.016 L745.244001,200.74 L745.237001,200.777 L745.237001,200.79 L745.115001,201.029 C744.928001,201.395 744.765001,201.714 744.629001,201.978 L744.172001,202.866 L735.416001,218.64 C733.252001,222.497 731.078001,226.323 729.412001,229.177 C727.746001,232.032 726.585001,233.895 726.448001,233.822 C726.311001,233.749 727.210001,231.744 728.638001,228.767 C730.067001,225.791 732.027001,221.847 734.011001,217.892 L742.187001,201.808 L744.355001,197.835 L748.767001,200.252 L753.017001,202.61 L762.319001,207.824 C765.339001,209.533 768.110001,211.121 770.106001,212.313 C771.239001,212.885 772.301001,213.586 773.271001,214.403 L773.271001,214.403 Z" id="Path" fill="#FFFFFF"></path>
            <path d="M715.084001,255.201 C714.891001,255.927 714.606001,256.626 714.236001,257.28 C713.637001,258.571 712.738001,260.398 711.654001,262.587 C709.480001,266.963 706.527001,272.778 703.544001,278.607 C697.541001,290.246 691.488001,301.978 691.298001,302.35 C691.198001,302.538 689.346001,305.922 686.739001,310.694 L709.417001,323.193 C713.191001,325.296 716.537001,327.184 718.926001,328.563 C720.250001,329.237 721.511001,330.028 722.695001,330.926 C721.287001,330.45 719.925001,329.849 718.624001,329.13 C716.141001,327.927 712.705001,326.211 708.849001,324.264 L696.547001,317.999 L684.000001,311.533 C687.039001,305.679 689.192001,301.527 689.314001,301.298 L702.141001,277.862 C705.304001,272.128 708.471001,266.427 710.882001,262.176 C712.088001,260.052 713.104001,258.285 713.836001,257.068 C714.172001,256.396 714.591001,255.768 715.084001,255.201 L715.084001,255.201 Z" id="Path" fill="#FFFFFF"></path>
            <path d="M758.778001,257.884 C758.256001,259.466 757.588001,260.996 756.781001,262.454 C755.459001,265.193 753.609001,268.908 751.615001,272.866 C747.780001,280.396 743.456001,288.886 741.497001,292.734 C741.507001,292.736 741.517001,292.736 741.526001,292.734 L742.083001,293.02 L742.717001,293.348 L761.523001,303.703 C766.121001,306.259 770.693001,308.822 774.096001,310.781 C777.499001,312.739 779.735001,314.093 779.663001,314.23 C779.591001,314.367 777.216001,313.274 773.686001,311.552 C770.155001,309.83 765.472001,307.481 760.777001,305.105 L741.663001,295.327 L738.536001,293.63 L743.902001,283.84 C745.929001,280.193 748.218001,276.071 750.370001,272.196 C752.521001,268.32 754.578001,264.712 756.109001,262.087 C756.867001,260.607 757.760001,259.199 758.778001,257.884 L758.778001,257.884 Z" id="Path" fill="#FFFFFF"></path>
            <path d="M828.770001,340.3 C828.846001,340.157 830.966001,341.108 834.061001,342.595 L844.520001,347.733 L844.606001,347.534 L844.656001,347.421 L844.828001,347.078 L845.514001,345.717 C845.970001,344.819 846.413001,343.935 846.847001,343.082 C847.714001,341.378 848.519001,339.789 849.212001,338.427 C850.610001,335.703 851.546001,333.868 851.608001,333.75 L860.132001,318.411 C862.241001,314.662 864.358001,310.936 865.982001,308.166 C867.606001,305.397 868.737001,303.583 868.877001,303.655 C869.017001,303.728 868.143001,305.681 866.757001,308.576 C865.370001,311.472 863.467001,315.311 861.538001,319.153 L853.595001,334.8 L845.204001,349.942 L841.556001,347.914 C840.589001,347.367 839.634001,346.827 838.708001,346.303 L833.640001,343.391 C830.668001,341.664 828.695001,340.443 828.770001,340.3 Z" id="Path" fill="#FFFFFF"></path>
            <path d="M883.389001,276.344 C883.815001,274.975 884.381001,273.653 885.078001,272.4 C886.212001,270.026 887.814001,266.788 889.576001,263.272 L899.099001,244.501 C899.415001,244.687 898.030001,243.966 897.525001,243.703 L896.501001,243.174 L878.539001,233.267 C874.146001,230.821 869.782001,228.367 866.532001,226.491 C863.282001,224.614 861.150001,223.315 861.223001,223.178 C861.295001,223.041 863.567001,224.076 866.942001,225.718 C870.318001,227.361 874.796001,229.599 879.284001,231.866 L897.554001,241.192 L902.000001,243.608 L896.653001,253.341 L890.762001,263.903 C888.834001,267.33 887.046001,270.47 885.713001,272.738 C885.065001,274.017 884.286001,275.225 883.389001,276.344 Z" id="Path" fill="#FFFFFF"></path>
            <path d="M833.755001,208.603 C832.266001,208.095 830.825001,207.457 829.447001,206.696 C826.828001,205.426 823.221001,203.623 819.220001,201.601 L796.129001,189.804 L792.868001,196.123 C792.669001,196.48 786.524001,207.697 780.424001,218.837 C777.356001,224.395 774.282001,229.92 771.937001,234.038 C770.767001,236.098 769.780001,237.805 769.069001,238.988 C768.744001,239.641 768.335001,240.248 767.852001,240.795 C768.036001,240.089 768.310001,239.411 768.669001,238.776 C769.252001,237.523 770.114001,235.75 771.165001,233.628 C773.268001,229.384 776.128001,223.75 779.017001,218.093 C784.835001,206.807 790.698001,195.432 790.883001,195.07 C790.992001,194.87 792.722001,191.687 795.270001,187 L807.441001,193.651 L819.813001,200.489 C823.730001,202.669 827.243001,204.646 829.764001,206.104 C831.165001,206.819 832.501001,207.655 833.755001,208.603 L833.755001,208.603 Z" id="Path" fill="#FFFFFF"></path>
            <path d="M844.860001,348.842 C845.117001,349.406 838.870001,352.802 838.764001,352.85 C838.658001,352.898 831.998001,355.378 831.742001,354.814 C831.485001,354.25 837.732001,350.855 837.832001,350.807 C837.931001,350.759 844.603001,348.278 844.860001,348.842 Z" id="Path" fill="#FFFFFF"></path>
            <path d="M818.570001,360.809 C818.827001,361.373 808.548001,366.604 808.378001,366.681 C808.208001,366.757 797.520001,371.071 797.263001,370.507 C797.006001,369.943 807.278001,364.72 807.446001,364.637 C807.615001,364.554 818.313001,360.244 818.570001,360.809 Z" id="Path" fill="#FFFFFF"></path>
            <path d="M900.546001,244.057 C900.646001,244.35 895.337001,246.417 889.963001,248.424 L882.516001,251.161 L878.968001,252.437 L875.368001,253.545 L867.774001,255.825 C862.273001,257.445 856.792001,258.977 856.692001,258.683 C856.592001,258.389 861.897001,256.324 867.275001,254.319 L874.717001,251.583 L878.262001,250.308 L881.864001,249.199 L889.464001,246.919 C894.965001,245.296 900.451001,243.763 900.546001,244.057 Z" id="Path" fill="#FFFFFF"></path>
            <path d="M795.700507,188.402 C795.765001,188.702 789.560001,190.319 783.288001,191.868 L774.602001,193.972 L770.472001,194.945 L766.308001,195.744 L757.535001,197.377 C751.182001,198.528 744.865001,199.593 744.799494,199.29 C744.735001,198.986 750.935001,197.377 757.203001,195.824 L765.878001,193.723 L770.006001,192.75 L774.173001,191.952 L782.959001,190.319 C789.312001,189.164 795.635001,188.098 795.700507,188.402 Z" id="Path" fill="#FFFFFF"></path>
            <path d="M740.009001,293.187 C740.202001,293.776 735.226001,295.937 735.144001,295.965 C735.061001,295.993 729.774001,297.197 729.581001,296.608 C729.387001,296.02 734.360001,293.859 734.443001,293.832 C734.526001,293.805 739.817001,292.598 740.009001,293.187 Z" id="Path" fill="#FFFFFF"></path>
            <path d="M712.690001,302.151 C712.883001,302.739 699.593001,307.629 699.375001,307.7 C699.157001,307.77 685.562001,311.703 685.370001,311.114 C685.177001,310.525 698.457001,305.638 698.675001,305.567 C698.893001,305.496 712.496001,301.561 712.690001,302.151 Z" id="Path" fill="#FFFFFF"></path>
        </g>
    </g>
</svg>