<svg width="324" height="268" viewBox="0 0 324 268" fill="none" xmlns="http://www.w3.org/2000/svg">
<path d="M232.5 247.908C230.871 250.183 229.688 252.747 229.014 255.463C228.014 257.755 223.744 261.817 216.357 264.633C208.97 267.449 201.89 267.068 200.763 266.233C198.715 264.543 196.264 263.409 193.649 262.942L209.026 252.099L232.5 247.908Z" fill="black"/>
<path d="M204.756 267.349C202.607 267.349 201.04 267.064 200.465 266.64C198.468 265.003 196.088 263.9 193.547 263.435C193.451 263.416 193.363 263.369 193.294 263.3C193.224 263.231 193.177 263.143 193.157 263.047C193.137 262.951 193.146 262.852 193.182 262.761C193.218 262.67 193.28 262.591 193.36 262.535L208.737 251.688C208.797 251.646 208.865 251.618 208.937 251.604L232.41 247.414C232.508 247.397 232.608 247.408 232.699 247.448C232.79 247.487 232.867 247.553 232.921 247.636C232.974 247.719 233.002 247.817 233 247.916C232.998 248.015 232.967 248.111 232.91 248.192C231.315 250.418 230.157 252.926 229.498 255.584C228.343 258.26 223.813 262.323 216.535 265.098C212.771 266.533 208.784 267.295 204.756 267.349ZM194.846 262.713C197.136 263.278 199.27 264.352 201.086 265.856C201.97 266.507 208.786 266.986 216.178 264.166C223.662 261.312 227.678 257.279 228.555 255.266C229.136 252.902 230.109 250.652 231.433 248.609L209.223 252.573L194.846 262.713Z" fill="black"/>
<path d="M219.839 206.434L233.5 242.262C233.883 243.268 233.965 244.364 233.737 245.416C233.51 246.469 232.982 247.432 232.217 248.191C227.217 253.165 213.934 260.241 200.417 262.428C195.562 263.219 190.352 263.947 188.606 259.369L174.947 223.552L219.839 206.434Z" fill="#AFAFAF"/>
<path d="M218.873 206.693L225.838 224.956L230.55 237.31L232.057 241.262C232.398 242.022 232.658 242.815 232.833 243.629C233.388 247.236 229.99 249.485 227.395 251.254C224.306 253.325 221.038 255.118 217.631 256.611C213.732 258.363 209.688 259.772 205.544 260.821C201.984 261.715 197.887 262.747 194.183 262.386C193.144 262.334 192.143 261.975 191.308 261.352C190.473 260.73 189.843 259.874 189.496 258.892C189.153 258.01 188.821 257.122 188.484 256.237L184.209 245.029L179.175 231.829L177.228 226.729C176.898 225.702 176.514 224.694 176.076 223.708C176.017 223.574 175.965 223.437 175.92 223.298L175.344 223.987L190.565 218.182L214.681 208.982L220.23 206.866C220.538 206.749 220.976 206.404 220.73 206.049C220.484 205.694 219.744 205.892 219.445 206.006L204.225 211.811L180.109 221.011L174.56 223.127C174.349 223.207 173.869 223.513 173.984 223.816L181.437 243.357L186.165 255.757C187.048 258.072 187.744 261.157 189.981 262.532C192.67 264.18 196.312 263.62 199.253 263.168C203.556 262.507 207.79 261.459 211.905 260.039C218.847 257.639 225.941 254.383 231.614 249.633C233.964 247.665 235.564 245.133 234.458 241.99C234.225 241.329 233.958 240.679 233.708 240.024L229.519 229.039C226.669 221.566 223.919 214.046 220.967 206.614C220.91 206.47 220.856 206.325 220.801 206.18C220.534 205.464 218.62 206.027 218.873 206.693Z" fill="black"/>
<path d="M219.674 189.73C220.685 196.139 222.399 202.417 224.784 208.451C225.796 211.105 220.032 215.914 211.484 220.345C208.209 222.03 204.842 223.531 201.4 224.839C198.223 226.051 195.057 227.076 192.053 227.892C182.153 230.578 174.008 230.984 172.953 228.218L172.897 228.239C152.888 175.772 109.103 183.77 95.8448 149.005C92.5526 140.397 90.9928 131.223 91.2549 122.011C91.5169 112.798 93.5957 103.728 97.3718 95.3204C98.5152 92.7581 99.8129 90.2675 101.258 87.8624C120.777 53.8554 161.251 43.4854 190.671 60.2184C246.054 91.7254 212.374 139.393 219.674 189.73Z" fill="url(#paint0_linear)"/>
<path d="M118.8 93.5526C99.9169 120.871 109.135 148.124 135.887 158.811C149.138 164.104 165.556 172.326 173.036 184.483C178.436 193.271 183.078 201.058 188.272 217.783C189.322 221.228 190.584 224.605 192.05 227.895C195.05 227.079 198.22 226.054 201.397 224.842C204.839 223.533 208.205 222.032 211.479 220.348C207.26 207.391 199.825 185.785 197.89 175.99C195.728 165.046 196.604 151.746 202.755 142.437C206.818 136.293 210.862 129.228 211.148 122.042C212.866 78.9806 141.891 60.1456 118.8 93.5526Z" fill="white"/>
<path d="M224.042 229.299C224.27 229.499 223.649 230.665 222.442 232.199C220.946 234.059 219.307 235.799 217.542 237.405C215.632 239.183 213.595 240.832 212.013 242.035C210.431 243.238 209.313 244.007 209.243 244.052C209.173 244.097 207.997 244.774 206.228 245.679C204.459 246.584 202.089 247.703 199.661 248.658C197.446 249.553 195.162 250.267 192.832 250.793C190.919 251.202 189.593 251.226 189.519 250.932C189.445 250.638 190.576 250.032 192.24 249.145C193.904 248.258 196.112 247.074 198.271 245.796C200.43 244.518 202.55 243.166 204.132 242.102L206.844 240.245L209.693 238.599C211.337 237.628 213.481 236.308 215.568 234.91C217.655 233.512 219.696 232.053 221.228 230.94C222.76 229.827 223.805 229.089 224.042 229.299Z" fill="black"/>
<path d="M205.168 254.443C204.934 253.85 207.908 252.074 210.644 250.014C212.019 248.993 213.376 247.965 214.367 247.135C215.375 246.335 216.021 245.735 216.072 245.714C216.123 245.693 216.857 245.214 217.936 244.514C219.015 243.814 220.416 242.838 221.775 241.809C223.134 240.78 224.475 239.725 225.511 238.933C226.547 238.141 227.274 237.621 227.531 237.808C227.788 237.995 227.503 238.877 226.843 240.07C226.007 241.501 225.045 242.855 223.967 244.115C222.889 245.392 221.739 246.607 220.523 247.754C219.512 248.697 218.792 249.311 218.741 249.338C218.69 249.365 217.908 249.9 216.694 250.567C215.242 251.39 213.744 252.131 212.207 252.786C208.885 254.238 205.384 255.007 205.168 254.443Z" fill="black"/>
<path d="M180.2 181.065C179.661 180.412 179.202 179.698 178.831 178.937L175.256 172.78C172.136 167.506 167.616 159.98 161.447 151.489C158.176 146.907 154.585 142.562 150.699 138.489C148.57 136.311 146.262 134.317 143.799 132.527C141.313 130.597 138.627 128.938 135.787 127.581C135.115 127.286 134.415 127.063 133.697 126.914C133.454 126.86 133.204 126.84 132.956 126.855C132.778 126.867 132.608 126.934 132.47 127.046C132.339 127.166 132.255 127.329 132.233 127.505C132.205 127.712 132.215 127.922 132.262 128.126C132.407 128.826 132.648 129.503 132.98 130.136C134.369 132.773 136.98 134.98 139.742 136.775C142.576 138.588 145.646 140.001 148.866 140.975C150.457 141.464 152.091 141.801 153.746 141.982C155.307 142.175 156.889 142.087 158.42 141.724C159.061 141.586 159.663 141.307 160.183 140.906C160.702 140.505 161.125 139.993 161.42 139.407C161.699 138.791 161.861 138.128 161.898 137.452L161.878 135.045C161.566 131.8 160.514 128.669 158.803 125.893C155.281 120.366 150.401 115.834 144.63 112.729C143.93 112.341 143.216 111.991 142.516 111.622C141.816 111.253 141.078 110.969 140.367 110.64C139.656 110.311 138.912 110.077 138.193 109.79L137.651 109.59C137.487 109.538 137.351 109.49 137.195 109.451C136.891 109.37 136.582 109.31 136.27 109.27C135.722 109.191 135.164 109.211 134.623 109.329C134.463 109.373 134.31 109.438 134.168 109.524C134.113 109.572 134.065 109.628 134.026 109.689C133.99 109.776 133.971 109.869 133.972 109.963C133.978 110.157 134.012 110.349 134.072 110.533C134.291 111.15 134.561 111.748 134.879 112.321C137.372 117.173 141.077 121.299 145.634 124.298C147.654 125.633 149.824 126.727 152.098 127.559C153.145 127.937 154.211 128.26 155.292 128.527C156.236 128.727 157.2 128.819 158.166 128.799C159.883 128.807 161.575 128.389 163.091 127.582C164.239 126.961 165.131 125.954 165.607 124.738C166.025 123.659 166.211 122.505 166.152 121.349C166.123 120.359 166.019 119.373 165.841 118.399C165.67 117.439 165.449 116.489 165.181 115.552C164.773 114.066 164.25 112.613 163.617 111.208C162.996 109.775 162.189 108.43 161.217 107.208C160.771 106.623 160.197 106.147 159.54 105.817C159.37 105.738 159.182 105.706 158.996 105.723C158.764 105.792 158.548 105.906 158.36 106.058C158.36 106.094 158.36 106.033 158.308 106.158C158.246 106.365 158.214 106.58 158.214 106.796C158.215 107.505 158.307 108.211 158.489 108.896C158.949 110.626 159.592 112.302 160.407 113.896C162.306 117.657 164.677 121.161 167.463 124.322C168.968 126.054 170.624 127.649 172.411 129.088C174.193 130.562 176.212 131.724 178.381 132.526C180.409 133.315 182.667 133.273 184.665 132.407C186.744 131.272 188.429 129.531 189.497 127.416C190.772 125.077 191.761 122.592 192.442 120.016L192.965 118.016C193.116 117.359 193.253 116.705 193.365 116.04C193.581 114.712 193.688 113.368 193.684 112.022C193.705 109.34 193.163 106.683 192.095 104.222C191.589 103.062 190.878 102.002 189.995 101.095C189.669 100.718 189.267 100.414 188.815 100.204C188.363 99.9946 187.871 99.8837 187.373 99.8791C186.886 99.9788 186.427 100.185 186.029 100.483C185.631 100.782 185.305 101.164 185.073 101.604C184.393 102.733 183.88 103.955 183.552 105.232C182.849 107.994 182.422 110.818 182.277 113.664C181.97 119.425 182.049 125.199 182.512 130.949C183.362 141.791 184.782 152.58 186.765 163.273C188.565 173.246 190.59 182.244 192.489 189.79C194.388 197.336 196.17 203.435 197.464 207.645C198.758 211.855 199.531 214.195 199.399 214.245C199.059 213.749 198.79 213.209 198.599 212.639C198.142 211.563 197.499 209.964 196.739 207.89C195.204 203.746 193.182 197.696 191.052 190.176C188.922 182.656 186.67 173.669 184.646 163.676C182.423 152.936 180.79 142.083 179.755 131.164C179.185 125.288 179.013 119.38 179.241 113.48C179.353 110.418 179.772 107.375 180.49 104.396C180.882 102.797 181.509 101.266 182.351 99.8511C182.838 99.0592 183.46 98.3581 184.188 97.7791C185.01 97.1382 185.989 96.7306 187.023 96.5991C188.056 96.4896 189.1 96.6649 190.042 97.1061C190.881 97.4975 191.65 98.0249 192.317 98.6671C193.517 99.8485 194.49 101.24 195.188 102.772C196.501 105.662 197.191 108.797 197.213 111.972C197.237 113.514 197.135 115.056 196.908 116.582C196.796 117.339 196.649 118.09 196.487 118.83C196.31 119.546 196.148 120.263 195.957 120.975C195.229 123.854 194.155 126.635 192.757 129.255C191.342 132.066 189.098 134.375 186.329 135.87C184.869 136.579 183.271 136.956 181.649 136.975C180.12 136.987 178.599 136.747 177.149 136.263C174.531 135.346 172.088 133.989 169.927 132.251C167.934 130.685 166.083 128.945 164.398 127.051C161.332 123.648 158.716 119.865 156.614 115.795C155.639 113.93 154.868 111.965 154.314 109.934C154.028 108.872 153.885 107.777 153.888 106.677C153.895 106.026 154.001 105.38 154.201 104.76C154.457 103.997 154.905 103.312 155.501 102.771C156.269 102.108 157.191 101.647 158.183 101.431C159.176 101.255 160.198 101.361 161.134 101.737C162.471 102.312 163.648 103.205 164.562 104.337C165.266 105.165 165.894 106.055 166.436 106.997C166.885 107.758 167.295 108.542 167.665 109.345C168.411 110.956 169.027 112.624 169.507 114.334C169.812 115.422 170.059 116.526 170.247 117.64C170.455 118.842 170.571 120.059 170.594 121.279C170.65 123.04 170.336 124.793 169.673 126.425C168.804 128.534 167.237 130.281 165.234 131.372C163.075 132.524 160.662 133.116 158.215 133.095C156.903 133.109 155.594 132.968 154.315 132.677C153.064 132.357 151.832 131.971 150.623 131.52C148.053 130.55 145.605 129.283 143.33 127.745C138.22 124.306 134.088 119.601 131.338 114.09C130.919 113.307 130.572 112.488 130.3 111.642C130.13 111.081 130.045 110.498 130.049 109.912C130.061 109.22 130.228 108.54 130.539 107.921C130.874 107.288 131.354 106.742 131.939 106.328C132.463 105.982 133.042 105.727 133.651 105.573C134.672 105.339 135.728 105.299 136.764 105.454C137.25 105.521 137.731 105.621 138.203 105.754C138.436 105.816 138.683 105.901 138.903 105.975L139.495 106.206C140.28 106.526 141.095 106.794 141.862 107.164C142.629 107.534 143.427 107.859 144.187 108.264C144.947 108.669 145.713 109.064 146.465 109.491C149.519 111.239 152.366 113.329 154.949 115.72C157.635 118.175 159.941 121.016 161.792 124.149C163.727 127.399 164.89 131.05 165.192 134.821C165.203 135.78 165.204 136.726 165.175 137.7C165.095 138.789 164.813 139.853 164.341 140.838C164.092 141.353 163.784 141.837 163.423 142.281C163.049 142.712 162.628 143.099 162.167 143.434C161.287 144.068 160.296 144.532 159.245 144.8C157.329 145.245 155.349 145.339 153.4 145.076C151.554 144.849 149.734 144.447 147.964 143.876C144.496 142.772 141.198 141.192 138.164 139.182C136.647 138.181 135.224 137.043 133.915 135.782C132.551 134.499 131.415 132.995 130.554 131.332C130.116 130.453 129.807 129.515 129.636 128.547C129.532 127.923 129.548 127.285 129.684 126.667C129.824 126.031 130.166 125.458 130.658 125.031C131.162 124.622 131.775 124.37 132.421 124.308C133.002 124.251 133.589 124.285 134.161 124.408C135.065 124.606 135.945 124.901 136.787 125.287C139.779 126.772 142.6 128.58 145.199 130.678C147.72 132.583 150.076 134.698 152.241 137C156.109 141.226 159.662 145.73 162.871 150.475C167.685 157.499 172.084 164.8 176.044 172.339C177.47 175.065 178.544 177.226 179.234 178.724C179.646 179.464 179.97 180.25 180.2 181.065Z" fill="black"/>
<path d="M204.388 233.325C204.736 233.835 203.402 235.42 201.862 236.803C201.099 237.503 200.287 238.144 199.662 238.62C199.037 239.096 198.593 239.398 198.562 239.411C198.531 239.424 198.035 239.621 197.289 239.867C196.543 240.113 195.55 240.414 194.543 240.651C192.526 241.134 190.455 241.315 190.243 240.734C190.031 240.153 191.643 238.934 193.226 237.756L195.426 236.165L196.47 235.429L197.67 234.985L200.233 234.071C202.11 233.435 204.037 232.808 204.388 233.325Z" fill="black"/>
<path d="M159.985 123.9L159.232 124.155L159.003 124.23L158.941 124.251L158.925 124.256L160.35 124.956C160.35 124.956 160.181 124.481 159.974 123.896C159.767 123.311 159.616 122.829 159.616 122.829L161.041 123.529L161.025 123.535L160.963 123.557L160.736 123.639L159.985 123.9Z" fill="black"/>
<path d="M244.793 165.205C245.065 164.647 264.585 173.592 264.893 173.744C265.201 173.896 284.27 183.744 283.999 184.298C283.728 184.852 264.22 175.919 263.908 175.767C263.596 175.615 244.521 165.764 244.793 165.205Z" fill="black"/>
<path d="M46.7544 68.753C47.0264 68.195 63.7164 75.762 63.9824 75.891C64.2484 76.02 80.4823 84.491 80.2133 85.046C79.9443 85.601 63.2634 78.046 62.9974 77.914C62.7314 77.782 46.4824 69.312 46.7544 68.753Z" fill="black"/>
<path d="M159.985 123.9L159.232 124.155L159.003 124.23L158.941 124.251L158.925 124.256L160.35 124.956C160.35 124.956 160.181 124.481 159.974 123.896C159.767 123.311 159.616 122.829 159.616 122.829L161.041 123.529L161.025 123.535L160.963 123.557L160.736 123.639L159.985 123.9Z" fill="black"/>
<path d="M159.976 123.907L159.223 124.16L159.153 124.182L159.122 124.192L159.106 124.197H159.099L159.669 123.013L159.638 122.913L159.611 122.829L159.643 122.912C159.652 122.938 159.665 122.971 159.678 123.012L159.108 124.196H159.115L159.13 124.19L159.162 124.179L159.23 124.154L159.979 123.888L160.734 123.635L160.803 123.613L160.834 123.602H160.85H160.857C160.666 124.002 160.475 124.394 160.287 124.786C160.299 124.824 160.31 124.857 160.318 124.886L160.345 124.971L160.314 124.888L160.278 124.788C160.466 124.397 160.657 124.002 160.848 123.604H160.841H160.826L160.794 123.616L160.727 123.641L159.976 123.907Z" fill="black"/>
<path d="M50.0276 225.637C49.6066 225.181 71.0566 204.645 71.4086 204.319C71.7606 203.993 93.8796 184.212 94.2996 184.667C94.7196 185.122 73.2866 205.645 72.9346 205.967C72.5826 206.289 50.4506 226.093 50.0276 225.637Z" fill="black"/>
<path d="M226.278 62.5548C225.856 62.0988 252.438 36.8158 252.878 36.4128C253.318 36.0098 280.56 11.4848 280.978 11.9398C281.396 12.3948 254.836 37.6618 254.4 38.0648C253.964 38.4678 226.7 63.0108 226.278 62.5548Z" fill="black"/>
<path d="M159.977 123.907L159.724 123.153L159.702 123.084L159.691 123.052V123.037V123.029L159.111 124.208L159.011 124.24L158.927 124.266L159.009 124.235L159.109 124.199L159.689 123.02V123.027V123.042L159.701 123.074L159.726 123.142L159.992 123.891C160.092 124.191 160.18 124.453 160.245 124.646L160.267 124.715L160.277 124.747L160.282 124.762V124.769L160.862 123.591L160.962 123.559L161.047 123.532L160.964 123.564L160.864 123.6C160.672 123.989 160.478 124.382 160.284 124.778V124.771L160.278 124.756L160.267 124.725L160.242 124.657C160.175 124.465 160.081 124.2 159.977 123.907Z" fill="black"/>
<path d="M1.23266e-05 117.688C0.0240123 117.068 35.093 117.924 35.659 117.946C36.225 117.968 71.23 119.83 71.206 120.446C71.182 121.062 36.138 120.212 35.572 120.19C35.006 120.168 -0.0239877 118.309 1.23266e-05 117.688Z" fill="black"/>
<path d="M260.053 127.775C260.077 127.154 291.278 127.861 291.781 127.88C292.284 127.899 323.424 129.612 323.4 130.232C323.376 130.852 292.2 130.148 291.694 130.132C291.188 130.116 260.029 128.399 260.053 127.775Z" fill="black"/>
<path d="M159.974 123.9C159.774 123.312 159.616 122.834 159.616 122.834C159.616 122.834 159.784 123.309 159.992 123.894C160.2 124.479 160.35 124.961 160.35 124.961C160.35 124.961 160.181 124.483 159.974 123.9Z" fill="black"/>
<path d="M100.472 246.087C99.914 245.816 109.383 225.223 109.543 224.894C109.703 224.565 120.072 204.428 120.629 204.7C121.186 204.972 111.729 225.55 111.566 225.879C111.403 226.208 101.03 246.359 100.472 246.087Z" fill="black"/>
<path d="M159.976 123.907L159.223 124.16L159.153 124.182L159.122 124.192L159.106 124.197H159.099L159.669 123.013L159.638 122.913L159.611 122.829L159.643 122.912C159.652 122.938 159.665 122.971 159.678 123.012L159.108 124.196H159.115L159.13 124.19L159.162 124.179L159.23 124.154L159.979 123.888L160.734 123.635L160.803 123.613L160.834 123.602H160.85H160.857C160.666 124.002 160.475 124.394 160.287 124.786C160.299 124.824 160.31 124.857 160.318 124.886L160.345 124.971L160.314 124.888L160.278 124.788C160.466 124.397 160.657 124.002 160.848 123.604H160.841H160.826L160.794 123.616L160.727 123.641L159.976 123.907Z" fill="black"/>
<path d="M17.2393 173.137C17.0393 172.551 45.6953 162.131 46.1613 161.97C46.6273 161.809 75.5943 152.35 75.7963 152.936C75.9983 153.522 47.3603 163.936 46.8963 164.097C46.4323 164.258 17.4423 173.725 17.2393 173.137Z" fill="black"/>
<path d="M245.718 94.3163C245.518 93.7293 276.755 82.4163 277.262 82.2443C277.769 82.0723 309.315 71.7193 309.518 72.3063C309.721 72.8933 278.5 84.1993 278 84.3713C277.5 84.5433 245.92 94.9043 245.718 94.3163Z" fill="black"/>
<path d="M159.974 123.9C159.774 123.312 159.616 122.834 159.616 122.834C159.616 122.834 159.784 123.309 159.992 123.894C160.2 124.479 160.35 124.961 160.35 124.961C160.35 124.961 160.181 124.483 159.974 123.9Z" fill="black"/>
<path d="M159.985 123.899L158.919 124.257L159.979 123.881L161.046 123.523L159.985 123.899Z" fill="black"/>
<path d="M190.1 39.2353C189.542 38.9633 197.486 21.5033 197.622 21.2243C197.758 20.9453 206.601 3.93826 207.159 4.21026C207.717 4.48226 199.78 21.9313 199.644 22.2103C199.508 22.4893 190.663 39.5073 190.1 39.2353Z" fill="black"/>
<path d="M114.833 -0.000313775C115.42 -0.200314 122.221 17.9657 122.323 18.2617C122.425 18.5577 128.269 37.0427 127.682 37.2447C127.095 37.4467 120.3 19.2937 120.2 18.9997C120.1 18.7057 114.246 0.199686 114.833 -0.000313775Z" fill="black"/>
<path d="M218.708 189.989C219.6 195.675 221.056 201.258 223.055 206.655C223.516 207.501 223.804 208.428 223.905 209.385C223.798 210.014 223.525 210.604 223.114 211.091C221.867 212.649 220.385 214.002 218.721 215.102C214.017 218.366 208.95 221.072 203.621 223.165C197.987 225.534 192.128 227.329 186.134 228.521C183.461 229.099 180.732 229.376 177.998 229.347C176.852 229.307 174.481 229.264 173.919 227.959C173.667 227.373 173.019 227.407 172.512 227.602L172.457 227.623L173.863 227.98C169.761 216.83 163.373 206.66 155.109 198.122C148.433 191.403 140.597 186.122 132.467 181.337C125.213 177.064 117.68 173.115 111.082 167.837C104.114 162.345 98.8828 154.956 96.017 146.559C90.9125 131.692 90.9755 115.536 96.196 100.708C96.827 98.9295 97.534 97.1805 98.301 95.4555L97.811 95.9365C98.268 95.7625 98.411 95.2025 98.595 94.8105C98.953 94.0265 99.3266 93.2501 99.716 92.4815C100.487 90.9565 101.316 89.4665 102.191 87.9965L101.701 88.4775C102.365 88.2245 102.79 86.9685 103.131 86.4085C103.787 85.3305 104.471 84.2698 105.184 83.2265C106.421 81.4105 107.738 79.6518 109.134 77.9505C111.855 74.6338 114.874 71.5743 118.155 68.8105C124.437 63.5071 131.637 59.4002 139.4 56.6935C154.321 51.4324 170.684 52.0372 185.176 58.3855C193.444 62.1148 200.94 67.3607 207.276 73.8515C212.469 79.1712 216.443 85.5568 218.922 92.5655C223.742 106.445 222.422 121.528 220.813 135.851C219.013 151.83 216.655 167.851 218.019 183.962C218.189 185.978 218.418 187.987 218.706 189.989C218.843 190.94 220.779 190.451 220.638 189.471C218.266 172.912 220.367 156.265 222.309 139.781C224.036 125.117 225.878 109.73 221.859 95.2685C219.879 88.1368 216.391 81.5135 211.63 75.8465C205.65 68.986 198.448 63.2959 190.39 59.0655C176.27 51.5613 159.846 49.6361 144.374 53.6715C127.947 57.9769 113.608 68.0273 103.957 81.9995C102.666 83.8555 101.465 85.7725 100.335 87.7305L100.824 87.2495C100.4 87.4115 100.183 87.9785 99.978 88.3295C99.5473 89.0628 99.129 89.8055 98.723 90.5575C97.905 92.0728 97.1456 93.6168 96.445 95.1895L96.935 94.7085C96.378 94.9205 96.21 95.7085 96.003 96.1875C95.631 97.0541 95.276 97.9281 94.938 98.8095C94.2367 100.64 93.6133 102.498 93.068 104.383C89.8297 115.464 89.3658 127.17 91.717 138.471C93.86 148.79 98.105 158.271 105.749 165.632C111.828 171.489 119.243 175.701 126.504 179.896C134.639 184.596 142.729 189.422 149.796 195.669C158.467 203.444 165.347 213.007 169.962 223.699C170.662 225.283 171.31 226.885 171.93 228.499C172.158 229.094 172.846 229.043 173.336 228.856L173.392 228.835L171.986 228.478C173.344 231.632 178.937 230.957 181.581 230.689C187.964 229.923 194.228 228.367 200.229 226.058C206.341 223.899 212.198 221.077 217.696 217.644C219.89 216.309 221.919 214.72 223.741 212.909C224.704 211.909 225.814 210.575 225.88 209.109C225.935 207.871 225.144 206.588 224.744 205.457C224.119 203.692 223.541 201.912 223.01 200.116C221.975 196.627 221.184 193.07 220.64 189.47C220.5 188.52 218.563 189.01 218.708 189.989Z" fill="black"/>
<defs>
<linearGradient id="paint0_linear" x1="91.2266" y1="52.3652" x2="231.582" y2="52.3652" gradientUnits="userSpaceOnUse">
<stop offset="0.177083" stop-color="#8F6AFA"/>
<stop offset="0.651042" stop-color="#375CDC"/>
<stop offset="1" stop-color="#0099EE"/>
</linearGradient>
</defs>
</svg>
