<svg width="1337" height="1153" viewBox="0 0 1337 1153" fill="none" xmlns="http://www.w3.org/2000/svg">
<circle cx="482" cy="661" r="479.5" fill="#B2B2B2" stroke="black" stroke-width="5"/>
<circle cx="482" cy="661" r="444.5" fill="white" stroke="black" stroke-width="5"/>
<circle cx="479" cy="661" r="441.5" fill="black" stroke="black" stroke-width="5"/>
<g clip-path="url(#clip0)">
<path d="M1002.75 277.285C1002.75 277.284 1002.75 277.284 1002.75 277.284L1003.53 273.821C1017.74 210.667 1032 147.244 1049.83 84.908C1050 84.349 1050.3 84.0381 1050.63 83.8816C1050.97 83.7197 1051.39 83.6998 1051.8 83.8219C1052.64 84.0691 1053.31 84.8357 1053.2 85.8211C1042.38 148.391 1028.01 210.369 1013.63 272.341C1013.06 274.825 1012.48 277.309 1011.9 279.794C1011.53 281.305 1010.7 282.244 1009.7 282.742C1008.69 283.246 1007.47 283.318 1006.31 283.003C1004 282.374 1002.1 280.262 1002.75 277.285Z" fill="url(#paint0_linear)" stroke="black"/>
<path d="M585.526 545.632L585.544 545.633H585.562C585.863 545.633 586.053 545.744 586.176 545.887C586.308 546.042 586.388 546.267 586.388 546.52C586.388 547.028 586.085 547.474 585.522 547.528C584.963 547.565 584.407 547.594 583.853 547.622C582.066 547.714 580.304 547.805 578.555 548.179C577.808 548.313 577.314 548.12 577.004 547.832C576.679 547.529 576.5 547.068 576.5 546.58C576.5 546.092 576.679 545.63 577.004 545.328C577.315 545.038 577.811 544.846 578.562 544.982L578.571 544.984L578.581 544.985C580.709 545.289 582.976 545.45 585.099 545.601C585.242 545.612 585.384 545.622 585.526 545.632Z" fill="url(#paint1_linear)" stroke="black"/>
<path d="M1076.51 67.3427L1076.51 67.3433C1066.85 75.2336 1057.84 83.7651 1048.84 92.4456C1047.93 93.3231 1046.98 93.6238 1046.12 93.5706C1045.26 93.5167 1044.45 93.0968 1043.83 92.4428C1042.59 91.1355 1042.21 88.9766 1043.78 87.1891L1043.79 87.1825L1043.79 87.1757C1051.79 77.4097 1061.4 68.7583 1071.82 61.2238L1071.82 61.2238L1071.82 61.221C1081.65 53.9734 1092.97 45.6844 1104.75 42.8192L1104.76 42.8157L1104.78 42.8113C1105.55 42.5739 1106.34 42.9765 1106.78 43.6815C1107.21 44.3718 1107.21 45.2164 1106.55 45.8203C1102 49.8906 1096.89 53.3278 1091.7 56.7235C1091.22 57.0416 1090.73 57.3595 1090.24 57.6774C1085.55 60.7471 1080.83 63.8288 1076.51 67.3427Z" fill="url(#paint2_linear)" stroke="black"/>
<path d="M1067.37 221.958H1067.37L1067.37 221.952C1076.2 160.241 1087.77 97.412 1104 37.1598C1104.2 36.3977 1104.61 35.9457 1105.07 35.7097C1105.53 35.4688 1106.09 35.4299 1106.63 35.5811C1107.7 35.8822 1108.59 36.904 1108.32 38.3859L1108.32 38.3859L1108.32 38.3973C1101.58 81.0494 1094.01 123.698 1086.44 166.353C1082.99 185.743 1079.55 205.135 1076.18 224.529C1075.93 225.997 1075.2 226.88 1074.31 227.336C1073.4 227.801 1072.25 227.854 1071.13 227.53C1068.88 226.877 1066.93 224.782 1067.37 221.958Z" fill="url(#paint3_linear)" stroke="black"/>
<path d="M1128.24 26.3876L1128.24 26.3897C1125.03 81.493 1115.88 141.566 1099.34 194.079C1098.95 195.241 1097.73 195.806 1096.56 195.666C1095.98 195.597 1095.46 195.358 1095.09 194.973C1094.73 194.598 1094.5 194.053 1094.53 193.299C1098.87 137.876 1108.82 79.7151 1120.07 25.237C1120.56 23.0047 1122.61 22.1162 1124.63 22.4128C1126.66 22.7102 1128.38 24.1598 1128.24 26.3876Z" fill="url(#paint4_linear)" stroke="black"/>
<path d="M1207.63 -12.3655L1207.63 -12.3641C1197.43 -2.87386 1184.72 3.48019 1172.21 9.73666C1170.61 10.5401 1169 11.342 1167.41 12.1487C1164.38 13.6642 1161.34 15.253 1158.28 16.8508C1147.35 22.5669 1136.19 28.3982 1124.44 31.3995C1124.06 31.4943 1123.62 31.2835 1123.39 30.8861C1123.27 30.6971 1123.23 30.4912 1123.25 30.2967C1123.28 30.1088 1123.37 29.896 1123.61 29.6887L1123.61 29.6839L1123.62 29.6788C1132.58 21.3563 1143.79 15.0881 1154.77 8.94761C1157.5 7.41671 1160.23 5.89376 1162.9 4.34888C1164.83 3.24618 1166.76 2.11887 1168.71 0.985727C1180.42 -5.83202 1192.5 -12.8611 1205.51 -16.0129L1205.51 -16.0128L1205.53 -16.0158C1206.47 -16.2683 1207.43 -15.7703 1207.95 -14.948C1208.45 -14.147 1208.46 -13.1367 1207.63 -12.3655Z" fill="url(#paint5_linear)" stroke="black"/>
<path d="M1171.8 141.766L1171.8 141.767C1171.36 145.161 1168.44 146.961 1165.68 146.998C1164.3 147.017 1163.02 146.594 1162.13 145.762C1161.25 144.943 1160.71 143.678 1160.9 141.886C1161.4 137.485 1161.9 132.988 1162.41 128.416C1164.73 107.512 1167.21 85.0468 1171.3 63.0392C1176.28 36.2189 1183.62 10.1207 1195.87 -11.5899C1196.06 -11.9255 1196.41 -12.0259 1196.73 -11.9383C1197.03 -11.8529 1197.23 -11.6136 1197.19 -11.2561L1197.19 -11.2288L1197.19 -11.2012C1196.95 5.00429 1193.3 20.9354 1189.65 36.8573C1188.24 42.9866 1186.83 49.1146 1185.62 55.2563L1185.62 55.2592C1180.16 83.8823 1175.66 112.825 1171.8 141.766Z" fill="url(#paint6_linear)" stroke="black"/>
<path d="M1148.41 297.859L1148.42 297.861C1149.68 298.606 1150.39 299.581 1150.68 300.591C1150.97 301.608 1150.86 302.696 1150.42 303.676C1149.54 305.638 1147.39 307.097 1144.75 306.584C1133.93 304.421 1123.35 301.054 1112.75 297.578C1111.85 297.283 1110.95 296.987 1110.05 296.691C1100.34 293.503 1090.6 290.301 1080.65 287.942C1066.48 284.583 1052.15 282.247 1037.84 279.915C1030.23 278.675 1022.63 277.435 1015.06 276.043C1013.75 275.788 1012.89 275.101 1012.39 274.229C1011.88 273.345 1011.72 272.238 1011.88 271.144C1012.22 268.934 1013.84 266.997 1016.23 267.068L1016.24 267.068L1016.25 267.068C1058.47 266.907 1112.04 275.903 1148.41 297.859Z" fill="url(#paint7_linear)" stroke="black"/>
<path d="M1139.33 306.605L1139.32 306.608L1139.31 306.612C1138.96 306.759 1138.7 306.716 1138.51 306.608C1138.31 306.491 1138.12 306.261 1138.01 305.944C1137.78 305.295 1137.93 304.516 1138.5 304.113C1161.78 289.343 1186.34 276.495 1211.39 264.769L1211.39 264.769C1213.68 263.698 1215.83 264.818 1216.86 266.577C1217.37 267.454 1217.57 268.454 1217.38 269.367C1217.19 270.266 1216.61 271.132 1215.45 271.751C1190.71 284.765 1165.5 296.81 1139.33 306.605Z" fill="url(#paint8_linear)" stroke="black"/>
<path d="M1149.01 235.542C1158.11 238.278 1167.27 240.909 1176.44 243.542C1195.32 248.962 1214.23 254.392 1232.71 260.772C1235.64 261.797 1236.52 264.478 1235.89 266.758C1235.58 267.9 1234.89 268.917 1233.92 269.556C1232.95 270.189 1231.66 270.473 1230.1 270.101C1208.17 264.865 1186.53 258.277 1164.86 251.681C1158.61 249.776 1152.35 247.87 1146.08 245.997L1146.08 245.996C1141.78 244.724 1137.46 243.493 1133.12 242.259C1112.78 236.468 1092.27 230.631 1074.04 220.329C1073.38 219.9 1073.15 219.099 1073.34 218.397C1073.53 217.719 1074.09 217.175 1075.03 217.237C1095.29 218.777 1114.93 224.933 1134.42 231.045C1139.29 232.571 1144.15 234.094 1149.01 235.542ZM1149.01 235.542C1149.01 235.542 1149.01 235.542 1149.01 235.542L1149.15 235.063M1149.01 235.542C1149.01 235.542 1149.01 235.542 1149.01 235.542L1149.15 235.063M1149.15 235.063C1158.24 237.795 1167.39 240.424 1176.56 243.056C1195.44 248.478 1214.38 253.915 1232.88 260.299L1075.07 216.739C1095.39 218.283 1115.1 224.461 1134.6 230.575C1139.46 232.1 1144.31 233.62 1149.15 235.063Z" fill="url(#paint9_linear)" stroke="black"/>
<path d="M1188.37 209.835L1188.36 209.834C1165.37 201.953 1142.05 195.359 1118.59 188.929C1117.16 188.524 1116.27 187.701 1115.81 186.736C1115.34 185.76 1115.29 184.596 1115.6 183.5C1116.23 181.306 1118.26 179.517 1121.09 180.095C1166.1 190.064 1220.32 202.748 1259.28 228.087L1259.29 228.089C1261.06 229.225 1261.38 231.162 1260.74 232.72C1260.1 234.275 1258.52 235.392 1256.46 234.898C1244.85 231.933 1233.54 227.644 1222.28 223.105C1219.77 222.094 1217.26 221.071 1214.76 220.047C1206.01 216.476 1197.25 212.9 1188.37 209.835Z" fill="url(#paint10_linear)" stroke="black"/>
<path d="M1270.01 213.295L1270.01 213.296C1267.18 215.599 1264.45 218.092 1261.74 220.574C1261.13 221.136 1260.51 221.697 1259.9 222.255C1256.57 225.287 1253.21 228.243 1249.62 230.796C1249.32 231.007 1249.05 231.049 1248.83 231.01C1248.59 230.97 1248.36 230.834 1248.15 230.609C1247.75 230.153 1247.57 229.437 1247.8 228.837C1255.62 213.374 1273.67 197.707 1289.32 190.513C1291 189.817 1292.99 190.545 1294.13 191.85C1294.69 192.494 1295.01 193.238 1295 193.956C1294.98 194.658 1294.66 195.408 1293.79 196.092C1290.07 199.038 1286.16 201.723 1282.25 204.41C1282.12 204.497 1282 204.584 1281.87 204.672C1277.83 207.443 1273.8 210.226 1270.01 213.295Z" fill="url(#paint11_linear)" stroke="black"/>
<path d="M1247.59 152.753L1247.59 152.753C1239.86 151.346 1231.86 150.283 1223.82 149.214C1218.99 148.571 1214.14 147.927 1209.33 147.204C1196.49 145.278 1183.84 142.793 1172.16 138.315C1171.8 138.155 1171.53 137.737 1171.51 137.336C1171.49 137.144 1171.54 136.998 1171.6 136.905C1171.67 136.821 1171.78 136.73 1172.03 136.703L1172.04 136.701L1172.05 136.699C1191.8 133.407 1212.33 136.773 1232.34 140.055C1234.7 140.442 1237.05 140.827 1239.39 141.2C1240.36 141.358 1241.33 141.515 1242.31 141.673C1270.19 146.185 1299.09 150.86 1325.43 160.625C1326.73 161.108 1327.54 161.89 1327.97 162.754C1328.4 163.624 1328.46 164.61 1328.2 165.525C1327.68 167.345 1325.9 168.867 1323.26 168.502C1310.59 166.577 1298.03 163.808 1285.46 160.935C1283.82 160.561 1282.18 160.185 1280.54 159.809C1269.61 157.298 1258.65 154.782 1247.59 152.753Z" fill="url(#paint12_linear)" stroke="black"/>
<path d="M1291.03 193.027L1291.03 193.025C1304.82 182.6 1319.42 173.935 1334.67 165.906C1335.05 165.719 1335.35 165.721 1335.57 165.797C1335.81 165.875 1336.01 166.049 1336.13 166.283C1336.39 166.752 1336.33 167.386 1335.76 167.784L1335.75 167.791L1335.74 167.8C1322.4 178.252 1309.22 189.026 1296.35 199.961L1296.35 199.961L1296.35 199.966C1293.73 202.264 1291.15 204.701 1288.56 207.152L1288.31 207.397C1285.8 209.769 1283.29 212.149 1280.72 214.434C1275.39 219.163 1269.81 223.465 1263.53 226.409C1262.27 226.965 1261 226.646 1260.22 225.9C1259.45 225.166 1259.14 224.006 1259.83 222.767L1259.83 222.763C1265.95 211.531 1276.89 203.467 1287.31 195.78C1288.56 194.858 1289.8 193.942 1291.03 193.027Z" fill="url(#paint13_linear)" stroke="black"/>
<path d="M1327.16 167.867L1327.16 167.866C1300.16 161.919 1273.15 156.128 1245.81 152.107C1236.48 150.71 1226.94 149.855 1217.4 148.999C1213.2 148.623 1209.01 148.247 1204.83 147.824C1191.12 146.439 1177.54 144.554 1164.57 140.552C1163.85 140.308 1163.38 139.558 1163.35 138.796C1163.34 138.424 1163.43 138.088 1163.6 137.839C1163.78 137.599 1164.05 137.406 1164.49 137.344L1164.5 137.342L1164.51 137.34C1189.74 132.534 1218.88 134.533 1247.84 139.311C1275.16 143.818 1302.28 150.789 1325.77 156.828C1327.19 157.192 1328.59 157.552 1329.98 157.908L1329.98 157.909C1331.61 158.317 1332.62 159.229 1333.15 160.322C1333.69 161.428 1333.75 162.761 1333.4 164.019C1332.69 166.54 1330.38 168.598 1327.16 167.867Z" fill="url(#paint14_linear)" stroke="black"/>
<path d="M1258.23 224.998L1258.23 224.994C1261.73 217.834 1267.39 211.088 1273.7 204.836C1279.08 199.506 1284.91 194.555 1290.26 190.019C1291.18 189.235 1292.09 188.463 1292.98 187.703C1293.26 187.473 1293.53 187.241 1293.81 187.01C1305.16 177.546 1317.37 167.366 1331.08 161.908C1331.29 161.833 1331.42 161.857 1331.52 161.903C1331.63 161.955 1331.74 162.062 1331.82 162.228C1332 162.586 1331.97 163.008 1331.8 163.218C1326.68 169.537 1320.72 175.303 1314.56 180.945C1312.73 182.62 1310.88 184.286 1309.03 185.952C1304.66 189.887 1300.29 193.823 1296.16 197.894C1292.4 201.549 1288.76 205.603 1285.11 209.671C1283.53 211.432 1281.95 213.196 1280.36 214.932C1275.06 220.692 1269.59 226.162 1263.45 230.307L1263.45 230.307L1263.44 230.314C1262.58 230.926 1261.74 231.078 1261.01 230.95C1260.27 230.82 1259.57 230.393 1259.02 229.767C1257.9 228.501 1257.46 226.547 1258.23 224.998Z" fill="url(#paint15_linear)" stroke="black"/>
<path d="M1155.67 10.7056L1155.67 10.706C1152.49 12.3591 1149.29 14.1825 1146.08 16.0228L1145.85 16.1554C1142.7 17.9539 1139.54 19.7653 1136.32 21.4569C1129.75 24.9154 1122.99 27.8561 1115.85 29.1337C1115.68 29.1214 1115.45 29.0252 1115.3 28.8848C1115.24 28.829 1115.21 28.7839 1115.19 28.7577C1122.83 16.4558 1136.89 9.16718 1149.73 2.51042C1149.99 2.37666 1150.25 2.24316 1150.51 2.10988C1151.39 1.65235 1152.28 1.19091 1153.18 0.727026C1167.09 -6.48096 1182.14 -14.2775 1197.45 -17.1314L1197.45 -17.1313L1197.46 -17.1333C1199.53 -17.5605 1201.33 -16.3561 1202.09 -14.7191C1202.47 -13.9064 1202.58 -13.0148 1202.35 -12.1973C1202.12 -11.3886 1201.55 -10.608 1200.49 -10.0237L1200.49 -10.0206C1193.45 -6.01785 1185.92 -2.73251 1178.3 0.502596C1177.53 0.832312 1176.75 1.16152 1175.97 1.49092C1169.13 4.39012 1162.25 7.30391 1155.67 10.7056Z" fill="url(#paint16_linear)" stroke="black"/>
<path d="M1206.86 -18.3028L1206.86 -18.2915L1206.85 -18.28C1188.04 32.3844 1176.12 79.2341 1179.34 133.822C1179.41 135.252 1178.93 136.266 1178.2 136.928C1177.46 137.6 1176.42 137.946 1175.33 137.936C1173.13 137.918 1170.92 136.495 1170.7 133.759C1167.33 81.7452 1175.52 25.4332 1201.97 -20.2666C1202.69 -21.5119 1204.19 -21.7606 1205.45 -21.2584C1206.07 -21.0112 1206.57 -20.5984 1206.84 -20.0986C1207.1 -19.6143 1207.17 -19.011 1206.86 -18.3028Z" fill="url(#paint17_linear)" stroke="black"/>
<path d="M1034.88 170.05L1034.88 170.052C1033.36 180.554 1032.39 191.232 1031.43 201.918C1031.06 205.966 1030.69 210.016 1030.3 214.057C1028.85 228.778 1027.01 243.414 1023.32 257.6C1023.07 258.536 1022.6 259.112 1022.06 259.43C1021.52 259.752 1020.87 259.839 1020.2 259.708C1018.87 259.444 1017.6 258.314 1017.39 256.699C1010.65 203.124 1025.89 131.199 1042.92 80.4292C1043.36 79.1343 1044.11 78.3413 1044.95 77.929C1045.79 77.5134 1046.76 77.4645 1047.67 77.7339C1049.48 78.2716 1050.99 80.0596 1050.63 82.6073C1048.47 97.1416 1045.64 111.559 1042.8 126.008L1042.76 126.245C1039.91 140.77 1037.05 155.329 1034.88 170.05Z" fill="url(#paint18_linear)" stroke="black"/>
<circle cx="482.5" cy="661.5" r="360" fill="url(#paint19_linear)" stroke="black" stroke-width="5"/>
<circle cx="482" cy="669" r="244.5" fill="#F2F2F2" stroke="black" stroke-width="5"/>
<circle cx="482" cy="661" r="144.5" fill="url(#paint20_linear)" stroke="black" stroke-width="5"/>
<circle cx="482.5" cy="661.5" r="64" fill="white" stroke="black" stroke-width="5"/>
<path d="M489.452 668.325C552.287 643.249 609.337 590.526 663.816 550.662C720.544 509.191 776.629 467.076 832.233 424.158C946.011 336.554 1074.25 249.271 1172.28 144.146C1178.71 137.235 1170.19 124.697 1161.67 130.483C1046.93 208.604 944.243 309.55 834.161 394.743C774.219 441.197 713.634 486.687 652.566 531.373C597.766 571.398 528.825 607.565 483.506 658.038C479.81 662.217 483.346 670.897 489.452 668.325Z" fill="#444444"/>
</g>
<defs>
<linearGradient id="paint0_linear" x1="1002.12" y1="83.2432" x2="1056.29" y2="83.2432" gradientUnits="userSpaceOnUse">
<stop offset="0.177083" stop-color="#8F6AFA"/>
<stop offset="0.651042" stop-color="#375CDC"/>
<stop offset="1" stop-color="#0099EE"/>
</linearGradient>
<linearGradient id="paint1_linear" x1="576" y1="544.438" x2="587.432" y2="544.438" gradientUnits="userSpaceOnUse">
<stop offset="0.177083" stop-color="#8F6AFA"/>
<stop offset="0.651042" stop-color="#375CDC"/>
<stop offset="1" stop-color="#0099EE"/>
</linearGradient>
<linearGradient id="paint2_linear" x1="1042.24" y1="42.2417" x2="1110.84" y2="42.2417" gradientUnits="userSpaceOnUse">
<stop offset="0.177083" stop-color="#8F6AFA"/>
<stop offset="0.651042" stop-color="#375CDC"/>
<stop offset="1" stop-color="#0099EE"/>
</linearGradient>
<linearGradient id="paint3_linear" x1="1066.8" y1="34.9917" x2="1110.98" y2="34.9917" gradientUnits="userSpaceOnUse">
<stop offset="0.177083" stop-color="#8F6AFA"/>
<stop offset="0.651042" stop-color="#375CDC"/>
<stop offset="1" stop-color="#0099EE"/>
</linearGradient>
<linearGradient id="paint4_linear" x1="1094.03" y1="21.8584" x2="1130.49" y2="21.8584" gradientUnits="userSpaceOnUse">
<stop offset="0.177083" stop-color="#8F6AFA"/>
<stop offset="0.651042" stop-color="#375CDC"/>
<stop offset="1" stop-color="#0099EE"/>
</linearGradient>
<linearGradient id="paint5_linear" x1="1122.75" y1="-16.5825" x2="1213.1" y2="-16.5825" gradientUnits="userSpaceOnUse">
<stop offset="0.177083" stop-color="#8F6AFA"/>
<stop offset="0.651042" stop-color="#375CDC"/>
<stop offset="1" stop-color="#0099EE"/>
</linearGradient>
<linearGradient id="paint6_linear" x1="1160.36" y1="-12.4678" x2="1199.56" y2="-12.4678" gradientUnits="userSpaceOnUse">
<stop offset="0.177083" stop-color="#8F6AFA"/>
<stop offset="0.651042" stop-color="#375CDC"/>
<stop offset="1" stop-color="#0099EE"/>
</linearGradient>
<linearGradient id="paint7_linear" x1="1011.32" y1="266.566" x2="1158.35" y2="266.566" gradientUnits="userSpaceOnUse">
<stop offset="0.177083" stop-color="#8F6AFA"/>
<stop offset="0.651042" stop-color="#375CDC"/>
<stop offset="1" stop-color="#0099EE"/>
</linearGradient>
<linearGradient id="paint8_linear" x1="1137.41" y1="263.848" x2="1221.98" y2="263.848" gradientUnits="userSpaceOnUse">
<stop offset="0.177083" stop-color="#8F6AFA"/>
<stop offset="0.651042" stop-color="#375CDC"/>
<stop offset="1" stop-color="#0099EE"/>
</linearGradient>
<linearGradient id="paint9_linear" x1="1072.78" y1="216.732" x2="1244.77" y2="216.732" gradientUnits="userSpaceOnUse">
<stop offset="0.177083" stop-color="#8F6AFA"/>
<stop offset="0.651042" stop-color="#375CDC"/>
<stop offset="1" stop-color="#0099EE"/>
</linearGradient>
<linearGradient id="paint10_linear" x1="1114.91" y1="179.484" x2="1268.88" y2="179.484" gradientUnits="userSpaceOnUse">
<stop offset="0.177083" stop-color="#8F6AFA"/>
<stop offset="0.651042" stop-color="#375CDC"/>
<stop offset="1" stop-color="#0099EE"/>
</linearGradient>
<linearGradient id="paint11_linear" x1="1247.2" y1="189.743" x2="1297.91" y2="189.743" gradientUnits="userSpaceOnUse">
<stop offset="0.177083" stop-color="#8F6AFA"/>
<stop offset="0.651042" stop-color="#375CDC"/>
<stop offset="1" stop-color="#0099EE"/>
</linearGradient>
<linearGradient id="paint12_linear" x1="1171" y1="134.851" x2="1336.74" y2="134.851" gradientUnits="userSpaceOnUse">
<stop offset="0.177083" stop-color="#8F6AFA"/>
<stop offset="0.651042" stop-color="#375CDC"/>
<stop offset="1" stop-color="#0099EE"/>
</linearGradient>
<linearGradient id="paint13_linear" x1="1258.95" y1="165.249" x2="1340.67" y2="165.249" gradientUnits="userSpaceOnUse">
<stop offset="0.177083" stop-color="#8F6AFA"/>
<stop offset="0.651042" stop-color="#375CDC"/>
<stop offset="1" stop-color="#0099EE"/>
</linearGradient>
<linearGradient id="paint14_linear" x1="1162.85" y1="134.082" x2="1342.68" y2="134.082" gradientUnits="userSpaceOnUse">
<stop offset="0.177083" stop-color="#8F6AFA"/>
<stop offset="0.651042" stop-color="#375CDC"/>
<stop offset="1" stop-color="#0099EE"/>
</linearGradient>
<linearGradient id="paint15_linear" x1="1257.34" y1="161.36" x2="1336.2" y2="161.36" gradientUnits="userSpaceOnUse">
<stop offset="0.177083" stop-color="#8F6AFA"/>
<stop offset="0.651042" stop-color="#375CDC"/>
<stop offset="1" stop-color="#0099EE"/>
</linearGradient>
<linearGradient id="paint16_linear" x1="1114.69" y1="-17.7207" x2="1207.38" y2="-17.7207" gradientUnits="userSpaceOnUse">
<stop offset="0.177083" stop-color="#8F6AFA"/>
<stop offset="0.651042" stop-color="#375CDC"/>
<stop offset="1" stop-color="#0099EE"/>
</linearGradient>
<linearGradient id="paint17_linear" x1="1169.48" y1="-22" x2="1209.47" y2="-22" gradientUnits="userSpaceOnUse">
<stop offset="0.177083" stop-color="#8F6AFA"/>
<stop offset="0.651042" stop-color="#375CDC"/>
<stop offset="1" stop-color="#0099EE"/>
</linearGradient>
<linearGradient id="paint18_linear" x1="1015.26" y1="77.0664" x2="1052.98" y2="77.0664" gradientUnits="userSpaceOnUse">
<stop offset="0.177083" stop-color="#8F6AFA"/>
<stop offset="0.651042" stop-color="#375CDC"/>
<stop offset="1" stop-color="#0099EE"/>
</linearGradient>
<linearGradient id="paint19_linear" x1="125" y1="304" x2="875.75" y2="304" gradientUnits="userSpaceOnUse">
<stop offset="0.385417" stop-color="#6633FF"/>
<stop offset="0.75" stop-color="#3366FF"/>
<stop offset="1" stop-color="#0099FF"/>
</linearGradient>
<linearGradient id="paint20_linear" x1="340" y1="519" x2="638.2" y2="519" gradientUnits="userSpaceOnUse">
<stop offset="0.177083" stop-color="#8F6AFA"/>
<stop offset="0.651042" stop-color="#375CDC"/>
<stop offset="1" stop-color="#0099EE"/>
</linearGradient>
<clipPath id="clip0">
<rect width="1325" height="1153" fill="white" transform="translate(12)"/>
</clipPath>
</defs>
</svg>
