<svg width="136" height="113" viewBox="0 0 136 113" fill="none" xmlns="http://www.w3.org/2000/svg">
<path d="M67.609 100.958C104.396 100.958 134.218 88.5687 134.218 73.2853C134.218 58.0019 104.396 45.6123 67.609 45.6123C30.8219 45.6123 1 58.0019 1 73.2853C1 88.5687 30.8219 100.958 67.609 100.958Z" fill="white"/>
<path d="M67.609 101.958C49.688 101.958 32.825 99.0533 20.125 93.7763C7.147 88.3853 0 81.1073 0 73.2853C0 65.4633 7.147 58.1853 20.125 52.7943C32.825 47.5183 49.688 44.6123 67.609 44.6123C85.53 44.6123 102.392 47.5183 115.092 52.7943C128.07 58.1863 135.217 65.4633 135.217 73.2853C135.217 81.1073 128.07 88.3853 115.092 93.7763C102.392 99.0533 85.529 101.958 67.609 101.958ZM67.609 46.6123C31.432 46.6123 2 58.5783 2 73.2853C2 87.9923 31.432 99.9583 67.609 99.9583C103.786 99.9583 133.217 87.9923 133.217 73.2853C133.217 58.5783 103.786 46.6123 67.609 46.6123Z" fill="black"/>
<path d="M66.9492 86.146L23.4282 78.791C23.193 78.7534 22.952 78.8001 22.7478 78.9229C22.5436 79.0456 22.3894 79.2366 22.3122 79.462L11.7002 111.338C11.6391 111.522 11.633 111.721 11.6827 111.909C11.7324 112.096 11.8357 112.266 11.9801 112.396C12.1245 112.526 12.3036 112.611 12.4956 112.641C12.6876 112.671 12.8842 112.644 13.0612 112.564L67.1912 88.043C67.3877 87.9553 67.5506 87.8066 67.6558 87.619C67.761 87.4313 67.8029 87.2148 67.7753 87.0014C67.7477 86.7881 67.652 86.5893 67.5025 86.4347C67.3529 86.28 67.1575 86.1777 66.9452 86.143L66.9492 86.146Z" fill="black"/>
<path d="M25.814 20.7598L13.957 73.0448C36.657 94.5668 96 96.1318 121.435 73.0448L111.4 20.7598H25.814Z" fill="url(#paint0_linear)"/>
<path d="M67.3057 90.7608C46.1917 90.7608 25.2137 85.0978 13.2687 73.7708C13.1427 73.6515 13.0498 73.5014 12.9993 73.3354C12.9488 73.1694 12.9424 72.993 12.9807 72.8238L24.8387 20.5388C24.8888 20.3176 25.0126 20.1201 25.1898 19.9785C25.3669 19.837 25.5869 19.7598 25.8137 19.7598H111.4C111.632 19.7598 111.857 19.8407 112.037 19.9887C112.216 20.1367 112.338 20.3425 112.382 20.5708L122.414 72.8558C122.446 73.0242 122.435 73.1981 122.38 73.3608C122.326 73.5235 122.231 73.6695 122.104 73.7848C109.641 85.0998 88.4047 90.7608 67.3057 90.7608ZM15.0587 72.7058C25.7917 82.5728 45.0247 88.5698 66.6777 88.7728C88.6677 88.9428 108.691 82.9728 120.346 72.6778L110.577 21.7598H26.6127L15.0587 72.7058Z" fill="black"/>
<path d="M23.262 80.7773C23.2077 80.7772 23.1536 80.7732 23.1 80.7653C22.9702 80.7442 22.846 80.6977 22.7342 80.6285C22.6225 80.5593 22.5255 80.4687 22.4488 80.362C22.3721 80.2553 22.3171 80.1345 22.2871 80.0066C22.2571 79.8786 22.2527 79.746 22.274 79.6163L30.329 30.2873C30.3717 30.0255 30.5166 29.7914 30.7319 29.6365C30.9472 29.4816 31.2152 29.4186 31.477 29.4613C31.7387 29.504 31.9728 29.6489 32.1277 29.8642C32.2826 30.0795 32.3457 30.3475 32.303 30.6093L24.248 79.9383C24.2098 80.1723 24.0897 80.3852 23.9091 80.5389C23.7284 80.6926 23.4991 80.7771 23.262 80.7773Z" fill="black"/>
<path d="M39.7182 87.3167C39.6902 87.3182 39.6622 87.3182 39.6342 87.3167C39.3701 87.2946 39.1256 87.1685 38.9544 86.9662C38.7832 86.7638 38.6993 86.5018 38.7212 86.2377L42.8432 36.7887C42.8523 36.6573 42.8877 36.529 42.9473 36.4115C43.0068 36.2939 43.0893 36.1895 43.1899 36.1044C43.2905 36.0193 43.4071 35.9552 43.5329 35.9159C43.6587 35.8766 43.791 35.863 43.9222 35.8757C44.1865 35.8976 44.4312 36.0236 44.6026 36.2259C44.774 36.4283 44.858 36.6904 44.8362 36.9547L40.7142 86.3997C40.6934 86.6496 40.5794 86.8826 40.395 87.0524C40.2105 87.2222 39.9689 87.3166 39.7182 87.3167Z" fill="black"/>
<path d="M61.2511 90.6383H61.2371C61.1057 90.6366 60.9759 90.609 60.8552 90.5571C60.7344 90.5052 60.6251 90.4301 60.5334 90.3359C60.4418 90.2417 60.3695 90.1304 60.3209 90.0083C60.2723 89.8862 60.2482 89.7557 60.2501 89.6243L60.9281 40.2663C60.9315 40.0033 61.0384 39.7523 61.2255 39.5676C61.4127 39.3828 61.6651 39.2793 61.9281 39.2793H61.9421C62.0734 39.2811 62.2031 39.3088 62.3237 39.3607C62.4444 39.4127 62.5536 39.4879 62.6451 39.5821C62.7367 39.6762 62.8088 39.7875 62.8574 39.9095C62.9059 40.0316 62.93 40.162 62.9281 40.2933L62.2501 89.6513C62.2467 89.9141 62.14 90.165 61.953 90.3497C61.7661 90.5344 61.5139 90.6381 61.2511 90.6383Z" fill="black"/>
<path d="M85.0916 89.2392C84.8395 89.24 84.5964 89.1455 84.411 88.9747C84.2256 88.804 84.1115 88.5695 84.0916 88.3182L80.2366 39.7252C80.2155 39.4608 80.3003 39.1988 80.4724 38.9969C80.6444 38.795 80.8896 38.6698 81.1541 38.6487C81.4185 38.6276 81.6804 38.7124 81.8823 38.8845C82.0842 39.0565 82.2095 39.3018 82.2306 39.5662L86.0896 88.1602C86.1 88.2911 86.0845 88.4228 86.0439 88.5477C86.0034 88.6727 85.9387 88.7884 85.8535 88.8883C85.7682 88.9883 85.6641 89.0704 85.5471 89.1301C85.4301 89.1898 85.3025 89.2258 85.1716 89.2362L85.0916 89.2392Z" fill="black"/>
<path d="M104.964 83.3564C104.728 83.3563 104.499 83.2722 104.318 83.1191C104.137 82.9661 104.017 82.7539 103.978 82.5204L96.2263 35.6204C96.183 35.3586 96.2456 35.0904 96.4001 34.8747C96.5546 34.6591 96.7885 34.5136 97.0503 34.4704C97.312 34.4272 97.5803 34.4897 97.7959 34.6442C98.0116 34.7988 98.157 35.0326 98.2003 35.2944L105.952 82.1944C105.974 82.324 105.969 82.4566 105.94 82.5846C105.91 82.7125 105.855 82.8333 105.779 82.9401C105.702 83.0469 105.605 83.1376 105.494 83.207C105.382 83.2763 105.258 83.323 105.128 83.3444C105.074 83.3533 105.019 83.3573 104.964 83.3564Z" fill="black"/>
<path d="M115.052 77.6795C114.814 77.6794 114.584 77.5946 114.404 77.4403C114.223 77.286 114.103 77.0723 114.065 76.8375L106.622 30.3765C106.597 30.2451 106.599 30.11 106.627 29.9792C106.655 29.8483 106.709 29.7245 106.786 29.615C106.863 29.5055 106.961 29.4125 107.074 29.3416C107.188 29.2706 107.314 29.2232 107.446 29.202C107.579 29.1809 107.714 29.1865 107.843 29.2184C107.973 29.2504 108.096 29.3081 108.203 29.3882C108.31 29.4682 108.4 29.569 108.468 29.6845C108.535 29.8 108.579 29.9278 108.596 30.0605L116.04 76.5205C116.061 76.6502 116.056 76.7827 116.026 76.9105C115.995 77.0383 115.94 77.1588 115.863 77.2653C115.786 77.3717 115.689 77.4619 115.577 77.5307C115.465 77.5996 115.341 77.6457 115.211 77.6665C115.159 77.6752 115.105 77.6796 115.052 77.6795Z" fill="black"/>
<path d="M68.6095 40.52C92.2445 40.52 111.404 31.6731 111.404 20.76C111.404 9.84685 92.2445 1 68.6095 1C44.9744 1 25.8145 9.84685 25.8145 20.76C25.8145 31.6731 44.9744 40.52 68.6095 40.52Z" fill="white"/>
<path d="M68.6095 41.52C44.0515 41.52 24.8145 32.4 24.8145 20.76C24.8145 9.12 44.0515 0 68.6095 0C93.1675 0 112.4 9.119 112.4 20.76C112.4 32.401 93.1675 41.52 68.6095 41.52ZM68.6095 2C45.5635 2 26.8145 10.416 26.8145 20.76C26.8145 31.104 45.5635 39.52 68.6095 39.52C91.6555 39.52 110.4 31.1 110.4 20.76C110.4 10.42 91.6545 2 68.6095 2Z" fill="black"/>
<path d="M68.6095 40.52C92.2445 40.52 111.404 31.6731 111.404 20.76C111.404 9.84685 92.2445 1 68.6095 1C44.9744 1 25.8145 9.84685 25.8145 20.76C25.8145 31.6731 44.9744 40.52 68.6095 40.52Z" fill="white"/>
<path d="M68.6095 41.52C44.0515 41.52 24.8145 32.4 24.8145 20.76C24.8145 9.12 44.0515 0 68.6095 0C93.1675 0 112.4 9.119 112.4 20.76C112.4 32.401 93.1675 41.52 68.6095 41.52ZM68.6095 2C45.5635 2 26.8145 10.416 26.8145 20.76C26.8145 31.104 45.5635 39.52 68.6095 39.52C91.6555 39.52 110.4 31.1 110.4 20.76C110.4 10.42 91.6545 2 68.6095 2Z" fill="black"/>
<defs>
<linearGradient id="paint0_linear" x1="13.957" y1="20.7598" x2="126.809" y2="20.7598" gradientUnits="userSpaceOnUse">
<stop offset="0.177083" stop-color="#8F6AFA"/>
<stop offset="0.651042" stop-color="#375CDC"/>
<stop offset="1" stop-color="#0099EE"/>
</linearGradient>
</defs>
</svg>
