<svg width="7126" height="4194" viewBox="0 0 7126 4194" fill="none" xmlns="http://www.w3.org/2000/svg">
<path d="M780.51 3162.22C897.236 3171.56 1013.46 3182.03 1129.17 3193.64C1112.53 3307.17 1097.07 3420.56 1082.8 3533.79C1198 3544.46 1312.68 3556.3 1426.84 3569.31C1414.89 3688.11 1404.16 3806.71 1394.66 3925.1C1275.98 3923.8 1156.87 3923.82 1037.34 3925.15C1022.53 3833.29 983.67 3746.98 924.725 3675.02C865.785 3602.78 788.167 3548.15 700.371 3517.12C725.729 3398.99 752.441 3280.69 780.51 3162.22Z" fill="white"/>
<path d="M795.872 3190.25C912.265 3199.56 1028.49 3210.03 1144.54 3221.67L1109.65 3168.35C1093.16 3281.57 1077.71 3394.95 1063.31 3508.48C1061.48 3522.75 1082.44 3560.34 1098.18 3561.78C1212.98 3572.51 1327.66 3584.35 1442.22 3597.29L1407.34 3543.97C1401.41 3603.31 1395.75 3662.67 1390.35 3722.07C1387.92 3749 1385.57 3775.97 1383.3 3802.96C1381.41 3824.77 1386.02 3875.91 1369.85 3890.34C1353.67 3904.77 1312.22 3896.56 1290.25 3896.45C1260.48 3896.29 1230.72 3896.21 1200.98 3896.21C1141.25 3896.16 1081.57 3896.46 1021.94 3897.1L1056.83 3946.43C1039.77 3844.46 996.496 3748.66 931.277 3668.47C866.057 3588.29 781.141 3526.48 684.893 3489.14L719.767 3542.44C745.361 3423.9 772.102 3305.61 799.988 3187.58C804.006 3170.46 762.891 3129.1 761.02 3136.91C733.113 3254.96 706.376 3373.26 680.809 3491.81C681.731 3502.9 685.406 3513.58 691.498 3522.9C697.591 3532.21 705.907 3539.85 715.692 3545.13C793.47 3572.33 862.547 3619.98 915.687 3683.08C968.826 3746.19 1004.07 3822.42 1017.73 3903.81C1019.89 3915.97 1036.75 3953.21 1052.63 3953.17C1171.75 3951.86 1290.9 3951.83 1410.08 3953.07C1410.52 3953.19 1410.99 3953.21 1411.44 3953.13C1411.9 3953.06 1412.33 3952.89 1412.71 3952.63C1413.1 3952.38 1413.42 3952.05 1413.67 3951.66C1413.92 3951.27 1414.08 3950.83 1414.15 3950.38C1423.69 3831.7 1434.42 3713.1 1446.33 3594.59C1447.77 3579.99 1427.52 3543.07 1411.45 3541.26C1296.91 3528.31 1182.23 3516.47 1067.4 3505.75L1102.29 3559.07C1116.67 3445.54 1132.12 3332.17 1148.63 3218.93C1150.86 3204.6 1129.32 3167.17 1113.75 3165.61C997.621 3154.01 881.4 3143.54 765.084 3134.19C755.694 3133.48 778.645 3188.92 795.872 3190.25Z" fill="black"/>
<path d="M1394.71 3925.05C2943.93 2680.83 4688.59 1702.78 6557.8 1030.64C6594.64 936.51 6632.43 842.448 6671.19 748.454C6607.34 770.147 6543.65 792.182 6480.12 814.559C4660.29 1458.52 2954.59 2388.35 1426.86 3569.27C1414.91 3688.08 1404.19 3806.67 1394.71 3925.05Z" fill="#ACACAC"/>
<path d="M1412.78 3952.72C2049.1 3441.9 2719.33 2974.96 3418.84 2555.12C4113.6 2138.4 4835.73 1769.21 5580.3 1450.09C5791.67 1359.5 6004.72 1273.01 6219.44 1190.62C6325.66 1149.87 6432.29 1110.16 6539.34 1071.5C6574.71 1058.69 6576.5 1060.12 6590.12 1025.48C6600.85 998.185 6611.66 970.945 6622.54 943.761C6645.4 886.669 6668.5 829.752 6691.84 773.01C6698.91 755.798 6673.45 713.913 6653.06 720.824C5871.2 987.112 5108.58 1306.88 4370.57 1677.87C3630.64 2049.36 2916.89 2470.97 2234.3 2939.76C2043.62 3070.73 1855.51 3205.31 1669.94 3343.5C1624.04 3377.66 1578.3 3412.05 1532.73 3446.68C1507.84 3465.53 1483.02 3484.47 1458.26 3503.51C1438.72 3514.26 1421.11 3528.2 1406.15 3544.75C1398.92 3572.71 1395.87 3601.59 1397.07 3630.45C1394.39 3657.44 1391.86 3684.42 1389.51 3711.37C1383.59 3775.93 1378.05 3840.55 1372.89 3905.25C1371.37 3924.08 1414.41 3971.38 1416.52 3944.88C1425.1 3838.38 1426.67 3726.66 1445.47 3621.49C1453.91 3573.29 1512.91 3544.57 1550.26 3516.14C1593.71 3483.05 1637.33 3450.16 1681.11 3417.46C1843.54 3296.13 2007.95 3177.51 2174.34 3061.6C2510.94 2827.17 2855.19 2604.33 3207.1 2393.07C3910.31 1971 4641.22 1597 5394.83 1273.63C5819.72 1091.28 6251.19 925.444 6689.26 776.121L6650.49 723.967C6630.17 773.362 6610.06 822.873 6590.16 872.5C6571.26 919.583 6558.99 991.894 6510.51 1013.47C6419.23 1054.41 6320.4 1083.12 6226.79 1118.78C6036.01 1191.39 5846.52 1267.27 5658.33 1346.41C5287.24 1502.39 4921.67 1670.77 4561.6 1851.53C3837.83 2214.92 3139.46 2626.91 2471.24 3084.68C2096.28 3341.67 1731.4 3612.58 1376.62 3897.41C1359.83 3910.9 1397.47 3965.02 1412.78 3952.72Z" fill="black"/>
<path d="M780.529 3162.23C897.254 3171.56 1013.48 3182.04 1129.19 3193.65C2692.93 1971.68 4441.01 1006.96 6307.96 335.612C6373.13 312.163 6438.4 289.098 6503.77 266.417C6411.74 212.555 6319.01 159.355 6225.57 106.816C4254.59 815.55 2414.96 1846.9 781.457 3158.93L780.529 3162.23Z" fill="#ACACAC"/>
<path d="M795.137 3190.74C905.985 3199.51 1017.02 3214.01 1127.96 3220.42C1166.2 3222.66 1209.85 3172.34 1239.43 3149.53C1282.58 3116.24 1325.88 3083.14 1369.32 3050.23C1538.8 2921.85 1710.45 2796.37 1884.27 2673.8C2227.22 2431.99 2578.04 2201.92 2936.7 1983.56C3658.25 1544.42 4408.7 1154.75 5182.92 817.236C5622.39 625.642 6068.73 451.194 6521.96 293.893C6540.29 287.515 6500.21 242.75 6493.47 238.916C6447.4 211.981 6401.21 185.213 6354.9 158.611C6331.69 145.373 6308.47 132.142 6285.22 118.917C6266.08 108.066 6233.42 79.4337 6210.97 78.2606C6189.32 82.2513 6168.46 89.6648 6149.15 100.224C6124.83 109.056 6100.53 117.941 6076.24 126.877C6022.85 146.524 5969.54 166.373 5916.32 186.425C5713.35 263.19 5511.72 343.413 5311.42 427.092C4911.56 594.321 4517.69 775.149 4129.83 969.574C3359.98 1355.63 2617.35 1793.84 1907.1 2281.15C1707.07 2418.42 1509.73 2559.49 1315.07 2704.36C1219.75 2775.29 1125.1 2847.12 1031.13 2919.85C982.108 2957.79 933.251 2995.99 884.56 3034.45C860.222 3053.7 835.928 3072.98 811.68 3092.3C797.475 3103.65 765.064 3119.87 760.108 3137.08C754.814 3155.8 796.5 3201.11 800.717 3186.72C805.368 3170.27 846.219 3148.8 860.078 3137.77C880.23 3121.68 900.482 3105.62 920.835 3089.58C965.443 3054.32 1010.22 3019.28 1055.16 2984.47C1140.88 2917.97 1227.19 2852.24 1314.06 2787.26C1483.56 2660.49 1655.14 2536.58 1828.79 2415.53C2179.93 2170.78 2539.1 1938.12 2906.3 1717.57C3636.08 1279.31 4394.55 890.837 5176.57 554.773C5394.89 460.971 5614.93 371.29 5836.68 285.729C5947.65 242.903 6059.02 201.142 6170.79 160.444C6205.84 147.701 6228.96 133.627 6263.99 149.516C6292.57 162.585 6320.32 181.426 6347.74 197.102C6403.37 228.894 6458.85 260.978 6514.18 293.355L6485.69 238.377C5687.55 515.694 4909.05 846.615 4155.47 1228.89C3404.84 1610.15 2680.8 2041.74 1988.28 2520.74C1796.37 2653.42 1606.99 2789.69 1420.15 2929.55C1372.37 2965.3 1324.77 3001.28 1277.35 3037.48C1230.52 3073.27 1185.06 3115 1135.51 3146.74C1087.57 3177.56 1011.62 3154.96 956.195 3150.06C892.728 3144.28 829.214 3138.86 765.654 3133.8C750.376 3132.49 775.679 3189.18 795.137 3190.74Z" fill="black"/>
<path d="M1129.17 3193.6C2747.86 1928.69 4563.71 939.723 6503.88 266.362L6671.12 748.324C6607.28 770.016 6543.58 792.051 6480.05 814.428C4660.23 1458.43 2954.55 2388.31 1426.84 3569.27C1312.68 3556.28 1198 3544.44 1082.8 3533.75C1097.13 3420.59 1112.59 3307.2 1129.17 3193.6Z" fill="#ACACAC"/>
<path d="M1147.22 3221.28C1777.02 2729.33 2437.58 2278.21 3124.88 1870.69C3812 1463.47 4524.49 1100.78 5257.98 784.828C5673.3 605.952 6094.65 442.346 6522.02 294.009L6485.6 250.337C6541.34 410.991 6597.09 571.645 6652.84 732.299L6653.07 720.57C5876.07 985.2 5118.07 1302.64 4384.33 1670.69C3651.11 2038.14 2943.53 2454.78 2266.43 2917.77C2077.6 3046.87 1891.29 3179.48 1707.53 3315.62C1661.5 3349.68 1615.68 3383.95 1570.05 3418.43C1523.26 3453.78 1477.41 3497 1427.34 3527.34C1397.85 3545.18 1366.12 3536.14 1333.59 3532.61C1304.94 3529.46 1276.3 3526.42 1247.67 3523.47C1187.66 3517.24 1127.59 3511.33 1067.48 3505.76L1102.36 3559.09C1116.74 3445.56 1132.19 3332.18 1148.71 3218.95C1151.31 3201.02 1110.66 3161.69 1109.69 3168.34C1093.17 3281.57 1077.72 3394.95 1063.34 3508.48C1061.52 3522.99 1082.27 3560.34 1098.22 3561.8C1202.61 3571.53 1306.9 3582.2 1411.1 3593.8C1444.16 3597.5 1443.37 3598.14 1469.77 3577.98C1490.36 3562.1 1511.01 3546.26 1531.72 3530.48C1573.07 3498.88 1614.56 3467.49 1656.18 3436.3C1822.57 3311.53 1991.04 3189.63 2161.61 3070.61C2498.02 2835.9 2842.12 2612.76 3193.91 2401.19C3901.11 1975.73 4636.4 1598.93 5394.71 1273.38C5819.6 1091.03 6251.07 925.199 6689.13 775.876C6692.51 774.764 6689.76 765.235 6689.37 764.146L6522.16 282.174C6518.84 272.099 6500.73 233.571 6485.73 238.503C5730.15 500.932 4992.14 811.49 4276.21 1168.28C3561.76 1524.63 2870.85 1926.46 2207.73 2371.29C1832.74 2622.81 1467.2 2887.7 1111.09 3165.97C1099.47 3175.04 1137.5 3228.86 1147.22 3221.28Z" fill="black"/>
<path d="M5473.2 395.404C5548.84 364.478 5624.69 334.061 5700.76 304.154C5795.7 354.088 5889.89 404.551 5983.3 455.543C5907.81 484.242 5832.57 513.45 5757.57 543.168C5663.52 493.335 5568.73 444.081 5473.2 395.404Z" fill="url(#paint0_linear)"/>
<path d="M5491.33 423.234C5566.95 392.315 5642.8 361.898 5718.89 331.984L5702.23 331.34C5796.84 381.015 5891.02 431.478 5984.78 482.729L5965.27 428.066C5889.85 456.765 5814.61 485.973 5739.54 515.691L5756.2 516.334C5661.8 466.222 5566.97 416.992 5471.71 368.644C5469.3 367.005 5466.46 366.116 5463.54 366.089C5460.63 366.062 5457.77 366.897 5455.33 368.491C5452.89 370.085 5450.98 372.365 5449.83 375.047C5448.68 377.729 5448.34 380.692 5448.87 383.566C5449.56 391.691 5452.26 399.518 5456.72 406.344C5461.19 413.17 5467.27 418.781 5474.42 422.673C5562.85 467.68 5650.91 513.361 5738.62 559.716C5747.06 564.279 5757.77 572.583 5767.71 572.756C5777.75 571.156 5787.43 567.798 5796.3 562.833C5818.53 554.061 5840.79 545.327 5863.07 536.632C5909.02 518.739 5955.05 501.013 6001.18 483.456C6023.88 474.842 5991.96 434.316 5981.69 428.824C5894.64 381.233 5807.23 334.329 5719.45 288.113C5711.01 283.55 5700.19 275.246 5690.22 275.083C5680.09 276.694 5670.33 280.08 5661.38 285.088C5638.87 293.998 5616.37 302.929 5593.87 311.881C5547.5 330.399 5501.2 349.105 5454.95 367.999C5432.7 377.127 5466.04 433.569 5491.33 423.234Z" fill="black"/>
<path d="M5757.64 543.333C5832.67 513.65 5907.91 484.442 5983.37 455.708L6164.74 932.536C6101.68 956.057 6038.76 979.938 5975.98 1004.18C5965.51 1008.21 5955.03 1012.21 5944.56 1016.25L5757.64 543.333Z" fill="url(#paint1_linear)"/>
<path d="M5775.71 570.989C5850.77 541.321 5926.01 512.113 6001.44 483.365L5963.14 458.466L6144.51 935.294L6146.65 904.886C6073.11 932.34 5999.77 960.422 5926.47 988.598L5964.77 1013.5L5777.85 540.581C5773.42 529.31 5758.54 510.864 5744.43 513.867C5729.33 517.096 5733.37 535.939 5737.41 546.09L5924.33 1019.01C5929.93 1033.2 5946.2 1050.07 5962.63 1043.91C6035.93 1015.73 6109.24 987.657 6182.81 960.193C6193.56 956.17 6187.47 936.367 6184.95 929.784L6003.58 452.957C5998.15 438.641 5981.58 421.931 5965.28 428.058C5889.86 456.778 5814.62 485.986 5739.55 515.682C5717.11 524.558 5750.34 581 5775.71 570.989Z" fill="black"/>
<path d="M5944.68 1016.19C5955.15 1012.16 5965.62 1008.14 5976.1 1004.12C6038.88 979.877 6101.8 955.996 6164.86 932.475C6129.04 1027.52 6094.13 1122.64 6060.12 1217.84C5987.94 1246.21 5916 1275.05 5844.29 1304.36C5877.05 1208.79 5910.71 1113.23 5945.28 1017.7L5944.68 1016.19Z" fill="url(#paint2_linear)"/>
<path d="M5962.61 1043.9C6035.89 1015.7 6109.28 987.791 6182.79 960.184L6144.68 907.573C6113.83 989.6 6083.51 1071.87 6053.73 1154.38C6051.21 1165.05 6047.5 1175.39 6042.67 1185.22C6034.02 1193.96 6023.03 1199.99 6011.02 1202.58C5990.42 1210.72 5969.84 1218.91 5949.25 1227.14C5908.15 1243.58 5867.09 1260.16 5826.08 1276.9L5864.2 1329.51C5882.36 1276.51 5900.8 1223.57 5919.52 1170.69C5928.64 1144.83 5937.83 1119 5947.08 1093.21C5954.6 1072.27 5970.81 1046.87 5962.15 1024.78C5957.6 1009.76 5947.5 997.05 5933.91 989.231C5920.82 985.502 5923.77 999.524 5927.05 1007.91L5927.56 1009.48L5925.09 992.897C5890.65 1088.19 5856.99 1183.74 5824.11 1279.56C5819.45 1293.23 5845.19 1339.13 5862.23 1332.17C5904.5 1314.93 5946.85 1297.83 5989.26 1280.86C6009.81 1272.65 6030.38 1264.47 6051 1256.32C6060.97 1254.03 6070.46 1249.95 6078.99 1244.3C6085.18 1237.57 6087.92 1220.49 6091.06 1212.09C6121.6 1127.03 6152.83 1042.2 6184.75 957.592C6190 943.693 6163.6 898.638 6146.63 904.981C6073.1 932.456 5999.71 960.361 5926.45 988.694C5914.01 993.377 5944.49 1050.83 5962.61 1043.9Z" fill="black"/>
<path d="M700.278 3517.12C787.783 3548.61 865.249 3603.11 924.541 3674.91C983.832 3746.7 1022.76 3833.14 1037.24 3925.15C926.851 3927.05 820.59 3927.8 615.158 3935.26C646.396 3771.15 680.058 3608.6 700.278 3517.12Z" fill="url(#paint3_linear)"/>
<path d="M709.916 3544.94C788.975 3572.93 859.108 3621.67 912.98 3686.08C966.851 3750.49 1002.48 3828.2 1016.14 3911.08L1023.04 3896.39C882.287 3898.82 741.598 3901.44 600.921 3906.52L636.737 3955.19C663.136 3817.19 690.535 3679.07 720.862 3541.73C721.612 3534.53 720.749 3527.25 718.337 3520.43C715.925 3513.6 712.023 3507.4 706.918 3502.28C704.083 3498.93 682.632 3478.96 679.7 3492.52C648.696 3632.97 620.494 3774.03 593.543 3915.31C590.615 3930.67 612.042 3964.6 629.411 3963.93C770.004 3958.91 910.756 3956.27 1051.5 3953.81C1059.16 3953.69 1059.32 3944.6 1058.39 3939.13C1041.74 3838.51 999.002 3744 934.471 3665.06C869.939 3586.12 785.873 3525.52 690.687 3489.32C676.714 3484.28 678.356 3501.72 680.946 3509.91C683.159 3517.41 686.868 3524.38 691.848 3530.4C696.828 3536.42 702.975 3541.37 709.916 3544.94Z" fill="black"/>
<defs>
<linearGradient id="paint0_linear" x1="5544.81" y1="613.138" x2="5464.51" y2="368.962" gradientUnits="userSpaceOnUse">
<stop offset="0.177083" stop-color="#8F6AFA"/>
<stop offset="0.651042" stop-color="#375CDC"/>
<stop offset="1" stop-color="#0099EE"/>
</linearGradient>
<linearGradient id="paint1_linear" x1="5916.23" y1="1025.57" x2="5745.54" y2="506.533" gradientUnits="userSpaceOnUse">
<stop offset="0.177083" stop-color="#8F6AFA"/>
<stop offset="0.651042" stop-color="#375CDC"/>
<stop offset="1" stop-color="#0099EE"/>
</linearGradient>
<linearGradient id="paint2_linear" x1="5844.29" y1="1304.36" x2="5761.26" y2="1051.88" gradientUnits="userSpaceOnUse">
<stop offset="0.177083" stop-color="#8F6AFA"/>
<stop offset="0.651042" stop-color="#375CDC"/>
<stop offset="1" stop-color="#0099EE"/>
</linearGradient>
<linearGradient id="paint3_linear" x1="653.35" y1="4051.39" x2="491.679" y2="3559.78" gradientUnits="userSpaceOnUse">
<stop offset="0.177083" stop-color="#8F6AFA"/>
<stop offset="0.651042" stop-color="#375CDC"/>
<stop offset="1" stop-color="#0099EE"/>
</linearGradient>
</defs>
</svg>
