<svg width="368" height="217" viewBox="0 0 368 217" fill="none" xmlns="http://www.w3.org/2000/svg">
<path d="M40.222 162.961C46.2373 163.442 52.2266 163.982 58.1899 164.58C57.332 170.431 56.5353 176.274 55.8 182.109C61.7366 182.659 67.6465 183.269 73.5297 183.939C72.9137 190.062 72.361 196.174 71.8715 202.275C65.7553 202.208 59.6172 202.209 53.4572 202.277C52.6941 197.544 50.6915 193.096 47.6539 189.388C44.6165 185.665 40.6166 182.849 36.0922 181.25C37.3989 175.163 38.7755 169.066 40.222 162.961Z" fill="white"/>
<path d="M41.0137 164.405C47.0118 164.885 53.0011 165.425 58.9816 166.025L57.1839 163.277C56.3339 169.111 55.5378 174.954 54.7956 180.805C54.7013 181.541 55.7818 183.478 56.5927 183.552C62.5089 184.105 68.4188 184.715 74.3225 185.382L72.5248 182.634C72.2193 185.692 71.9275 188.751 71.6492 191.812C71.524 193.2 71.4028 194.59 71.2858 195.981C71.1887 197.104 71.4261 199.74 70.5926 200.484C69.7591 201.227 67.6229 200.804 66.491 200.798C64.9567 200.79 63.4231 200.786 61.8903 200.786C58.812 200.784 55.7365 200.799 52.6639 200.832L54.4617 203.374C53.5825 198.119 51.3525 193.182 47.9915 189.05C44.6306 184.918 40.2545 181.733 35.2945 179.808L37.0917 182.555C38.4107 176.446 39.7887 170.35 41.2258 164.268C41.4328 163.386 39.314 161.254 39.2176 161.657C37.7795 167.74 36.4016 173.836 35.084 179.946C35.1316 180.517 35.321 181.068 35.6349 181.548C35.9489 182.028 36.3775 182.422 36.8817 182.694C40.8899 184.095 44.4497 186.551 47.1881 189.803C49.9266 193.055 51.7429 196.984 52.4468 201.178C52.5581 201.804 53.427 203.723 54.2451 203.721C60.384 203.654 66.5242 203.652 72.6659 203.716C72.6889 203.722 72.7128 203.723 72.7362 203.719C72.7596 203.716 72.7819 203.707 72.8017 203.694C72.8215 203.681 72.8383 203.663 72.8511 203.643C72.8638 203.623 72.8723 203.601 72.8759 203.577C73.3675 197.461 73.9203 191.35 74.5341 185.242C74.6085 184.49 73.5645 182.588 72.7364 182.494C66.8338 181.827 60.9239 181.217 55.0066 180.664L56.8043 183.412C57.5455 177.562 58.3416 171.719 59.1927 165.884C59.3074 165.145 58.1973 163.216 57.395 163.136C51.4105 162.538 45.4212 161.998 39.4271 161.516C38.9431 161.48 40.1259 164.337 41.0137 164.405Z" fill="black"/>
<path d="M71.874 202.272C151.711 138.153 241.619 87.7506 337.946 53.113C339.845 48.2622 341.792 43.4149 343.789 38.571C340.499 39.6889 337.217 40.8245 333.943 41.9776C240.161 75.163 152.26 123.081 73.5306 183.938C72.9146 190.06 72.3624 196.172 71.874 202.272Z" fill="#ACACAC"/>
<path d="M72.8052 203.698C105.597 177.374 140.136 153.311 176.184 131.675C211.988 110.2 249.202 91.1743 287.572 74.7288C298.465 70.0604 309.444 65.6032 320.509 61.3573C325.983 59.2572 331.478 57.211 336.995 55.2188C338.818 54.5584 338.91 54.6321 339.612 52.8472C340.165 51.4405 340.722 50.0368 341.283 48.6359C342.461 45.6937 343.651 42.7606 344.854 39.8365C345.218 38.9495 343.906 36.791 342.856 37.1472C302.563 50.8699 263.263 67.3486 225.231 86.4671C187.099 105.611 150.317 127.338 115.141 151.497C105.315 158.246 95.6204 165.182 86.0575 172.303C83.6922 174.063 81.3352 175.836 78.9864 177.62C77.7039 178.592 76.4248 179.568 75.1491 180.549C74.1421 181.103 73.2344 181.821 72.4636 182.674C72.0911 184.115 71.9335 185.603 71.9957 187.091C71.8572 188.482 71.7273 189.872 71.606 191.261C71.3007 194.587 71.0151 197.918 70.7492 201.252C70.6714 202.222 72.8891 204.66 72.9978 203.294C73.4401 197.806 73.5208 192.049 74.4899 186.629C74.9246 184.145 77.9653 182.665 79.8901 181.2C82.1291 179.495 84.3768 177.799 86.6333 176.115C95.0039 169.862 103.477 163.749 112.051 157.775C129.397 145.695 147.138 134.211 165.273 123.324C201.512 101.573 239.178 82.2997 278.015 65.635C299.91 56.238 322.146 47.6919 344.721 39.9968L342.723 37.3091C341.676 39.8546 340.639 42.4061 339.614 44.9636C338.64 47.3899 338.008 51.1163 335.509 52.2284C330.805 54.3381 325.712 55.8177 320.888 57.655C311.057 61.3972 301.292 65.3075 291.593 69.386C272.47 77.4242 253.631 86.1011 235.075 95.4164C197.777 114.143 161.787 135.374 127.352 158.965C108.028 172.209 89.2248 186.17 70.9418 200.848C70.0762 201.543 72.0161 204.332 72.8052 203.698Z" fill="black"/>
<path d="M40.2229 162.961C46.2382 163.442 52.2275 163.982 58.1909 164.581C138.776 101.608 228.861 51.8926 325.071 17.2958C328.429 16.0874 331.793 14.8988 335.162 13.7299C330.419 10.9542 325.641 8.21266 320.825 5.50516C219.254 42.0287 124.451 95.1777 40.2708 162.792L40.2229 162.961Z" fill="#ACACAC"/>
<path d="M40.9758 164.431C46.6881 164.882 52.4103 165.63 58.1274 165.96C60.0981 166.076 62.3473 163.483 63.872 162.307C66.0956 160.591 68.3267 158.885 70.5653 157.19C79.2993 150.574 88.145 144.107 97.1025 137.791C114.776 125.33 132.855 113.473 151.338 102.221C188.522 79.5898 227.196 59.5089 267.094 42.1156C289.741 32.2421 312.743 23.2522 336.099 15.1459C337.044 14.8172 334.979 12.5103 334.631 12.3127C332.257 10.9247 329.876 9.54519 327.49 8.17432C326.294 7.4921 325.097 6.81025 323.899 6.12874C322.913 5.56954 321.23 4.09402 320.073 4.03356C318.957 4.23922 317.882 4.62126 316.887 5.16542C315.634 5.62057 314.381 6.07842 313.13 6.53896C310.378 7.55143 307.631 8.57433 304.889 9.60766C294.429 13.5636 284.038 17.6978 273.716 22.0101C253.109 30.628 232.812 39.9467 212.824 49.9661C173.151 69.8611 134.881 92.4435 98.2791 117.556C87.9711 124.63 77.8014 131.9 67.77 139.366C62.8575 143.021 57.9799 146.723 53.1374 150.471C50.611 152.426 48.0933 154.395 45.5841 156.377C44.3298 157.369 43.0779 158.362 41.8283 159.358C41.0963 159.942 39.426 160.778 39.1706 161.665C38.8978 162.63 41.046 164.965 41.2633 164.223C41.503 163.376 43.6082 162.269 44.3224 161.701C45.3609 160.872 46.4046 160.044 47.4534 159.218C49.7522 157.401 52.0596 155.595 54.3755 153.801C58.7933 150.374 63.2408 146.986 67.7178 143.638C76.4529 137.105 85.2948 130.72 94.2434 124.481C112.339 111.868 130.849 99.8789 149.772 88.5129C187.38 65.9281 226.466 45.9085 266.767 28.5899C278.018 23.756 289.357 19.1344 300.784 14.7251C306.503 12.5182 312.243 10.3661 318.002 8.26879C319.808 7.61209 321 6.88678 322.805 7.7056C324.278 8.3791 325.708 9.35007 327.121 10.1579C329.988 11.7962 332.847 13.4497 335.699 15.1181L334.23 12.2849C293.099 26.576 252.98 43.6296 214.146 63.3297C175.463 82.9772 138.151 105.219 102.463 129.903C92.5728 136.74 82.8135 143.763 73.1848 150.971C70.7226 152.813 68.2696 154.667 65.826 156.533C63.4127 158.377 61.0698 160.528 58.5164 162.163C56.0459 163.752 52.1318 162.587 49.2757 162.334C46.005 162.037 42.7319 161.757 39.4564 161.496C38.6691 161.429 39.973 164.35 40.9758 164.431Z" fill="black"/>
<path d="M58.1898 164.578C141.607 99.3929 235.184 48.4278 335.168 13.7271L343.786 38.5643C340.496 39.6822 337.214 40.8177 333.94 41.9709C240.158 75.1585 152.258 123.078 73.5296 183.938C67.6467 183.268 61.7368 182.658 55.7998 182.107C56.5387 176.276 57.3354 170.433 58.1898 164.578Z" fill="#ACACAC"/>
<path d="M59.1198 166.005C91.5757 140.652 125.617 117.405 161.036 96.4037C196.446 75.4185 233.163 56.7276 270.962 40.4455C292.365 31.2273 314.079 22.7961 336.103 15.1518L334.225 12.9013C337.098 21.1803 339.971 29.4594 342.844 37.7385L342.856 37.134C302.815 50.7713 263.752 67.1304 225.94 86.0972C188.154 105.033 151.69 126.504 116.797 150.364C107.065 157.016 97.4646 163.85 87.9945 170.866C85.6228 172.621 83.2613 174.387 80.91 176.164C78.4984 177.986 76.1359 180.213 73.5554 181.777C72.0358 182.696 70.4004 182.23 68.7243 182.048C67.2479 181.886 65.7719 181.729 64.2965 181.578C61.2039 181.256 58.1085 180.952 55.0104 180.665L56.8081 183.413C57.5492 177.562 58.3454 171.72 59.1964 165.884C59.3305 164.96 57.2356 162.934 57.1856 163.276C56.3345 169.112 55.5384 174.954 54.7972 180.805C54.7034 181.553 55.7726 183.477 56.5949 183.553C61.9744 184.054 67.3489 184.604 72.7184 185.202C74.4224 185.392 74.3815 185.425 75.7419 184.387C76.8029 183.568 77.8671 182.752 78.9345 181.939C81.0655 180.31 83.2033 178.693 85.3482 177.085C93.9228 170.655 102.605 164.374 111.395 158.24C128.731 146.144 146.464 134.645 164.593 123.742C201.038 101.817 238.93 82.3989 278.008 65.6223C299.904 56.2254 322.139 47.6793 344.714 39.9841C344.888 39.9268 344.747 39.4357 344.726 39.3797L336.11 14.5419C335.939 14.0227 335.005 12.0372 334.232 12.2914C295.294 25.8153 257.262 41.8194 220.368 60.2061C183.55 78.5703 147.945 99.2776 113.772 122.201C94.4473 135.163 75.6094 148.814 57.258 163.154C56.659 163.622 58.6189 166.395 59.1198 166.005Z" fill="black"/>
<path d="M282.053 20.3771C285.951 18.7833 289.86 17.2158 293.78 15.6746C298.673 18.2479 303.526 20.8484 308.341 23.4763C304.45 24.9552 300.573 26.4604 296.708 27.9918C291.861 25.4238 286.976 22.8856 282.053 20.3771Z" fill="url(#paint0_linear)"/>
<path d="M282.987 21.8112C286.884 20.2178 290.793 18.6504 294.714 17.1088L293.856 17.0756C298.731 19.6355 303.585 22.236 308.416 24.8772L307.411 22.0602C303.524 23.5392 299.647 25.0444 295.779 26.5758L296.637 26.609C291.772 24.0265 286.885 21.4895 281.976 18.998C281.852 18.9135 281.705 18.8677 281.555 18.8663C281.405 18.8649 281.258 18.908 281.132 18.9901C281.006 19.0722 280.908 19.1898 280.848 19.328C280.789 19.4662 280.772 19.6189 280.799 19.767C280.835 20.1857 280.974 20.589 281.204 20.9408C281.434 21.2926 281.747 21.5817 282.116 21.7823C286.673 24.1017 291.211 26.4558 295.731 28.8446C296.166 29.0798 296.718 29.5077 297.23 29.5166C297.748 29.4342 298.246 29.2611 298.703 29.0053C299.849 28.5532 300.996 28.1031 302.144 27.655C304.512 26.7329 306.885 25.8195 309.262 24.9147C310.432 24.4708 308.787 22.3823 308.257 22.0993C303.771 19.6467 299.267 17.2296 294.743 14.848C294.308 14.6128 293.751 14.1849 293.237 14.1765C292.715 14.2595 292.212 14.434 291.751 14.692C290.591 15.1512 289.431 15.6115 288.271 16.0728C285.882 17.0271 283.496 17.9911 281.113 18.9648C279.966 19.4351 281.684 22.3438 282.987 21.8112Z" fill="black"/>
<path d="M296.711 28.0003C300.578 26.4707 304.455 24.9655 308.344 23.4848L317.691 48.0574C314.441 49.2695 311.198 50.5002 307.963 51.7493C307.423 51.9572 306.883 52.1635 306.344 52.3714L296.711 28.0003Z" fill="url(#paint1_linear)"/>
<path d="M297.642 29.4256C301.51 27.8966 305.388 26.3915 309.275 24.91L307.301 23.6269L316.648 48.1995L316.758 46.6325C312.968 48.0473 309.189 49.4944 305.412 50.9465L307.385 52.2296L297.753 27.8585C297.524 27.2777 296.757 26.3271 296.031 26.4819C295.252 26.6482 295.461 27.6193 295.669 28.1425L305.301 52.5135C305.59 53.2448 306.428 54.1145 307.275 53.7966C311.053 52.3446 314.83 50.898 318.622 49.4826C319.176 49.2753 318.862 48.2548 318.732 47.9156L309.385 23.3429C309.105 22.6052 308.252 21.7441 307.412 22.0598C303.525 23.5399 299.648 25.0451 295.779 26.5754C294.622 27.0328 296.335 29.9415 297.642 29.4256Z" fill="black"/>
<path d="M306.35 52.3683C306.89 52.1609 307.429 51.9536 307.969 51.7462C311.204 50.4971 314.447 49.2664 317.697 48.0543C315.851 52.9524 314.052 57.8542 312.299 62.7599C308.579 64.2221 304.872 65.7084 301.177 67.2188C302.865 62.2937 304.599 57.3695 306.381 52.446L306.35 52.3683Z" fill="url(#paint2_linear)"/>
<path d="M307.274 53.7962C311.05 52.3429 314.832 50.9049 318.621 49.4822L316.657 46.771C315.067 50.9981 313.505 55.2377 311.97 59.4899C311.84 60.0395 311.649 60.5726 311.4 61.0789C310.954 61.5295 310.388 61.8404 309.769 61.9739C308.707 62.3933 307.646 62.8151 306.586 63.2393C304.467 64.0865 302.351 64.9412 300.238 65.8035L302.202 68.5147C303.139 65.7835 304.089 63.0554 305.053 60.3304C305.523 58.9976 305.997 57.6667 306.474 56.3375C306.861 55.2584 307.696 53.9495 307.251 52.811C307.016 52.0372 306.495 51.382 305.795 50.9791C305.121 50.7869 305.272 51.5095 305.441 51.9415L305.468 52.0224L305.341 51.168C303.566 56.0786 301.831 61.0029 300.137 65.9408C299.896 66.6454 301.223 69.0107 302.101 68.652C304.28 67.7635 306.462 66.8822 308.648 66.008C309.706 65.5846 310.767 65.163 311.829 64.7432C312.343 64.625 312.832 64.4151 313.272 64.1235C313.59 63.7767 313.732 62.8967 313.893 62.4636C315.467 58.0803 317.077 53.7086 318.722 49.3486C318.992 48.6324 317.632 46.3105 316.757 46.6374C312.968 48.0533 309.186 49.4913 305.411 50.9514C304.77 51.1927 306.34 54.1535 307.274 53.7962Z" fill="black"/>
<path d="M36.0874 181.25C40.5968 182.873 44.5889 185.682 47.6444 189.382C50.6999 193.081 52.7061 197.536 53.4524 202.277C47.7635 202.375 42.2875 202.414 31.7008 202.798C33.3106 194.341 35.0453 185.965 36.0874 181.25Z" fill="url(#paint3_linear)"/>
<path d="M36.584 182.684C40.6582 184.126 44.2724 186.638 47.0486 189.958C49.8248 193.277 51.6609 197.281 52.3649 201.552L52.7203 200.795C45.4669 200.921 38.2167 201.055 30.9671 201.317L32.8128 203.825C34.1733 196.714 35.5853 189.596 37.1481 182.518C37.1867 182.147 37.1423 181.772 37.018 181.421C36.8937 181.069 36.6926 180.749 36.4295 180.485C36.2834 180.313 35.1779 179.284 35.0269 179.982C33.4291 187.22 31.9758 194.49 30.5869 201.77C30.436 202.562 31.5402 204.31 32.4353 204.276C39.6806 204.017 46.934 203.881 54.1869 203.755C54.5818 203.748 54.5903 203.28 54.5423 202.998C53.6839 197.813 51.4816 192.942 48.1561 188.874C44.8306 184.806 40.4984 181.683 35.5931 179.818C34.873 179.558 34.9576 180.457 35.0911 180.879C35.2051 181.265 35.3963 181.624 35.6529 181.935C35.9095 182.245 36.2263 182.5 36.584 182.684Z" fill="black"/>
<defs>
<linearGradient id="paint0_linear" x1="285.743" y1="31.5977" x2="281.605" y2="19.0144" gradientUnits="userSpaceOnUse">
<stop offset="0.177083" stop-color="#8F6AFA"/>
<stop offset="0.651042" stop-color="#375CDC"/>
<stop offset="1" stop-color="#0099EE"/>
</linearGradient>
<linearGradient id="paint1_linear" x1="304.884" y1="52.8516" x2="296.088" y2="26.1039" gradientUnits="userSpaceOnUse">
<stop offset="0.177083" stop-color="#8F6AFA"/>
<stop offset="0.651042" stop-color="#375CDC"/>
<stop offset="1" stop-color="#0099EE"/>
</linearGradient>
<linearGradient id="paint2_linear" x1="301.177" y1="67.2187" x2="296.898" y2="54.2075" gradientUnits="userSpaceOnUse">
<stop offset="0.177083" stop-color="#8F6AFA"/>
<stop offset="0.651042" stop-color="#375CDC"/>
<stop offset="1" stop-color="#0099EE"/>
</linearGradient>
<linearGradient id="paint3_linear" x1="33.6689" y1="208.783" x2="25.3375" y2="183.449" gradientUnits="userSpaceOnUse">
<stop offset="0.177083" stop-color="#8F6AFA"/>
<stop offset="0.651042" stop-color="#375CDC"/>
<stop offset="1" stop-color="#0099EE"/>
</linearGradient>
</defs>
</svg>
